<svg width="106" height="52" viewBox="0 0 106 52" fill="none" xmlns="http://www.w3.org/2000/svg">
<g clip-path="url(#clip0_86_38149)">
<path d="M7.91182 20.7816C8.22419 20.4227 7.98991 20.3884 7.70414 20.6545L7.91182 20.7816Z" fill="white"/>
<path d="M8.00474 20.9104C8.5719 20.6471 8.49882 20.0687 7.80209 21.0255C7.87435 20.9908 7.93406 20.9577 8.00474 20.9104Z" fill="white"/>
<path d="M24.7565 29.1291C25.0201 27.5756 24.3164 29.1847 24.7565 29.1291V29.1291Z" fill="white"/>
<path d="M29.795 29.1696C29.8217 29.1808 29.8508 29.1848 29.8795 29.1812C29.9082 29.1776 29.9355 29.1665 29.9585 29.149C30.0243 28.9618 29.7961 28.7735 29.7709 28.7767C29.7458 28.7798 29.6944 29.1823 29.795 29.1696Z" fill="white"/>
<path d="M5.11676 23.2298C4.96945 23.5806 5.15013 23.4939 5.44079 23.3678C5.73146 23.2416 5.45191 23.4558 5.38599 23.5408C5.32008 23.6257 6.53224 22.5017 6.28433 22.8652C6.0046 23.2938 5.68794 23.6971 5.33796 24.0706C5.08211 24.3712 4.84705 24.9375 5.23818 24.6964C5.6293 24.4554 5.50937 24.1128 5.90658 23.7177C6.12683 23.8432 5.46742 24.4886 5.60587 24.5733C5.74432 24.658 5.90276 24.3953 6.07695 24.1561C6.28145 24.258 5.6943 24.8687 5.81396 25.0069C5.93362 25.1451 5.94764 25.0539 5.85208 25.3087C5.75652 25.5635 6.17439 25.3319 6.42548 24.9935C6.67656 24.6552 6.79118 24.5513 6.93903 24.6093L6.25328 25.5519C5.93628 25.9752 6.52992 25.5169 6.62258 25.4413C6.71523 25.3657 6.88214 25.5746 7.00167 25.6106C7.16975 25.5627 7.3249 25.4776 7.45566 25.3616C7.46996 25.4748 6.61546 27.2052 7.55575 26.1538C7.76593 25.7951 7.73179 26.1316 7.7445 26.2322C7.68838 26.597 7.91936 26.5039 8.14715 26.3857C8.67196 26.1916 8.34066 26.5018 8.37747 26.9954C8.41428 27.4889 9.01505 26.4805 9.26282 26.0148C9.15932 26.2067 9.21452 26.3403 9.02789 26.6832C8.96314 26.8044 8.93185 26.9407 8.93723 27.0779C8.98648 27.4678 9.4062 27.453 9.5935 27.621C9.7808 27.789 9.97155 28.1865 10.245 28.1264C10.5185 28.0663 10.6495 27.2832 10.7592 27.0394C10.6589 27.2565 10.7846 27.2406 10.8132 27.4669C10.7593 27.6274 10.6889 27.7818 10.6032 27.9278C10.5484 28.1008 10.7731 28.0596 10.8124 28.0674C10.8518 28.0753 11.0197 27.888 11.0465 27.8974C11.0732 27.9068 11.2796 28.2256 11.4807 28.2002C11.6819 28.1748 12.0204 27.3144 12.1167 27.6727C12.2131 28.031 12.1499 28.946 12.5144 28.7978C12.6653 28.7787 13.2267 27.7624 12.879 28.7517C12.9844 28.6343 13.0668 28.4982 13.1222 28.3505C12.6808 29.8116 13.556 29.4583 13.9726 29.5206C14.0732 29.5079 14.748 29.7931 14.881 29.3292C15.0068 29.3133 15.0039 29.4925 15.0889 29.5584C15.2356 29.6614 15.4132 29.7111 15.5921 29.6992C15.8908 29.7382 16.0312 30.0398 16.3157 30.0677C16.3157 30.0677 16.5863 30.1868 16.6911 29.8031C16.7959 29.4194 16.8399 29.3628 16.9169 29.3658C16.994 29.3688 17.1042 29.5338 17.0763 29.8183C17.0484 30.1029 17.3781 29.7802 17.46 29.9232C17.5419 30.0661 17.4767 30.662 17.6018 30.1352C17.68 29.8443 17.8478 29.5548 17.9516 29.5672C18.0554 29.5797 17.7136 30.3127 17.7168 30.3379C17.7502 30.6019 18.3216 29.9676 18.43 29.9156C18.5384 29.8636 18.6472 30.1181 18.7637 30.2311C18.8801 30.3442 19.0506 30.8847 19.2448 30.2981C19.3654 29.9379 19.4358 29.6863 19.5831 29.3356C19.6212 29.6373 19.5889 30.1908 19.6317 30.4281C19.6857 30.8556 19.9339 29.4829 19.9683 29.3508C20.0027 29.2187 19.8128 30.6479 19.8588 31.0126C19.9049 31.3772 20.2344 30.8502 20.3491 30.8485C20.4639 30.8467 20.7552 31.2315 20.8255 30.8777L20.8895 30.5758C20.965 30.5662 21.0419 30.4671 21.1202 30.2783C21.1107 30.2029 21.3095 29.5518 21.3095 29.5518C21.3095 29.5518 21.1041 31.1619 21.2113 31.4038C21.3186 31.6458 21.7475 31.5022 21.9409 31.5161C22.1343 31.5299 22.701 32.0716 22.9418 31.1469C22.883 31.7931 23.5066 31.4715 23.6545 31.5295C23.8023 31.5875 23.8721 32.0386 23.9174 31.7901C23.9626 31.5417 23.9195 30.9978 23.9821 30.7855C24.1979 29.9662 24.3547 32.0159 24.4849 31.8334C24.556 31.26 24.6634 30.6918 24.8066 30.132C24.8383 30.3835 24.3837 32.5488 24.8467 31.9666C25.0994 31.6408 25.3263 32.0209 25.5771 31.4783C25.734 31.3051 26.1171 30.899 26.2149 31.1677C26.1229 31.7542 26.4413 32.3528 26.5409 31.6248C26.3104 33.238 27.1836 32.5656 27.2839 31.1349C27.3299 31.4995 27.2724 31.9539 27.2901 32.2966C27.3079 32.6393 27.5106 32.6265 27.6631 32.62C27.8156 32.6135 28.2154 32.9462 28.2239 32.3064C28.2668 32.6459 28.5043 32.7053 28.6678 32.6847C28.8312 32.664 28.9629 32.3919 29.0688 31.612C29.2448 31.5898 29.1251 32.563 29.2165 32.7814C29.2554 32.4827 29.3824 32.1728 29.4846 32.1727C29.3226 33.3174 29.7089 33.0386 29.9746 33.0178C30.2402 32.997 30.4696 31.6778 30.5666 31.3333C30.6636 30.9889 30.666 30.401 30.7473 30.033C30.8285 29.665 30.8622 30.1335 30.8545 30.275C30.808 30.8174 30.6893 31.3945 30.602 31.9165C30.602 31.9165 30.402 32.8616 30.4805 32.775C30.559 32.6885 30.6123 32.6051 30.6925 32.6333C30.6753 32.7312 30.6881 32.8319 30.7291 32.9225C30.7291 32.9225 30.9288 32.9867 30.9647 32.765C31.0005 32.5433 31.0704 30.6693 31.1035 30.729C31.1366 30.7887 31.3306 32.5271 31.6058 31.3681C31.4873 30.936 31.6845 30.2723 31.6006 29.8102C31.5167 29.3481 31.0923 30.6409 31.0917 30.13C31.1609 29.7663 31.1742 29.3941 31.1311 29.0264C31.1667 28.6003 30.8922 29.0566 30.8167 29.0661C30.7413 29.0756 30.4896 30.1167 30.3912 30.6529C30.3287 30.9674 30.257 31.4108 30.1266 31.4911C29.9963 31.5715 29.8218 31.6063 29.8545 31.3594C29.8872 31.1126 30.1666 30.7962 30.2324 30.6091C30.3503 30.2579 30.4201 29.8924 30.44 29.5225C30.3639 30.2347 30.1356 29.9442 29.9805 30.3343C29.7919 30.3581 29.9535 30.1205 29.796 29.8849C29.6384 29.6493 29.5553 29.8003 29.4516 29.7879C29.3478 29.7755 29.4118 29.4735 29.3801 29.222C29.3483 28.9706 29.1721 28.8906 29.0714 28.8011C28.9707 28.7117 28.5975 28.2861 28.5793 28.7483C28.5598 29.5045 28.4391 29.7625 28.1983 29.5757C27.9576 29.389 28.1938 28.5288 27.9697 29.0808C27.7457 29.6329 27.7442 28.5089 27.6112 28.9728C27.6271 29.0986 27.4862 29.6018 27.4161 30.0578L27.3289 30.6821C27.3272 30.7712 27.3384 30.8602 27.3622 30.9461C27.2379 30.8724 27.397 29.9069 27.392 29.6648C27.387 29.4228 27.1918 29.2941 27.2808 28.7846C27.3562 28.7751 27.3464 28.4953 27.3197 28.4859C27.293 28.4765 27.2367 28.7391 27.1928 28.7958C27.1398 29.1857 26.9401 29.1215 26.8615 29.1059C26.7828 29.0903 26.9822 30.0615 26.7556 29.8858C26.529 29.71 26.8608 28.595 26.7849 28.2979C26.7091 28.0009 26.3986 28.5767 26.3081 29.0736C26.2175 29.5705 26.2236 29.4164 26.0586 29.4245C25.8935 29.4326 25.8554 29.1308 25.8369 29.3886C25.8183 29.6465 25.8284 30.1307 25.6251 29.7348C25.5456 29.106 25.912 29.1747 25.9977 28.5379C25.7573 28.6577 25.9214 27.9344 25.6123 28.4205C25.4429 28.6974 25.1468 28.2749 25.0567 29.0784C25.1364 28.6978 24.9884 28.5377 24.8976 28.8302C24.7701 29.1603 24.6635 29.4981 24.5782 29.8415C24.3668 30.4942 24.4582 29.3967 24.494 29.175C24.5299 28.9533 24.6747 27.8747 24.4516 28.0306C24.2286 28.1866 23.9509 28.6177 24.1652 27.7858C24.0197 28.3535 23.7217 30.0391 23.5306 29.3351C23.4829 28.9578 23.7987 27.6149 23.3717 28.0776C23.3812 28.1531 22.9986 28.8657 22.9638 28.6913C22.929 28.5168 23.0446 28.0168 23.0192 27.8156C22.9938 27.6144 22.8277 28.0186 22.7255 28.0187C22.6233 28.0189 22.5581 28.6148 22.442 28.8083C22.3259 29.0018 22.1528 28.8448 21.9364 29.2554C21.9475 29.3435 21.5413 30.0719 21.6694 29.468C21.6202 29.0782 21.4736 28.8284 21.2944 28.8255C21.1152 28.8226 21.0685 29.1607 20.8547 29.1877C20.6409 29.2147 21.2616 27.7566 21.1951 27.4328C21.1287 27.109 20.8737 28.1249 20.8377 28.2445C20.8017 28.364 20.571 28.6614 20.6351 28.3595C20.5811 28.7354 20.5044 29.1077 20.4055 29.4744C20.4299 28.7351 20.5521 28.0023 20.7689 27.295C20.5929 27.3173 20.5233 28.182 20.2921 28.1729C20.588 27.1774 20.0796 27.9059 20.0462 27.6418C20.0128 27.3778 20.2152 27.0584 20.0784 26.9862C19.9415 26.9141 19.9354 27.0682 19.8286 27.1328C19.7218 27.1974 19.602 26.957 19.4746 26.9603L18.9354 26.939C18.938 27.3152 18.8391 27.6852 18.6491 28.01C18.4404 28.2791 18.5745 27.419 18.5506 27.2304C18.6585 26.7696 18.4585 26.501 18.3282 26.6836C18.198 26.8661 18.2741 27.3675 18.2728 27.5593C18.2715 27.7511 17.64 28.1119 17.8042 27.4907C18.1123 26.2893 17.1592 28.3515 17.0948 28.3469C17.1526 28.0968 17.3828 27.3907 17.2633 27.3547C17.1437 27.3187 16.6332 27.6259 16.9171 27.1429C16.8447 27.0754 16.4287 27.524 16.5429 27.1135C16.5207 26.9375 16.5796 26.2913 16.473 26.5602C16.3355 27.0316 16.3237 27.5308 16.4388 28.0082C16.4388 28.0082 16.2004 28.4471 16.1627 28.4518C16.125 28.4566 16.0928 27.8986 16.168 27.6847L16.3126 26.5039L15.9502 27.0734C15.6211 27.8049 15.7713 27.2749 15.7801 26.8394C15.7914 25.816 14.8202 27.3312 15.0451 26.1785C15.0292 26.0528 14.548 27.0973 14.6213 26.6664C14.6102 26.5784 14.9654 25.3454 14.7066 25.8253C14.4479 26.3051 14.4406 26.7531 14.2724 26.7361C14.1041 26.719 14.2072 26.2205 14.2009 26.1702C14.1945 26.1199 14.2644 26.6732 14.3518 26.1512C14.4391 25.6291 14.2867 25.6356 14.1955 25.6216C14.1043 25.6075 13.9752 25.4961 13.886 25.8012C13.7968 26.1063 13.6609 26.7494 13.8165 26.7681C13.7642 27.0062 13.672 27.2338 13.5439 27.4413C13.3791 27.6538 13.4319 27.1616 13.4883 27.0012C13.5038 26.4657 13.5915 25.9347 13.7487 25.4225C13.6516 25.6647 13.5231 25.962 13.457 25.9448C13.391 25.9276 13.5522 25.3835 13.5583 25.2294C13.586 24.8426 13.2296 25.1559 13.0678 25.2914C12.8011 25.4628 12.5689 25.6828 12.3833 25.9399C12.3221 26.0626 11.9975 26.6274 12.0254 26.3429C12.1841 25.8729 12.3878 25.4194 12.6336 24.9885C12.5078 25.0044 12.1299 25.7548 12.078 25.7486C12.171 25.546 12.2215 25.3266 12.2265 25.1038C12.2122 24.9906 12.0313 24.873 11.8746 25.2505C11.7332 25.345 11.3057 25.399 11.1646 25.6979C10.7231 25.8431 11.1106 25.2703 11.1461 24.7421C11.1815 24.2138 10.6374 25.2663 10.8874 25.3241C10.716 25.2819 10.135 25.7385 9.81982 26.3788C10.0221 25.9572 10.2559 25.6849 10.4518 25.213C10.5584 24.9441 10.5974 24.7475 10.6962 24.5179C10.3261 25.2289 10.1327 25.215 9.90608 25.0393C9.67948 24.8635 9.97901 24.3019 10.0256 23.8616C9.78563 24.288 9.37172 23.9442 9.25855 23.9585C9.14538 23.9728 8.74684 24.5597 8.65551 24.4435C8.56418 24.3273 9.02701 22.4292 8.30063 23.5558C8.28951 23.4678 8.5619 22.5902 8.22279 22.9396C7.94856 23.251 7.64694 23.5371 7.32155 23.7945L8.36229 22.6282C7.93517 22.9887 7.50486 23.3242 7.06198 23.6612C7.38346 23.3425 7.6864 23.0056 7.9693 22.6523C7.65494 22.692 6.95662 23.6362 6.61924 24.1004C6.4698 24.0298 7.31266 23.0163 7.48684 22.7771C7.8462 22.2846 7.36573 22.7285 7.44395 22.4376C7.52217 22.1467 7.78451 21.9985 7.58809 22.0617C7.39166 22.1248 7.13263 22.4003 7.10099 22.251C7.11573 22.157 7.13822 22.0644 7.16823 21.9742C7.15393 21.861 7.55523 20.9927 7.31804 21.1377C7.31804 21.1377 6.65863 21.7831 6.63665 21.8114C6.07611 22.3294 5.94891 22.4349 5.93752 22.1425C5.92613 21.8501 5.57776 22.3284 5.42065 22.3994C5.5951 22.3646 5.22331 22.9609 5.11676 23.2298Z" fill="white"/>
<path d="M33.1463 30.1131C33.2503 30.2277 33.4154 30.3218 33.3613 29.7921C33.3071 29.2624 33.0715 29.4199 32.9348 29.45L33.0849 30.0314C33.1196 30.1037 33.1354 30.1273 33.1463 30.1131Z" fill="white"/>
<path d="M32.0245 32.9632C32.1918 33.4786 32.2756 32.6249 32.3988 33.0948C32.5221 33.5647 32.9562 32.5517 33.2201 32.4161C33.1832 33.034 33.3075 33.1077 33.4755 32.9204C33.6365 32.6083 33.7535 32.2754 33.8232 31.9311C33.5866 32.587 34.0885 34.0311 33.9121 32.6353C33.7731 32.1419 34.1175 32.2389 34.1762 32.6019C34.2348 32.965 34.1978 33.4807 34.4618 33.4473C34.7579 33.8698 34.5796 32.1549 34.5636 31.927C34.5476 31.6991 34.8737 29.831 34.6706 29.6395C34.4676 29.448 34.4765 30.2262 34.3408 29.86C34.3185 29.684 34.2296 28.9798 34.0948 29.329C33.9601 29.6782 34.1338 30.2439 34.0917 30.5175C34.0496 30.7911 34.0182 30.8462 34.0012 31.0144C34.0053 30.5412 33.9429 29.7442 33.7974 30.3119C33.7286 30.5761 33.5931 31.5258 33.5746 31.7837L33.7294 29.9756C33.5659 29.9963 33.6581 30.7256 33.5089 30.8594C33.3597 30.9932 33.2619 30.7245 33.1141 30.6666C32.9662 30.6086 32.6865 30.7206 32.5571 30.3026C32.5428 30.1894 32.4745 29.6487 32.3739 29.6614C32.3991 30.0106 32.3965 30.3612 32.3658 30.71C32.1646 30.7354 32.2816 30.0435 32.2308 29.6412C32.2217 29.9198 32.1153 30.1864 31.9299 30.3946C31.7588 30.5567 31.7448 30.6479 31.7424 31.2359C31.7514 31.8224 31.8465 32.4043 32.0245 32.9632Z" fill="white"/>
<path d="M34.5247 33.4394C34.7105 33.697 34.3235 33.4649 34.5247 33.4394V33.4394Z" fill="white"/>
<path d="M34.9251 33.0694C35.1225 33.7216 35.155 32.1589 35.1782 31.8366C35.1972 31.9875 35.2294 33.7592 35.3767 33.4084C35.524 33.0576 35.322 32.47 35.5484 32.4414C35.7747 32.4128 35.8375 32.3026 35.9382 32.3921C36.0389 32.4816 35.9166 32.727 35.9231 32.8795C35.993 33.4327 36.1831 33.3193 36.2123 32.8429C36.2679 33.283 36.4802 32.132 36.6254 32.5736C36.671 32.8966 36.624 33.2259 36.4899 33.5233C36.754 33.4899 36.8392 32.5466 36.906 31.9632C36.9666 32.456 36.9909 32.9525 36.9787 33.4487C37.0536 33.0305 37.3064 31.5933 37.4825 31.571C37.4799 32.0568 37.5004 33.2295 37.7798 32.9132C38.0592 32.5968 37.4531 31.9452 37.7089 31.6446C37.9648 31.344 37.7923 32.9116 37.9667 32.7746C38.141 32.6376 38.1197 31.9632 38.2303 32.4347L38.2891 32.8999C38.3454 32.6703 38.3756 32.4351 38.3794 32.1987C38.3601 32.5884 38.4311 32.9772 38.5868 33.335C38.6751 33.5283 38.6998 33.2185 38.7136 32.923C38.7628 33.3128 38.7978 33.5894 39.0037 33.6017C39.2097 33.614 39.1872 33.2336 39.2891 33.0291C39.391 32.8246 39.5181 32.6169 39.6313 32.6026C39.7444 32.5883 39.717 33.2816 39.7377 33.4451C39.874 33.2463 39.9674 33.0213 40.0119 32.7845L39.9802 32.533C40.0339 31.5425 39.7975 31.0869 39.8354 30.0729C39.8734 29.0589 39.5739 29.6205 39.3522 29.5846C39.1305 29.5488 38.839 29.0618 38.6998 29.5776C38.6053 30.024 38.664 30.4891 38.8666 30.8979C38.6999 31.4239 38.5842 31.9647 38.5213 32.5129C38.48 32.186 38.5864 31.8148 38.578 31.4454C38.5764 31.2801 38.5556 31.1155 38.5161 30.955C38.4811 30.6784 38.7172 29.7159 38.5412 29.7382C38.3651 29.7604 37.6801 28.8888 37.6598 30.1434C37.6439 30.0176 37.328 30.0448 37.2683 30.0779C37.2086 30.1109 37.0884 29.564 36.9467 29.4542C36.8051 29.3443 36.5866 29.3336 36.4329 29.6341C36.102 30.2507 36.2531 29.2224 36.0032 29.2668C36.0088 29.9176 36.1755 29.9221 36.0255 30.6564C35.9787 30.8923 35.7252 31.8186 35.6177 31.3723C35.581 30.6725 35.6473 29.9711 35.8146 29.2906C35.7015 29.3049 35.2328 29.1341 35.1658 29.6153C35.1673 30.2419 35.1182 30.8676 35.0189 31.4862C34.8963 31.7298 34.8247 31.9959 34.8086 32.2682C34.7925 32.5404 34.8321 32.8131 34.9251 33.0694Z" fill="white"/>
<path d="M40.166 30.3633C40.3134 30.1147 40.2045 29.758 40.0929 29.7849C39.9813 29.8117 40.0685 30.4012 40.166 30.3633Z" fill="white"/>
<path d="M40.8371 32.6419L40.9377 32.6292C41.1164 32.2234 40.8122 31.6358 40.8371 32.6419Z" fill="white"/>
<path d="M40.986 31.09C41.0781 31.8193 41.1877 32.687 41.2846 33.454C41.538 33.1502 41.6874 32.7731 41.7108 32.3782C41.7477 31.7603 41.3839 32.4195 41.4025 32.2638C41.4335 31.9022 41.6941 31.6393 41.7921 32.0102C41.89 32.3811 41.8154 33.0037 41.9509 33.2676C42.5667 34.0969 41.9682 32.0901 42.0939 31.9721C42.2195 31.854 42.4195 33.3362 42.5879 33.4555C42.7562 33.5747 42.9262 33.7065 42.8794 32.831C43.0932 32.804 43.1128 33.3636 43.3159 33.5551C43.5189 33.7466 43.7263 33.6693 43.672 33.0374C43.7222 34.1425 44.4391 32.9405 44.7083 33.2514C44.7083 33.2514 44.7083 33.2514 44.7178 33.3269C44.644 32.6327 44.5313 31.9432 44.3803 31.2616C44.3136 30.7335 44.1864 30.839 44.1578 30.6127C44.1292 30.3863 44.0148 29.481 43.9446 29.937C43.901 30.198 44.0082 30.4399 43.8966 30.4668L43.6703 30.4954C43.5415 30.5883 43.6101 31.3334 43.5209 31.6385C43.2924 32.4594 43.4685 30.1121 43.4717 30.1372C43.4749 30.1624 43.2464 30.9833 43.1327 30.5889C43.019 30.1944 42.9898 29.4572 42.7542 29.6147C42.5186 29.7722 42.3682 30.2 42.5085 30.5016C42.5165 30.5645 42.7644 30.201 42.7583 30.3551C42.7181 30.8457 42.2921 30.9122 42.1693 30.7489C42.0464 30.5856 42.1343 30.4723 42.1232 30.3842C42.2027 30.1347 42.2175 29.8691 42.1662 29.6123C42.0626 30.0428 41.9855 30.4791 41.9353 30.919C41.9098 30.7178 41.8955 29.391 41.7764 29.6616C41.6573 29.9321 41.6957 30.4383 41.5874 30.5925C41.4791 30.7467 41.5493 30.2907 41.4407 30.2405C41.228 29.8714 41.3579 31.8095 41.142 30.2016C40.9698 29.5463 40.8406 29.3327 40.6575 30.0073C40.4745 30.682 40.4001 29.0817 40.2909 29.7343C40.1649 30.6187 40.0983 31.5106 40.0916 32.4039C40.1803 34.1173 40.8687 31.5775 40.986 31.09Z" fill="white"/>
<path d="M44.7508 33.2844C44.7524 33.2589 44.7492 33.2333 44.7413 33.209C44.7413 33.209 44.7668 33.5124 44.7508 33.2844Z" fill="white"/>
<path d="M49.7142 30.0002C49.8777 29.9795 49.9033 29.1715 49.6863 29.0711C49.4692 28.9708 49.5178 30.0633 49.7142 30.0002Z" fill="white"/>
<path d="M51.271 29.1775C50.9784 28.9845 50.9415 29.6023 51.3092 29.4792C51.3314 29.3772 51.3179 29.2707 51.271 29.1775Z" fill="white"/>
<path d="M44.5763 30.892C44.5874 31.116 44.6156 31.3388 44.6605 31.5585C44.8277 31.9717 44.8138 30.9515 44.8733 32.0298C44.921 32.4071 45.1957 33.2666 45.272 32.7587C45.3484 32.2509 45.3244 31.9601 45.357 31.611C45.4031 31.9757 45.4153 32.8812 45.5787 32.8605C45.7422 32.8399 45.9804 32.2988 46.0474 33.0313C45.9918 32.5912 45.9251 32.063 46.1545 31.9574C46.1799 32.1586 46.2255 33.3281 46.3229 33.2903C46.4203 33.2524 46.4773 32.3893 46.5227 32.243C46.8172 31.4393 46.626 33.0604 46.8241 33.112C47.0223 33.1636 47.0861 32.6573 47.152 32.5723C47.2068 32.2726 47.2027 31.965 47.1398 31.6668C47.3284 31.643 47.2573 32.5973 47.278 32.7608C47.2986 32.9243 47.5422 32.8296 47.6117 33.0764C47.6812 33.3231 47.6546 33.4159 47.838 33.0478C48.0215 32.6797 48.0547 32.8415 48.165 33.0065C48.2752 33.1714 48.4349 33.8283 48.4485 33.4305C48.4247 33.2419 48.3389 32.5629 48.4048 32.4779C48.4707 32.393 48.597 32.7858 48.6146 33.0263C48.7369 33.9945 48.8515 32.677 48.7822 32.5325C48.8671 32.5984 48.9607 33.2381 49.1336 33.1907C49.3065 33.1433 49.0844 32.8009 49.0526 32.5494C49.0208 32.2979 49.4874 33.261 49.5047 33.2971C49.5221 33.3332 49.619 32.8866 49.7037 32.7482C49.9395 32.4342 50.0867 32.0626 50.1299 31.6723C50.1767 31.4365 50.2343 30.9821 50.3714 31.2586C50.5085 31.5351 50.7078 32.4042 50.8178 32.3647C50.9278 32.3253 51.0321 32.7464 51.166 32.9978C51.5159 33.6435 51.485 31.68 51.8828 32.9072C51.8033 32.2785 51.735 31.7378 52.0261 31.9182C52.3172 32.0986 52.4583 33.0134 52.5809 32.9723C52.7034 32.9313 52.0804 31.3365 52.0503 31.1998C51.9612 30.5531 51.9514 29.8979 52.021 29.2489C51.9463 28.6579 51.5238 28.954 51.4642 28.9871C51.2128 29.121 51.7579 29.9975 51.7002 30.3497C51.7233 30.0994 51.7172 29.8472 51.6819 29.5983C51.7668 29.9441 51.8116 30.2985 51.8153 30.6546C51.7578 31.109 51.5857 30.5558 51.5318 30.2305C51.4779 29.9051 51.1436 29.0787 51.2234 30.0139C51.2647 30.3409 51.3823 31.2714 51.1542 31.1852C50.9261 31.0991 50.9842 29.8397 50.9445 29.5254C50.9048 29.211 50.6125 29.3246 50.5261 29.3483C50.1961 29.4666 49.8874 29.0457 50.0873 30.4257C49.8651 29.9811 49.9305 30.7011 49.7702 30.7469C49.6099 30.7927 49.686 30.0804 49.5257 30.1262C49.3654 30.172 49.6538 31.8475 49.2756 31.1798C49.0867 30.8482 48.9785 30.4767 48.9597 30.0955C49.0112 29.7952 49.1755 30.3876 49.2495 30.4677C49.3235 30.5478 49.3971 30.3213 49.3589 30.0195C49.3208 29.7177 49.3161 29.68 49.5063 29.6688C49.4316 29.0778 49.0367 28.8849 49.1114 29.4759C48.9354 29.4982 48.8153 29.0534 48.63 29.2046C48.4447 29.3558 48.3209 29.6908 48.4726 30.2848C48.5715 30.549 48.6445 30.8222 48.6907 31.1004C48.7145 31.289 48.4422 32.2688 48.4167 31.9654C48.3822 31.5046 48.3031 31.0483 48.1807 30.6028C48.1171 30.0998 47.9973 29.8594 47.8291 29.8423C47.6609 29.8253 47.5674 29.2877 47.4337 29.2408C47.6209 29.3065 47.7099 33.6516 47.3859 29.975C47.3049 29.3337 47.1396 29.1374 47.0254 29.5478C46.9866 29.8346 46.9634 30.1233 46.9558 30.4126C47.0018 30.7772 46.919 31.1326 46.919 31.1326C46.919 31.1326 46.819 29.229 46.6855 29.2842C46.7442 29.7494 46.9381 31.2835 46.737 31.4111C46.5359 31.5387 46.5607 30.0154 46.411 29.7404C46.2612 29.4655 46.2349 29.7627 46.172 29.7706C46.1092 29.7786 46.1291 29.4311 46.0049 29.3574C45.8806 29.2837 45.5206 30.4789 45.5206 30.4789C45.4967 30.2903 45.6062 29.8421 45.4157 29.649C45.2252 29.4559 45.2774 29.6665 45.2352 29.8379C45.193 30.0093 45.0545 31.1382 44.9695 31.0723C44.8846 31.0064 44.8266 29.9406 44.6643 29.6673C44.502 29.394 44.435 29.8751 44.456 30.2429C44.4769 30.6108 44.5364 30.4755 44.5763 30.892Z" fill="white"/>
<path d="M52.3095 31.0265C52.3698 31.5043 52.6348 32.1862 52.735 31.867C52.735 31.867 52.735 31.867 52.7223 31.7664L52.5428 30.3455C52.6047 30.562 52.6331 30.7868 52.627 31.0119C52.5921 30.7353 52.1161 29.799 52.3095 31.0265Z" fill="white"/>
<path d="M53.1547 29.4249C53.1309 29.2363 53.1535 28.5053 53.0403 28.5196C52.9271 28.5339 52.9944 29.4707 53.1547 29.4249Z" fill="white"/>
<path d="M53.2196 33.377C53.2196 33.377 53.2944 32.8565 53.329 32.8266C53.3635 32.7967 53.5855 33.0369 53.7268 32.9424C53.8686 32.7925 53.9606 32.6024 53.9902 32.3982C53.9873 32.199 53.9623 32.0008 53.9156 31.8072C53.9156 31.8072 54.1823 32.6038 54.2025 32.4608C54.1661 31.9632 54.1035 31.468 54.0151 30.977L53.7231 28.8676C53.5847 28.8851 53.7738 30.3815 53.6573 30.2684C53.5408 30.1554 53.5388 28.6226 53.3188 28.7015C53.5908 29.9447 53.2157 29.2 53.2227 29.7612C53.2298 30.3225 53.6146 31.2448 53.2545 31.2264C52.8945 31.208 53.1592 30.4719 53.1195 30.1575C53.0302 29.6295 52.8665 29.1169 52.6333 28.6348C52.5863 29.3307 52.6147 30.0295 52.7178 30.7193C52.7893 31.2851 52.9545 32.5929 52.7361 32.6844C52.997 32.6258 53.0428 32.7861 53.2196 33.377Z" fill="white"/>
<path d="M54.7455 32.916C54.909 32.8953 55.1353 32.8667 55.1835 32.4391C55.2317 32.0114 55.0612 31.4708 55.1127 31.1705C55.1641 30.8702 55.6538 32.6224 55.7906 32.6945C55.9275 32.7666 56.017 32.6659 56.0907 32.5416C56.1508 32.4731 56.2258 32.4192 56.31 32.3842C56.3942 32.3492 56.4852 32.334 56.5762 32.3398C56.8026 32.3112 57.0468 32.7274 57.118 31.8753C57.1068 31.7873 56.7407 29.4957 57.0306 29.97C57.0385 30.0329 57.1211 30.6868 57.1434 30.8628C57.1882 31.0897 57.2806 31.3044 57.4146 31.4929C57.7438 31.9751 58.0881 31.9699 58.3552 31.8595C58.6223 31.7491 58.7324 31.8118 58.7555 31.4895C58.7787 31.1672 58.521 31.2509 58.5116 31.2776C58.5022 31.3044 58.402 30.41 58.3893 30.3094C58.3289 29.8316 58.2431 29.1526 58.0853 28.7126C57.9276 28.2726 57.8841 28.738 57.7973 28.4551C57.6647 28.012 57.6189 27.8517 57.4761 28.0358C57.3332 28.2199 57.1716 28.4575 57.3457 29.3298C57.3807 29.6064 57.5465 30.2115 57.6405 29.9441C57.7345 29.6767 57.789 30.513 57.7954 30.5633C57.8017 30.6136 57.825 31.6071 57.6974 31.406C57.5698 31.205 57.6164 30.7647 57.6021 30.6516C57.5406 30.2768 57.4258 29.9127 57.2611 29.5704C57.2611 29.5704 56.5842 28.8639 56.7772 28.5712C56.7772 28.5712 56.9834 28.7879 57.0035 28.5426C57.0236 28.2974 56.2718 28.0091 56.6583 29.0462C56.7139 29.4863 56.6885 29.2851 56.5615 29.4928C56.4344 29.7004 56.5853 29.6814 56.6298 30.0335C56.6139 29.9077 56.1396 29.0861 56.0892 28.9903C55.8497 28.6118 55.6708 28.8132 55.4885 28.8874C55.0068 28.4117 55.6347 30.0442 55.7062 30.6101C55.7252 30.7609 55.6089 30.7501 55.5696 30.7423C55.5302 30.7345 55.5076 30.2519 55.421 30.1734C55.3607 29.6956 55.1272 29.0608 55.0255 29.4696C54.9239 29.8785 54.9845 30.5607 54.8986 30.9931C54.6974 31.0185 54.8413 31.6519 54.6859 31.8376C54.5305 32.0233 54.6291 30.4778 54.6116 30.3395C54.5897 29.9114 54.4889 29.4911 54.3145 29.0996C54.061 28.8122 54.0793 29.5636 54.2261 30.0178C54.2578 30.2692 54.4437 30.5268 54.5022 30.7877C54.5607 31.0486 54.4537 31.011 54.3907 30.9168C54.0544 30.9848 54.4578 32.8629 54.7455 32.916Z" fill="white"/>
<path d="M59.5991 30.987C59.5664 30.0202 59.6769 31.6031 59.5991 30.987V30.987Z" fill="white"/>
<path d="M59.2089 30.7297C59.3472 30.7122 59.2851 31.3333 59.4221 31.5076C59.5591 31.6819 59.6246 31.2904 59.6054 31.0373C59.5862 30.7842 59.2877 28.5224 59.1154 28.9785C59.0646 28.5761 59.0264 28.2744 59.1601 28.3213C59.0823 27.7052 58.6778 28.5484 58.6292 28.6695C58.4316 29.3669 58.432 30.1056 58.6305 30.8028C59.0447 32.5645 58.8833 30.5792 59.2089 30.7297Z" fill="white"/>
<path d="M62.7777 30.8664C62.811 31.1305 62.8142 31.1556 62.9493 31.113L63.0374 31.1019C62.9317 30.8725 62.842 30.7689 62.7777 30.8664Z" fill="white"/>
<path d="M65.1797 28.4423L65.1257 28.0148C65.0828 27.6753 65.0447 27.3735 64.8907 27.4696C64.9086 27.8992 65.014 28.3206 65.2005 28.708C65.202 28.619 65.195 28.53 65.1797 28.4423Z" fill="white"/>
<path d="M64.6632 26.5785C64.7764 26.5642 64.9307 26.7747 65.0501 26.7085C65.0491 25.9932 64.7355 26.5438 64.6632 26.5785Z" fill="white"/>
<path d="M59.3129 28.5191C59.5015 28.4953 59.7607 29.5357 59.8658 29.3563C59.9276 29.132 59.9756 28.9041 60.0095 28.6739C60.0095 28.6739 60.2119 28.3545 60.2027 28.5856C60.2107 28.2967 60.1742 28.0083 60.0947 27.7305C60.2177 28.2574 60.377 28.7751 60.5715 29.2799C60.582 28.857 60.5129 27.7032 60.7899 27.9748C61.0672 28.3901 61.2014 28.8845 61.1722 29.3829C61.1801 29.4458 61.2119 29.6973 61.2087 29.6721C61.2056 29.647 61.3343 29.554 61.3468 29.4503C61.3936 29.1158 61.3766 28.7755 61.2967 28.4474C61.1593 27.9665 61.1633 27.3911 61.3379 27.4585C61.5125 27.5258 61.7024 28.5239 61.8725 28.7579C62.0426 28.9919 62.0435 28.4935 62.0511 28.2499C61.9088 28.0026 61.8021 27.7365 61.734 27.4595C61.6451 26.7554 61.8448 26.8196 61.9981 27.4262C61.9679 27.1873 61.9234 26.8352 62.0116 26.9262C62.179 27.2009 62.303 27.4998 62.379 27.8124C62.6411 28.6735 62.8813 29.563 63.1214 30.4525C62.9523 29.8223 63.0566 29.0299 62.8767 28.516C62.7209 28.2494 62.5991 27.9644 62.514 27.6676C62.4696 27.3155 62.761 27.8025 62.7941 27.8622C63.01 28.2565 63.3685 29.4759 63.5206 29.1629C63.6726 28.8498 62.9309 27.8321 62.827 27.7175C62.2755 26.7907 62.8104 27.0808 62.9424 27.013C63.0743 26.9453 63.1114 26.4296 63.3082 26.673C63.4396 26.9795 63.5518 27.2938 63.6443 27.6142C63.6808 27.9034 64.1776 29.1054 64.3159 29.0879C64.4543 29.0705 63.7935 27.4804 63.8453 27.4866C63.8972 27.4928 64.0188 27.848 64.0279 27.6169C64.037 27.3858 63.7928 26.9695 63.7484 26.7196C63.5617 25.7467 64.0251 26.6846 64.1625 27.1655C64.0298 26.7223 63.8905 25.9224 64.2105 26.6356C64.6075 27.5219 64.9366 28.4369 65.1951 29.3729C65.2317 29.2055 65.2572 29.0358 65.2715 28.865C65.2713 28.4413 65.2434 28.0181 65.188 27.598C64.6931 26.613 65.6443 27.8725 65.6317 27.8741C65.6192 27.8757 65.0453 26.6707 65.4357 27.0302C65.5663 27.1542 65.5105 26.5097 65.6079 26.4719C65.7053 26.434 65.9608 27.0405 66.044 26.9917C65.9308 27.006 65.3623 25.0338 65.8709 25.6211C66.2249 26.3241 66.534 27.0488 66.7965 27.7909L66.6774 26.8478C66.6855 26.5207 66.6442 26.1943 66.555 25.8795C66.555 25.8795 66.42 26.0243 66.3413 25.9065C66.0421 25.5611 66.6976 25.4911 66.696 25.4785C66.6944 25.4659 67.0225 25.1306 67.1459 25.7027C67.5571 27.5415 67.4624 24.8707 67.8024 25.2365C68.0603 25.7508 68.2653 26.2899 68.4145 26.8455C68.7247 27.502 68.9055 28.2122 68.947 28.9372C68.8705 29.3429 68.7837 29.06 68.5817 28.4724C68.4413 28.0685 67.9866 27.8066 67.9927 27.6525C68.0565 28.2097 68.173 28.7596 68.3407 29.2949C68.3042 29.0056 67.446 26.7634 67.5617 27.477C67.7343 28.0588 67.8442 28.6573 67.8895 29.2624C67.8537 29.5863 67.5494 30.1102 67.3157 29.2711C67.5697 29.9671 67.1841 29.6454 67.0265 29.3076C67.0122 29.1944 66.4577 28.3447 66.6094 28.9387C66.7611 29.5328 66.8765 30.0419 66.5633 29.7877C66.2502 29.5334 66.4535 29.9293 66.2383 30.0459C65.7579 29.3784 65.3316 30.3521 65.011 30.4437C64.9104 30.4564 64.7344 30.4787 64.5784 30.2556C64.4913 30.0021 64.4365 29.7386 64.4155 29.4714C64.3275 29.4825 64.4086 30.226 64.3664 30.3974C64.3242 30.5688 64.052 30.4371 63.8616 30.244C63.4422 29.3516 63.7358 30.2599 63.7221 30.5555C63.7222 30.5803 63.7172 30.6049 63.7072 30.6277C63.6973 30.6505 63.6827 30.671 63.6643 30.6877C63.6459 30.7045 63.6243 30.7172 63.6007 30.7251C63.5771 30.733 63.5521 30.7358 63.5274 30.7334C63.4268 30.7461 63.4733 30.3058 63.467 30.2555C63.4606 30.2052 63.3925 30.9803 63.2997 30.9537C63.2069 30.9271 62.6839 30.1245 62.4241 29.7868C62.0241 29.2497 62.5289 30.6168 62.5718 30.9563C62.7472 31.6367 62.1864 30.7367 62.2342 31.2161C61.9939 30.2245 61.7189 31.4856 61.6131 31.154C61.5539 30.7209 61.4056 30.3046 61.1776 29.9315L60.7887 29.4825L61.281 30.8511C61.3806 31.0358 61.4569 31.2321 61.5082 31.4356C61.447 31.5583 61.3824 31.4515 61.3255 31.2032C61.3255 31.2032 61.0994 31.4361 61.0363 31.2397C60.8974 30.8484 60.8737 30.762 60.7276 30.8188C60.5815 30.8756 60.6481 31.3015 60.539 30.8426C60.2784 31.1055 60.451 30.8537 60.529 31.5721C60.5004 31.3457 59.8734 31.5399 59.9395 30.4457C59.7913 30.0725 59.6986 29.6796 59.6644 29.2796L59.5143 28.6981C59.3887 28.8162 59.3714 28.78 59.3129 28.5191ZM62.2884 29.4207C62.4725 29.5636 62.3727 28.9757 62.2953 28.6661C62.2467 28.5113 62.185 28.361 62.1107 28.2168C62.0697 28.6393 62.1323 29.0656 62.2932 29.4585L62.2884 29.4207Z" fill="white"/>
<path d="M70.0749 27.0445C70.136 27.3119 70.264 27.5595 70.4468 27.764C70.5646 27.6853 69.9327 26.5259 70.0749 27.0445Z" fill="white"/>
<path d="M69.792 28.345C69.7382 28.0668 69.7026 27.7854 69.6856 27.5025C69.762 26.9946 69.8352 27.6752 69.9677 28.0162C70.1002 28.3572 70.5586 29.053 70.4352 28.4809C70.3118 27.9089 70.0738 27.4407 69.9176 27.0133C69.2657 26.2014 69.9105 26.3499 69.9136 26.375C69.7793 26.0903 69.6613 25.7981 69.5603 25.4999L69.5333 25.2861C69.5156 24.971 69.4287 24.6635 69.279 24.3856C69.0445 24.147 69.1583 24.6436 69.2783 24.9862C69.291 25.0868 69.676 26.2134 69.3863 25.8412C69.0965 25.469 69.0865 24.9849 68.8865 24.7163C68.6865 24.4477 68.6601 24.7449 68.6131 24.8786C68.5662 25.0123 68.3148 25.1462 68.1688 25.3052C68.0228 25.4642 68.4522 26.8407 68.6856 27.3734C68.919 27.906 69.749 29.1169 69.792 28.345Z" fill="white"/>
<path d="M69.5711 25.2814L69.5981 25.4952C69.7069 25.7497 69.5091 24.791 69.5711 25.2814Z" fill="white"/>
<path d="M72.3636 24.5326C72.3192 24.1805 71.8508 23.1027 71.8875 23.494C71.9242 23.8854 72.2333 24.6129 72.3636 24.5326Z" fill="white"/>
<path d="M73.0698 24.7627C73.1226 24.2705 72.4357 23.182 72.3669 23.4462C72.2981 23.7104 73.1366 25.393 73.0698 24.7627Z" fill="white"/>
<path d="M73.0698 24.7627C73.1102 24.3743 73.1111 25.0896 73.0698 24.7627V24.7627Z" fill="white"/>
<path d="M81.1156 19.9904C81.0298 19.3113 80.4256 18.8767 80.7079 19.5947C80.8767 20.0205 81.2201 20.5137 81.1156 19.9904Z" fill="white"/>
<path d="M86.5408 21.17L86.6163 21.1605C86.581 20.6795 86.0115 20.3171 86.5408 21.17Z" fill="white"/>
<path d="M70.8847 28.3986C70.8609 28.21 71.0013 27.4002 71.2036 28.1922C71.275 28.7581 71.6063 28.448 71.6896 28.3991C71.7728 28.3503 72.2725 28.1594 72.4245 27.7442C72.5764 27.3289 73.0534 27.8691 73.2795 27.6361C73.5056 27.4032 72.9285 26.0708 73.4578 26.9238C73.6975 27.5067 73.9417 26.7093 73.9985 26.8555C74.1816 27.3944 74.6901 26.7681 74.841 26.749C74.9919 26.73 75.297 26.8192 75.5452 26.6601C75.3764 26.553 75.2547 26.3856 75.205 26.192C75.1748 25.9531 75.439 26.0219 75.4971 25.9763C75.5552 25.9306 75.3851 25.6966 75.5155 25.6162C75.6459 25.5359 75.7908 25.7731 75.9154 26.0512L75.7504 26.1614C76.1425 26.6357 76.2619 26.5695 76.3763 26.2612C76.4906 25.953 76.7004 26.5013 76.8512 26.3801C77.0019 26.2588 76.8706 25.6239 76.9142 25.2607C76.9577 24.8975 77.3611 25.6641 77.5484 25.8321C78.0473 26.2417 77.9737 25.2546 78.3511 25.3091C78.7285 25.3636 78.5917 25.3937 78.2987 24.8941C78.0056 24.3946 78.6759 24.8465 78.7513 24.837C79.0247 24.6747 78.8797 24.4375 79.3776 25.2433C79.5383 25.504 79.4697 24.759 79.4412 24.6348C79.2644 24.044 79.0503 23.8666 79.3221 23.6917C79.6225 23.8454 79.3641 23.4181 79.1311 23.0899C78.7909 22.5242 78.5213 21.919 78.3285 21.2878C78.4683 21.1807 79.036 22.5398 79.1275 22.7582C79.3186 23.1191 79.4537 23.5069 79.5283 23.9084C79.7475 24.43 80.2643 25.2846 79.9627 24.3134C80.2035 24.5002 80.3171 24.7924 80.4678 24.6712C80.4274 24.5645 80.4309 24.4461 80.4776 24.342C80.5244 24.2379 80.6105 24.1566 80.717 24.1159C80.9433 23.9851 81.2329 24.2552 81.303 23.7992C81.3309 23.599 81.3051 23.3951 81.2283 23.2082C81.4757 23.6496 81.7986 24.0815 81.992 24.0954C82.1853 24.1093 81.2953 22.727 81.2102 22.5589C81.5285 23.1575 81.9193 23.8235 82.1612 23.7163C82.4032 23.6091 82.702 23.648 82.4748 23.0635C82.678 23.3572 82.8951 23.4575 83.0334 23.44C83.1717 23.4226 83.0866 23.2545 82.9635 22.8868C82.9635 22.8868 83.4356 23.287 83.4843 23.2681C83.533 23.2492 83.2883 22.4241 83.2361 22.2136C83.184 22.003 83.0529 21.5724 82.9477 21.6496C82.8425 21.7267 82.6724 21.4927 82.6143 21.5384C82.765 21.4171 82.9112 21.3604 83.2291 21.6523C83.547 21.9443 83.5933 22.4112 83.7979 22.6153C84.0025 22.8194 83.701 21.8482 83.6851 21.7225C83.6692 21.5967 84.1162 22.0002 84.2028 22.0787C84.6608 22.4679 85.0207 22.3841 84.6077 21.542C84.5886 21.3912 85.1609 21.4721 85.2762 21.8792C85.2492 21.6654 84.9625 21.2162 85.0536 21.128C85.1447 21.0399 85.4249 21.3366 85.601 21.4165C85.7772 21.4965 85.196 20.6373 85.0826 20.4473C85.2291 20.697 85.3625 20.5397 85.6051 20.9434C85.621 21.0691 86.092 21.7633 86.1563 21.6658C86.168 21.5508 86.1533 21.4347 86.1134 21.3263L86.2626 21.1924C86.2705 21.2553 86.2626 21.1924 86.2483 21.0793C86.121 20.5729 85.9391 20.0818 85.7056 19.6148C85.5511 19.3022 85.2346 18.9206 85.3492 18.8167C85.5935 19.233 85.855 19.6854 86.1228 20.0859C86.3906 20.4864 86.3037 20.2036 86.4595 20.3244C86.6153 20.4452 86.8062 20.9449 86.9335 20.9416C87.0609 20.9383 87.1599 20.913 87.0732 20.7323C86.9865 20.5517 86.4954 20.1027 86.4243 19.8434C86.3532 19.5841 86.6381 19.8164 86.7735 19.9781C87.2898 20.5261 87.2257 20.7258 87.5004 20.474C87.7752 20.2221 87.1405 19.3441 86.5185 18.5668C86.1429 18.1016 85.7993 17.6115 85.49 17.0998C84.8473 16.0568 85.5583 17.6405 85.5599 17.6531C85.5615 17.6657 85.037 16.8504 84.9881 16.7672C84.9393 16.6839 85.2498 17.3218 85.2391 17.5403C85.2284 17.7588 84.9896 17.8912 84.9239 18.1806C84.8583 18.4699 84.9122 18.7953 84.6191 18.2957C84.5073 18.1182 84.1386 17.526 84.2203 17.4646C84.0476 17.6142 83.7599 17.6633 83.7148 18.0139C83.8824 18.5767 84.1481 19.1053 84.4997 19.5755C84.2539 19.1467 84.2639 19.5287 84.2231 19.6105C84.1823 19.6923 83.8293 19.0215 83.8293 19.0215C83.6513 18.7246 82.8134 17.5529 83.0801 18.3496C83.2887 18.7783 83.5582 19.1745 83.8803 19.526C84.0819 19.8072 83.9772 20.2931 83.8432 20.0417C83.8432 20.0417 83.646 19.4918 83.5422 19.4793C83.4385 19.4669 83.5931 19.8817 83.305 19.6243C83.1339 19.4512 82.9886 19.2545 82.8735 19.04C83.1162 19.4437 84.4805 21.6475 83.8213 21.2837C83.6561 21.1896 82.3888 18.6414 82.3512 18.7483C82.3136 18.8553 82.9158 20.0823 82.9775 20.3683C82.7503 20.0094 82.4813 19.6789 82.176 19.3837C81.7574 19.1044 82.7588 20.2554 82.6611 20.0889C82.806 20.3261 82.5719 20.394 82.6239 20.5024C82.835 20.859 82.6589 20.779 82.6039 20.8498C82.437 20.641 81.7392 19.5666 82.0931 19.7391C81.885 19.3054 81.2554 18.6696 81.4432 19.2463C81.7374 19.7915 81.9924 20.357 82.2063 20.9384L81.8864 20.3273C81.7193 20.0162 81.5381 19.6942 81.4643 19.7163C81.3904 19.7384 81.8541 20.8807 82.0684 21.2624C81.9412 21.3679 81.7959 20.8242 81.6356 20.87C81.576 20.8979 81.5102 20.9098 81.4446 20.9047C81.379 20.8995 81.3159 20.8774 81.2614 20.8406C81.006 20.7091 80.7821 20.5238 80.6051 20.2975C80.4382 20.0887 80.3136 19.8106 80.2132 19.9255C80.1127 20.0404 80.1822 20.2871 80.0091 20.1301C79.836 19.9731 79.8815 19.929 79.8627 19.9825C79.8439 20.036 79.8365 20.3819 79.8148 20.6146C79.7931 20.8472 79.8331 21.366 79.6442 21.1854C79.5293 20.974 79.4251 20.7569 79.3321 20.535C79.4385 20.9531 79.5757 21.3628 79.7424 21.7607C79.5079 21.522 79.6707 22.2041 79.5542 22.0911C79.2745 21.6906 79.0364 21.2627 78.8435 20.8139C78.9509 21.0082 79.025 21.219 79.0628 21.4377C79.0057 20.9851 78.3704 20.912 78.3201 20.9184C78.2699 20.9247 77.6878 20.6661 78.1698 21.3462C78.6143 22.2354 78.2175 21.7234 78.4796 22.5845C78.4938 22.6977 78.6534 23.2524 78.5399 23.0624C78.4265 22.8723 78.3947 22.6208 78.3128 22.4779C78.1016 22.1213 78.238 22.9983 77.9733 22.5208C77.7085 22.0432 77.6941 21.8278 77.5526 21.8202C77.4111 21.8125 77.2941 21.2907 77.1323 21.4261C76.9706 21.5615 77.1832 21.8285 76.8983 21.5962C77.081 22.2253 77.3207 22.8365 77.6144 23.422C77.8898 23.5789 78.4069 24.7399 77.9662 24.2846C77.281 23.3108 78.1069 24.8928 77.8522 24.8994C77.5975 24.9061 77.5562 24.5791 77.4442 24.2995C77.3323 24.0198 77.5556 24.0682 77.4593 23.8121C77.3631 23.556 76.4936 22.235 76.5407 22.2035C76.5878 22.172 76.9636 23.4276 76.6471 23.046C76.5356 22.8644 76.403 22.6968 76.2519 22.5466C76.4269 22.9205 76.1379 23.1614 76.0181 22.9211C75.8983 22.6807 75.6507 22.0349 75.4793 21.9927C75.6889 22.4389 75.3899 22.1956 75.538 22.4579C75.6273 22.6789 75.7354 22.8918 75.8612 23.0942C75.926 23.1125 75.9841 23.1497 76.0279 23.2009C76.1934 23.7888 76.312 24.389 76.3824 24.9957C76.2349 24.6263 76.0405 24.2773 75.8041 23.9573C75.6392 24.0676 75.4687 23.527 75.3791 23.5256C75.2895 23.5241 76.0151 25.4254 75.6269 25.4872C75.8091 25.3109 75.0855 23.8309 74.8475 23.3628C74.6095 22.8946 74.6163 23.2515 74.7976 23.6757C74.6179 23.264 73.9494 21.8155 74.2338 22.8527C74.7562 24.4602 74.0275 22.636 74.0124 23.1234C73.9974 23.6107 74.377 24.1887 74.5529 24.0643C74.7288 23.9399 75.0261 25.282 75.0799 25.5052C74.8359 25.2013 74.6083 24.8846 74.3979 24.5566C74.2041 24.2361 74.0763 23.8307 73.8809 23.4977C73.6855 23.1647 73.5077 23.0721 73.4336 22.8899L73.8862 23.9441L73.3962 23.099C73.1946 22.8179 73.2518 23.2706 73.2929 23.4953C73.2707 23.3193 72.6653 23.1786 72.6605 23.1409C72.8155 23.8622 73.3683 24.5972 73.5798 25.2604C73.6084 25.4867 73.511 25.5246 73.4465 25.5199C73.3821 25.5153 73.2873 25.1696 73.2117 25.0769C72.8685 24.6859 73.2346 25.7639 73.2411 25.9164C73.2476 26.0688 73.0403 26.2483 73.0025 26.1509C72.9924 25.7699 72.9445 25.3908 72.8595 25.0192C72.8356 24.8306 72.1739 23.7389 72.1817 23.6996C72.2072 23.9008 72.665 25.4015 72.7597 25.645C72.8543 25.8886 72.5099 25.7916 72.3758 25.438C72.2417 25.0845 71.7025 23.8495 71.5692 24.1091C71.4359 24.3687 71.5147 24.4865 71.362 24.3908C71.2094 24.2951 71.2373 24.0105 71.1964 23.9901C71.1555 23.9697 71.2608 25.1062 71.2421 25.2619C71.2235 25.4175 70.7951 24.8584 70.696 24.7815C70.5969 24.7046 70.2409 24.213 70.4761 24.9626C70.6435 25.478 70.9303 26.0294 70.723 26.2089C70.4927 25.5993 70.0189 23.9728 69.9207 24.6112C69.7197 24.7388 70.6276 26.5659 70.6187 27.0014C70.3159 26.4251 70.0606 25.825 69.8555 25.2071C70.0063 25.96 70.2026 26.7032 70.4432 27.4324C70.4987 27.7703 70.7787 29.0763 70.8847 28.3986Z" fill="white"/>
<path d="M89.3983 14.7665C89.3744 14.5779 89.012 13.9338 88.8832 14.0267C88.7544 14.1196 89.3088 14.8672 89.3983 14.7665Z" fill="white"/>
<path d="M92.7778 16.8434C92.8804 17.1499 92.7301 16.4662 92.7778 16.8434V16.8434Z" fill="white"/>
<path d="M86.0232 17.2752C86.1639 17.7125 86.3887 18.1181 86.685 18.4691C86.685 18.4691 86.8951 18.0082 87.0767 18.6368C87.1053 18.8632 86.9132 18.6575 87.0535 18.9591C87.2718 19.423 87.6085 19.8211 88.0297 20.1133C88.0964 20.1507 88.1723 20.1685 88.2487 20.1646C88.325 20.1607 88.3987 20.1353 88.4613 20.0914C88.5238 20.0474 88.5727 19.9867 88.6022 19.9161C88.6317 19.8456 88.6407 19.7682 88.6281 19.6928C88.6027 19.4916 87.952 18.3857 88.4336 18.7592C88.6035 18.891 88.799 19.3263 88.9879 19.5068C89.1768 19.6873 89.2771 19.4703 89.332 19.3994C89.387 19.3286 89.2733 18.9342 89.2447 18.7078C89.2161 18.4815 89.4459 18.6824 89.6219 18.6602C89.7979 18.6379 90.7131 18.8034 90.2122 18.0746C90.1351 17.9694 89.5491 17.0725 89.8355 17.3174C90.0851 17.5884 90.3175 17.8748 90.5315 18.1748C90.3977 18.0256 90.1971 17.3483 90.7655 18.0047C91.0332 18.303 90.7274 17.7029 90.721 17.6526C90.7147 17.6023 91.2323 17.9585 91.41 17.9488C91.5876 17.9392 91.1499 17.4068 91.3512 17.4836C91.5525 17.5603 91.8956 17.8491 92.0432 17.7027C92.1908 17.5564 91.9765 17.1746 91.9749 17.1621C91.9733 17.1495 92.3632 17.2024 92.4904 17.0969C92.6176 16.9914 92.9009 17.2111 92.7746 16.8183C92.7623 16.6754 92.7186 16.537 92.6467 16.4129C92.6467 16.4129 92.6722 16.6141 92.4677 16.5121C92.2406 16.3306 92.024 16.1361 91.8192 15.9298C91.3698 15.5463 90.9499 15.1296 90.5631 14.6832C90.3838 14.4153 90.1552 14.184 89.8893 14.0018C89.71 13.8967 90.1574 14.6067 90.2094 14.7151C90.4427 15.2477 89.8381 14.5065 89.8194 14.6622C89.8651 14.8208 89.9447 14.9677 90.0527 15.0926C89.8544 14.9388 89.5112 14.5478 89.3744 14.5779C89.2377 14.6079 90.1626 16.1646 90.2021 16.3768C90.2975 17.1312 89.7518 15.846 89.6953 15.9043C89.6388 15.9625 89.9303 16.4495 89.8943 16.569C89.8583 16.6885 89.6724 16.4309 89.5528 16.2927L88.7592 15.371C88.9092 15.7723 89.0296 16.1841 89.1193 16.603C88.6944 16.2734 88.5547 15.2691 88.3517 15.0775C88.1486 14.886 88.4224 16.2439 87.8286 15.3864L88.5799 16.4795C88.4307 16.6133 87.9719 15.611 87.9553 16.0858C87.9517 16.2203 87.975 16.3542 88.0238 16.4796C88.0725 16.6051 88.1458 16.7195 88.2392 16.8164C88.2599 16.9799 88.0461 17.0069 87.9896 17.0651C88.2047 16.8463 87.4817 15.7751 87.5974 16.4887C87.6228 16.6899 87.2842 16.2344 87.2087 16.244C87.1333 16.2535 87.1117 16.5884 86.9987 16.7048C86.8857 16.8213 86.1678 16.0944 86.5334 16.7636C86.6501 16.9788 87.0768 17.5254 87.1037 17.6369C87.1306 17.7485 86.7718 17.5383 86.9231 17.8258C86.9327 17.9013 87.1246 18.0048 87.1672 18.1399C87.2098 18.2751 86.2576 17.4117 86.13 17.2106C86.2336 17.1209 86.8301 17.5949 86.2583 16.709C86.0966 16.6984 85.9344 16.7189 85.7804 16.7693C85.7004 16.8433 85.688 17.0493 85.4486 16.6707C85.3857 16.6787 85.348 16.6834 85.4033 16.9192C85.5154 17.301 85.973 17.3838 86.0232 17.2752Z" fill="white"/>
<path d="M95.7467 10.3108C95.9419 10.5416 95.7387 10.2479 95.7467 10.3108V10.3108Z" fill="white"/>
<path d="M90.7364 13.8309C90.8496 13.8166 91.6377 14.1897 91.4446 14.3802C90.9961 14.0664 92.0847 15.8068 91.6801 15.3341C91.4408 15.0577 91.1494 14.673 91.0364 14.7895C90.9233 14.9059 90.9359 14.9043 91.0729 15.0787C91.6289 15.8388 91.9649 15.5664 92.3631 15.8866C92.7612 16.2068 93.0624 16.8713 93.2305 16.7862C93.293 16.7555 93.3481 16.7116 93.392 16.6575C93.4359 16.6035 93.4675 16.5405 93.4847 16.4731C93.5443 16.3378 93.4053 15.8443 93.6806 16.0012C93.9559 16.158 93.9308 16.1612 93.7778 15.759C93.7778 15.759 93.9079 15.4742 93.9915 15.7319C93.982 15.6565 93.7141 15.1538 93.6999 15.1428C93.6858 15.1318 94.1254 15.8811 94.2968 15.9233C94.4682 15.9656 94.2475 15.5335 94.238 15.4581C94.2285 15.3826 93.7997 14.517 93.7672 14.866C93.3687 14.3415 93.8959 14.7731 93.7195 14.4888C93.5431 14.2045 93.0047 13.6848 93.0157 13.6707C93.0267 13.6565 93.8486 14.6002 94.0925 14.8122C94.3022 14.9836 94.5307 15.1304 94.7738 15.2499C95.0462 15.2728 95.3199 15.2766 95.5928 15.2614C95.5928 15.2614 94.9726 14.5988 94.8781 14.4574C95.0115 14.3 95.4541 14.9723 95.605 14.9532C95.7559 14.9342 95.6548 14.5381 95.5129 14.2239C95.371 13.9097 95.4763 13.9347 95.7441 14.3352C96.0119 14.7357 96.0854 14.4071 96.1214 14.2876C96.1574 14.168 96.4198 14.1221 96.2717 13.8598C96.1236 13.5974 95.8023 13.1781 96.0714 13.3868C96.7844 13.9738 96.8078 13.8559 96.0222 12.997C96.1336 12.868 96.5086 13.5104 96.6628 13.6187C96.7303 13.5463 97.1693 13.7847 97.1801 13.6683C97.191 13.552 96.1159 12.5253 96.7246 12.7933C97.0455 12.9061 97.2709 13.3758 97.4389 13.1885C97.6068 13.0012 97.1127 12.6293 97.0557 12.2788C96.9051 11.9789 96.7195 11.6978 96.5028 11.4416C96.3325 11.4561 96.1615 11.4225 96.0094 11.3446C95.8572 11.2667 95.73 11.1477 95.6423 11.001C95.3918 10.6366 95.9783 10.7286 95.5533 10.2968C95.6192 10.2118 95.1862 9.71722 94.917 9.4063C95.0616 9.58166 95.1883 9.77109 95.2951 9.97175C95.1342 9.60881 94.5948 9.48533 94.5557 9.57971C94.542 9.94616 94.6231 10.31 94.7913 10.6358C94.938 10.9878 95.5001 11.696 95.0155 11.3996C94.5309 11.1031 94.5957 11.3121 94.9169 11.7314C94.6682 11.4818 94.3378 11.2935 94.2672 11.3408C94.3803 11.3265 94.1814 10.6618 94.0023 10.7611C93.8232 10.8603 93.6391 10.7175 93.5622 10.8167C93.4853 10.9158 94.7576 12.4925 94.2478 12.1992C93.7381 11.9059 92.9753 10.4181 92.9527 11.1492C92.9812 11.3755 93.3606 11.7492 93.6173 12.0617C93.8739 12.3742 93.816 12.522 94.1418 12.8769C94.0398 12.9792 93.4681 12.1955 93.3295 12.0086C93.138 11.6909 92.9079 11.3982 92.6445 11.137C92.454 10.9439 92.5724 11.2739 92.6795 11.4136C92.9708 11.7984 93.594 12.2818 93.5819 12.6921C93.601 12.843 93.3933 12.7159 93.1998 12.5999C93.2783 12.5133 92.8244 11.6508 92.6735 11.6699C92.5226 11.689 92.7196 12.0345 92.5904 11.8209C92.4612 11.6073 92.422 11.7017 92.3389 11.8527C92.2558 12.0037 92.0744 11.5795 91.9566 11.6583C91.8388 11.737 91.6326 12.734 91.8766 12.9459C91.779 12.8816 91.6592 12.6412 91.5475 12.5659C91.4358 12.4906 91.3338 12.5929 91.2835 12.5992C91.2332 12.6056 90.87 12.5621 90.8136 12.7225C90.7572 12.8829 91.2864 13.6337 91.0408 13.4092C90.7953 13.1847 90.3768 12.9054 90.6729 13.3279C90.3013 12.9149 90.2 13.5282 89.9813 13.4153C89.7626 13.3024 90.3758 14.5152 90.6842 14.7318C90.5392 14.4946 90.6736 13.8388 90.7364 13.8309Z" fill="white"/>
<path d="M97.3518 9.16253L97.4052 9.07914C97.2352 8.94731 97.1015 8.90032 97.0907 9.01667C97.0798 9.13302 97.2969 9.23334 97.3518 9.16253Z" fill="white"/>
<path d="M97.6588 8.25513L97.7137 8.18431C96.8383 7.22179 97.5175 8.45182 97.6588 8.25513Z" fill="white"/>
<path d="M98.1617 12.9439C98.3377 12.9216 98.4665 12.8287 98.4898 12.6086C98.5131 12.3885 98.3349 11.9894 98.6483 12.3458C98.5033 12.1087 98.5768 11.78 98.6948 11.9056C98.8129 12.0312 98.8132 12.2356 98.7361 12.2325C99.0396 12.3092 99.2027 11.982 99.3519 11.8481C99.5011 11.7143 99.9175 11.5723 99.4419 10.9425C99.3631 10.8247 99.7423 11.0962 99.8368 11.2375C99.4869 10.4897 100.429 11.0733 100.501 10.8342C100.045 10.109 99.5313 9.42202 98.9643 8.77998C98.9188 8.72429 98.8772 8.66551 98.8398 8.60408C98.6232 8.25951 98.3686 7.94029 98.0808 7.65241C98.0149 7.73738 98.3881 8.16292 98.4229 8.33738C98.4577 8.51183 98.0374 8.11779 97.8407 7.97657C97.644 7.83534 98.0948 8.67266 98.1326 8.77008C98.1705 8.86749 97.9976 8.91488 98.0009 9.04222C98.0042 9.16955 98.9473 10.264 98.5067 9.9109C98.3367 9.77907 97.5212 8.88564 97.5934 8.74878C96.9948 7.85349 96.6549 7.58983 96.58 8.0081C96.5911 8.09612 96.2617 8.62319 96.416 8.83365C96.7718 9.22305 96.7932 8.78599 96.919 8.7701C97.0447 8.75422 97.3594 8.91887 97.5659 9.33991C97.7724 9.76095 98.2422 9.63771 98.3967 9.95035C98.4126 10.0761 98.002 9.85969 97.9753 9.85029C97.9485 9.8409 97.9143 10.0752 97.8388 10.0847C97.7634 10.0942 97.4168 9.57592 97.2864 9.65626C97.1561 9.73661 97.3166 9.89518 97.1814 9.83562C97.0461 9.77606 96.0688 9.01803 96.0658 9.09507C96.0627 9.17211 96.4752 9.60545 96.5083 9.66515C96.6879 9.97461 96.5528 10.0172 96.7968 10.3313C97.0334 10.6667 97.2522 11.0143 97.4522 11.3727C97.4792 11.5865 97.0101 11.1092 97.0259 11.1328C97.0416 11.1563 97.6477 11.8079 97.7548 11.9477C97.8619 12.0875 98.0116 12.3624 98.1769 12.5587C97.857 12.1432 97.4962 11.7608 97.1001 11.4172C97.1001 11.4172 96.5197 11.1712 96.5366 10.9008C96.5536 10.6303 96.7773 10.9853 96.7219 10.7496C96.6391 10.496 96.527 10.2529 96.3877 10.0253C96.375 9.92471 95.5277 8.77979 95.4618 8.86477C95.6951 9.27622 95.9583 9.66996 96.2494 10.0428C96.0669 9.91254 95.2233 9.20151 95.17 9.2849C95.1166 9.36829 95.9022 10.2272 96.0203 10.3528C96.1383 10.4784 96.4865 11.0093 96.5039 11.1476C96.8314 11.515 97.8962 13.0668 98.1617 12.9439Z" fill="white"/>
<path d="M98.8776 8.59936L99.002 8.77527C99.002 8.77527 98.7122 8.40307 98.8776 8.59936Z" fill="white"/>
<path d="M99.6585 9.52265C99.9854 9.48135 100.011 9.68254 100.556 10.2525C100.91 10.6293 100.936 10.3322 100.996 10.1969C101.055 10.0616 101.592 9.55941 100.662 8.6677C100.794 8.49774 101.092 9.13718 101.348 9.24531C101.48 9.07536 100.672 8.2448 100.37 7.97637C100.068 7.70795 99.5002 7.46031 100.119 8.11033C99.9126 7.89366 98.172 6.45279 98.3564 6.79997C98.9609 7.43901 100.238 8.74686 99.922 9.08055C99.7461 8.89348 99.5805 8.69689 99.4261 8.49168C99.095 8.04801 98.7385 7.62384 98.3585 7.22129C97.7446 6.60899 98.9335 8.13233 99.3317 8.45251C99.058 8.30824 98.4443 7.90031 98.7718 8.26774C99.0318 8.5193 99.2498 8.81093 99.4175 9.13152C99.4175 9.13152 99.5705 9.53377 99.6585 9.52265Z" fill="white"/>
<path d="M99.2312 6.14012C98.7953 5.82471 99.0174 6.16713 99.2788 6.51735L99.403 6.48889C99.3541 6.36871 99.2966 6.25216 99.2312 6.14012Z" fill="white"/>
<path d="M9.21545 50.9195C8.78024 51.115 8.95483 51.1824 9.32094 51.0467L9.21545 50.9195Z" fill="white"/>
<path d="M9.21531 50.8174L9.12729 50.8285C8.54886 50.9016 8.29632 51.3295 9.35363 50.7999C9.35204 50.7873 9.30174 50.7937 9.21531 50.8174Z" fill="white"/>
<path d="M7.02831 39.8771C7.19364 40.0734 5.55129 40.4214 7.02831 39.8771V39.8771Z" fill="white"/>
<path d="M5.44056 37.5226C5.44056 37.5226 5.43262 37.4597 5.34301 37.4582C5.27996 37.4706 5.22074 37.4977 5.17023 37.5374C5.11972 37.5771 5.07936 37.6282 5.05248 37.6866C5.19313 37.6639 5.32624 37.6076 5.44056 37.5226Z" fill="white"/>
<path d="M12.7132 49.6855C13.007 49.4824 12.8074 49.5203 12.5213 49.582C12.2353 49.6437 12.5968 49.5725 12.6737 49.4734C12.7506 49.3742 11.2579 49.9972 11.6035 49.8002C12.0591 49.5633 12.5269 49.3507 13.005 49.1632C13.3679 49.0024 13.8658 48.6968 13.4321 48.8027C13.0883 48.9931 12.7348 49.1657 12.3732 49.3197C12.2709 49.2176 13.1508 48.9021 13.08 48.8471C13.0092 48.7922 12.7656 48.8869 12.4907 49.0366C12.4796 48.9485 13.2102 48.6646 13.1975 48.564C13.1848 48.4634 13.1975 48.564 13.3168 48.3957C13.436 48.2273 13.1045 48.333 12.7132 48.4719C12.322 48.6108 12.1774 48.6801 12.1176 48.611L13.186 48.1694C13.6715 47.9676 12.9974 48.1933 12.8717 48.2092C12.7459 48.225 12.7803 48.0929 12.7237 48.049C12.5626 48.0501 12.4022 48.0703 12.2458 48.1094C12.2363 48.0339 14.0478 47.2046 12.7357 47.6387C12.3476 47.8027 12.5848 47.6577 12.7246 47.5507C13.0073 47.3616 12.8029 47.3619 12.5766 47.3905C12.1239 47.4477 12.5607 47.2648 12.8591 46.9971C13.1574 46.7295 12.092 47.094 11.6254 47.3446C11.8438 47.2531 11.8972 47.1697 12.2617 47.0215C12.3859 46.973 12.5023 46.9067 12.6073 46.8245C12.835 46.6041 12.5692 46.5227 12.6256 46.3623C12.6819 46.2019 12.82 45.98 12.5731 45.9474C12.185 46.0514 11.8094 46.1974 11.4528 46.3827C11.6792 46.3541 11.5784 46.2646 11.7937 46.148L12.2414 45.9509C12.4049 45.9303 12.2271 45.8378 12.2239 45.8126C12.2208 45.7875 11.9725 45.8444 11.9599 45.846C11.9473 45.8476 12.0948 45.599 11.9233 45.5568C11.7519 45.5145 10.9271 45.8615 11.1563 45.6537C11.3856 45.4459 12.193 44.9606 11.8597 44.9516C11.5264 44.9426 10.6197 45.2488 11.6536 44.8371C11.5012 44.8419 11.3497 44.861 11.2009 44.8943C12.6087 44.3076 11.8933 44.2064 11.7437 44.0337C11.7239 43.9767 11.6919 43.9246 11.6501 43.8811C11.6083 43.8376 11.5575 43.8037 11.5013 43.7817C11.4452 43.7597 11.3849 43.75 11.3246 43.7535C11.2644 43.757 11.2056 43.7734 11.1523 43.8018C11.1523 43.8018 11.2402 43.6885 11.2574 43.6224C11.2746 43.5564 11.2336 43.4338 11.1486 43.3679C11.0636 43.302 11.2362 43.0502 11.093 42.9278C10.9498 42.8054 11.0739 42.7769 10.7157 42.9754C10.3576 43.174 10.2884 43.1316 10.2379 43.0358C10.1875 42.94 10.3085 42.8864 10.5614 42.765C10.8143 42.6436 10.3852 42.6851 10.536 42.5638C10.6867 42.4426 11.1675 42.203 10.6694 42.4064C10.4634 42.4769 10.2452 42.5044 10.0281 42.4874L10.7855 42.2129C10.9991 42.0837 10.2147 42.1445 10.1361 42.1289C10.0575 42.1133 10.2145 41.9401 10.2662 41.8442C10.318 41.7482 10.7247 41.4285 10.1354 41.6179L9.1643 41.9195C9.41406 41.773 9.8948 41.5334 10.0833 41.4074C10.2718 41.2813 9.15145 41.7167 9.01631 41.7593C8.88117 41.802 10.2245 41.2107 10.5104 41.0468C10.7963 40.8829 10.2069 40.9702 10.1628 40.9246C10.1187 40.8791 10.3385 40.5958 9.9975 40.7283L9.70828 40.7649C9.58906 40.7517 9.46841 40.767 9.3562 40.8094L8.64436 41.0398C8.64436 41.0398 10.137 40.4169 10.2972 40.2689C10.4573 40.1209 10.1758 40.016 10.1002 39.9233C10.0246 39.8307 10.3243 39.3712 9.41601 39.6648C10.0083 39.3984 9.50825 39.2827 9.52228 39.1915C9.53631 39.1003 9.8913 38.8766 9.66033 38.9696C9.34161 39.069 9.03285 39.1978 8.73804 39.3544C7.92719 39.6102 9.67727 38.6992 9.51063 38.6947C9.34398 38.6902 7.63917 39.3527 7.81825 39.2535C7.99733 39.1542 10.1297 38.4377 9.45689 38.4716C9.07965 38.5192 9.35125 38.2422 8.76501 38.3546C8.56382 38.38 8.06231 38.3539 8.27276 38.1996C8.8353 38.0008 9.27341 37.626 8.5883 37.8659C10.1156 37.3152 9.22099 37.2111 7.89327 37.7237L8.93495 37.2728C9.34342 37.0679 9.16102 37.0398 9.10278 36.9833C9.04454 36.9268 9.24533 36.5948 8.65142 36.8487C8.93573 36.6722 8.94817 36.5685 8.88676 36.4868C8.82534 36.4051 8.5393 36.4668 7.79132 36.7146C7.7802 36.6266 8.63658 36.3268 8.82347 36.1882C8.52963 36.2892 8.21845 36.3541 8.18218 36.2692C9.28687 35.9125 8.9189 35.8312 8.82757 35.715C8.24572 35.7843 7.67096 35.9039 7.10977 36.0725C6.70739 36.1234 6.22665 36.363 5.87933 36.4452C5.53201 36.5274 5.94525 36.3602 6.07881 36.305C6.59264 36.1251 7.16152 35.9766 7.66595 35.8234C7.94879 35.7512 8.22781 35.6648 8.50195 35.5645C8.50195 35.5645 8.30076 35.5899 8.31638 35.5113C8.40563 35.5148 8.49485 35.5035 8.58044 35.4779C8.58044 35.4779 8.56456 35.3522 8.36813 35.4153C8.17171 35.4785 6.40084 36.1238 6.44796 36.0923C6.49508 36.0608 8.06462 35.3387 6.9001 35.6263C6.54193 35.8249 5.87085 35.9736 5.44981 36.1801C5.02877 36.3865 6.36774 36.0641 5.90117 36.3147C5.54667 36.4185 5.20009 36.5476 4.86412 36.7012C4.46028 36.8416 4.95545 36.8174 4.98537 36.8519C5.52367 36.7905 6.05247 36.6636 6.56007 36.4741C6.83545 36.3706 7.1246 36.3082 7.41818 36.2891C7.41818 36.2891 7.59595 36.3816 7.35081 36.4637C7.09367 36.5153 6.83311 36.5483 6.57119 36.5622C6.20699 36.6415 5.84886 36.7465 5.49946 36.8764C6.18457 36.6366 5.96471 36.8176 6.37967 36.7652C6.39079 36.8532 6.20377 36.8896 6.01528 37.0156C5.8268 37.1417 6.03435 37.1665 6.04229 37.2294C6.05023 37.2923 5.74064 37.3697 5.52383 37.4738C5.30702 37.5778 5.2836 37.6957 5.21928 37.7933C5.15495 37.8908 4.87713 38.2198 5.25264 38.0574C5.95812 37.7766 6.22059 37.7307 6.12027 37.9477C6.01994 38.1648 5.176 38.3609 5.74966 38.2501C6.32332 38.1393 5.31776 38.5729 5.77666 38.4638L6.81848 38.115L7.67487 37.8152C7.2816 38.0083 6.87584 38.1748 6.46032 38.3136C6.0864 38.4886 6.18553 38.5655 5.70943 38.7406C5.70943 38.7406 5.42022 38.7771 5.42816 38.84C5.43611 38.9029 5.69223 38.8067 5.7551 38.7987C6.1228 38.6756 6.13233 38.7511 6.14186 38.8265C6.15139 38.9019 6.98394 38.4135 6.88825 38.5661C6.79255 38.7187 5.67211 39.0519 5.44749 39.1953C5.22287 39.3386 5.82645 39.2624 6.30255 39.0873C6.77866 38.9121 6.65464 39.0428 6.70493 39.0364C6.75523 39.0301 6.50242 39.2536 6.72082 39.1622C6.93922 39.0707 7.39799 38.8594 7.09806 39.1145C6.58754 39.4217 6.50706 39.1892 5.86127 39.4368C6.061 39.501 5.36173 39.7299 5.88986 39.6632C6.20422 39.6235 5.9264 39.9524 6.67901 39.6401C6.30032 39.7774 6.19986 39.8923 6.51105 39.8274C6.82223 39.7626 7.17735 39.641 7.52308 39.5463C8.19098 39.3725 7.17127 39.7951 6.96386 39.8724C6.75645 39.9497 5.74772 40.3582 5.95527 40.3831C6.16281 40.408 6.64223 40.3602 5.83297 40.6285C6.39709 40.4422 7.99669 39.8569 7.43283 40.2475C7.13912 40.4507 5.81127 40.8612 6.36772 40.8164C6.45574 40.8053 7.19763 40.7116 7.04674 40.7307C6.89585 40.7497 6.42768 40.9877 6.24859 41.087C6.06951 41.1863 6.50009 41.0552 6.54893 41.1385C6.59777 41.2217 7.14919 40.9349 7.36295 40.9079C7.57672 40.8809 7.4936 41.0319 7.9525 40.9228C8.05309 40.9101 8.82318 40.7362 8.24171 40.8863C7.92127 41.0801 7.7627 41.2406 7.83669 41.3207C7.91068 41.4008 8.21392 41.2731 8.37435 41.3294C8.53477 41.3858 6.96483 41.8013 6.70567 41.9746C6.44651 42.1479 7.43802 41.8054 7.56059 41.7644C7.68316 41.7234 8.05099 41.7024 7.73663 41.7422C7.88752 41.7231 8.81922 41.3116 8.80982 41.3383C8.22033 41.7516 7.60073 42.1203 6.95623 42.4412C6.96735 42.5292 7.82519 42.1398 7.90236 42.245C6.92182 42.5733 7.76431 42.4668 7.55068 42.596C7.33705 42.7252 6.97557 42.7964 6.97411 42.8861C6.97266 42.9757 7.09986 42.8702 7.18788 42.859C7.2759 42.8479 7.13467 43.0446 7.21647 43.0854L7.42587 43.3272C7.75445 43.1477 8.10918 43.021 8.47709 42.9517C8.79145 42.912 7.99173 43.2557 7.82522 43.3534C7.37426 43.5254 7.20789 43.7252 7.44839 43.7076C7.72348 43.6141 7.98217 43.4779 8.21502 43.3042C8.44123 43.1734 8.95547 43.3 8.35838 43.5288C7.13907 43.9894 9.35176 43.4033 9.37691 43.4001C9.05434 43.4928 8.74493 43.6264 8.4562 43.7975C8.4562 43.7975 8.97043 43.9241 8.48638 44.0364C8.48638 44.0364 9.03661 44.0435 8.63437 44.1965C8.44575 44.2204 7.93061 44.5921 8.1993 44.4942C8.62417 44.3175 9.0244 44.0866 9.39002 43.8072C9.5548 43.7674 9.7235 43.7461 9.893 43.7437C9.96845 43.7342 9.44218 44.0178 9.23635 44.1077L8.19162 44.6357L8.83292 44.5547C9.60922 44.3289 9.08441 44.5229 8.72783 44.7341C7.86073 45.2524 9.57535 44.8697 8.52586 45.36C8.40011 45.3759 9.52532 45.0804 9.142 45.2822C9.05398 45.2933 7.93063 45.8057 8.41309 45.6809C8.67715 45.6475 9.29925 45.3134 9.35908 45.3825C9.21782 45.4998 9.05584 45.5896 8.88152 45.6472C8.88152 45.6472 9.26947 45.381 8.8704 45.5592C8.47133 45.7374 8.47464 45.8647 8.50456 45.8993C8.53447 45.9338 8.52362 46.0502 8.80634 45.8611C9.08907 45.6721 9.67516 45.4575 9.61533 45.3884C9.83992 45.2846 10.0728 45.1997 10.3114 45.1344C10.5629 45.1027 10.1435 45.3217 10.0131 45.4021C9.56626 45.6825 9.09702 45.9255 8.61019 46.1286C8.79042 46.0464 8.98059 45.9881 9.1759 45.955C8.9777 46.0853 8.77032 46.2012 8.55539 46.3016C8.24752 46.4938 8.66566 46.4666 8.85745 46.4679C9.15026 46.4702 9.44205 46.4333 9.72508 46.3583C9.8634 46.3408 10.4856 46.1089 10.2532 46.2915C10.0087 46.4104 9.75741 46.5146 9.5006 46.6038C9.17221 46.7347 8.85322 46.8389 8.84065 46.8405C8.82807 46.8421 9.71596 46.5894 9.74429 46.6113C9.53739 46.6898 9.34023 46.7919 9.15673 46.9155C9.06871 46.9266 9.09254 47.1153 9.48062 46.9513C9.72437 47.0081 9.97854 47.0024 10.2195 46.9346C10.5843 46.9907 9.90697 47.1912 9.5222 47.4826C9.13742 47.7739 10.2138 47.3952 10.1035 47.2303C10.5798 47.2705 11.0581 47.1836 11.4898 46.9785C11.053 47.1614 10.7057 47.2436 10.272 47.4517L9.61062 47.778C10.3648 47.4783 10.4624 47.5426 10.4783 47.6684C10.4941 47.7941 9.90341 48.0732 9.56417 48.3204C10.0135 48.1359 10.0533 48.4503 10.1319 48.4659C10.2105 48.4815 10.883 48.2432 10.8738 48.3721C10.8645 48.5011 9.27962 49.5061 10.5287 48.9778C10.5367 49.0407 9.74183 49.5244 10.1708 49.3808C10.5998 49.2371 10.9188 49.133 11.4028 49.0207L9.93522 49.5383L11.5083 49.1479L10.2874 49.596C10.9373 49.4593 11.5665 49.2381 12.1589 48.938C11.6595 49.2249 11.1333 49.4625 10.5878 49.6475C10.0426 49.8824 10.6632 49.6379 10.423 49.8599C10.1827 50.0819 9.91391 50.0775 10.1057 50.0788C10.2975 50.0802 10.6495 49.9335 10.5835 50.0185C10.5388 50.1002 10.489 50.179 10.4345 50.2545C10.3544 50.3285 9.61466 50.8435 9.87554 50.785L10.7681 50.4678C11.4877 50.1981 11.6464 50.1397 11.5099 50.3741C11.3735 50.6085 11.8872 50.3265 12.0506 50.3058C11.8823 50.1866 12.4886 49.8289 12.7132 49.6855Z" fill="white"/>
<path d="M5.37341 35.4743C5.45189 35.3877 5.48789 35.2682 5.00875 35.5203C4.5296 35.7725 4.74972 35.7958 4.82054 35.8507L5.32165 35.5702L5.37341 35.4743Z" fill="white"/>
<path d="M8.32987 35.0113C8.7697 34.7514 7.95264 35.059 8.30286 34.7976C8.65309 34.5361 7.65508 34.7261 7.46633 34.6477C8.04144 34.4473 8.0822 34.3655 7.86367 34.3548C7.5211 34.3685 7.18035 34.4116 6.84514 34.4835C7.52416 34.3977 8.75406 33.6163 7.46882 34.162C7.03997 34.4078 7.05387 34.2144 7.45294 34.0362C7.85201 33.8581 8.27001 33.7286 8.19284 33.6234C8.53989 33.3368 6.96399 34.0086 6.74242 34.0749C5.99951 34.2634 5.26985 34.5007 4.55818 34.7852C4.48128 34.8843 5.14918 34.7105 4.83813 34.8776C4.52708 35.0446 4.04158 35.2465 4.3795 35.191C4.71742 35.1356 5.24528 34.8645 5.50458 34.7934L5.98703 34.6686C5.54706 34.8263 4.85415 35.1055 5.37751 35.0011C5.64157 34.9677 6.61589 34.6913 6.81073 34.6156L5.0932 35.1775C5.10432 35.2655 5.8192 34.958 5.97645 34.9893C6.1337 35.0205 5.92007 35.1497 5.90763 35.2535C5.89519 35.3572 6.12007 35.4183 5.72736 35.6467C5.62676 35.6594 5.15079 35.9367 5.18071 35.9713C5.49595 35.8241 5.8222 35.7017 6.15648 35.6053C6.16919 35.7059 5.5815 35.9079 5.18865 36.0342C5.44383 35.9502 5.7128 35.9163 5.98084 35.9341C6.16946 35.9103 6.24491 35.9007 6.81062 35.727C7.33316 35.5243 7.84082 35.2852 8.32987 35.0113Z" fill="white"/>
<path d="M8.17245 33.6644C8.37972 33.4849 8.18357 33.7524 8.17245 33.6644V33.6644Z" fill="white"/>
<path d="M7.74002 33.5784C8.31499 33.2758 6.83161 33.7699 6.50005 33.8756C6.66351 33.855 8.30705 33.213 7.95496 33.2575C7.60288 33.3019 7.07502 33.573 6.95073 33.4993C6.82644 33.4256 6.77297 33.4068 6.83888 33.3218C6.9911 33.2624 7.14699 33.2128 7.30559 33.1734C7.8304 32.9794 7.6668 32.8978 7.15138 33.0651C7.53629 32.876 6.42206 33.1573 6.81637 32.9414C7.11494 32.8251 7.42701 32.7471 7.74515 32.7091C7.65382 32.5929 6.7392 32.8362 6.18447 32.9957C6.65899 32.808 7.03608 32.6581 7.57665 32.4876C6.9596 32.658 6.3274 32.7679 5.68903 32.8155C6.15733 32.6797 7.27142 32.2962 6.89722 32.2669C6.52303 32.2375 6.04733 32.7192 5.67473 32.7024C5.30213 32.6856 6.82337 32.289 6.6881 32.2294C6.55282 32.1699 5.90544 32.4049 6.32648 32.1985L6.75388 32.0423L6.08439 32.2035C6.51355 32.0948 6.92252 31.9181 7.29576 31.68C7.4497 31.5839 7.15744 31.6974 6.8808 31.7324C7.23434 31.5983 7.47313 31.4659 7.46359 31.3905C7.45406 31.315 7.07378 31.4397 6.86002 31.4667C6.64625 31.4937 6.44506 31.5192 6.40562 31.4092C6.66509 31.2913 6.93637 31.2013 7.21487 31.1409C6.98997 31.1392 6.76586 31.1675 6.54843 31.2251L6.29694 31.2568C5.33202 31.5065 4.91415 31.7381 3.95559 32.0381C2.99702 32.338 3.55507 32.3059 3.55838 32.4332C3.56169 32.5605 3.16593 32.866 3.67989 32.7883C4.11062 32.7141 4.52429 32.5622 4.9008 32.3402C5.44768 32.2766 5.98997 32.1782 6.52436 32.0457L5.48717 32.33C5.31113 32.3523 5.03939 32.5271 5.03939 32.5271C4.76275 32.5621 3.79466 32.7866 3.80578 32.8746C3.8169 32.9626 3.18103 33.5923 4.37216 33.2119C4.24642 33.2278 4.39758 33.4131 4.40075 33.4382C4.40393 33.4634 3.94835 33.6998 3.88402 33.7973C3.8197 33.8949 3.83717 34.0332 4.1547 34.0186C4.80394 34.0005 3.79971 34.2423 3.89105 34.3585C4.31594 34.1747 4.75335 34.0212 5.19997 33.8993C5.43889 33.8692 6.35986 33.6762 5.96397 33.8795C5.3142 34.1221 4.64637 34.3133 3.96663 34.4512C3.97458 34.5141 3.93567 34.8128 4.40555 34.6896C4.87544 34.5663 5.93446 34.1515 6.2017 34.1433C6.75208 34.0799 7.27942 33.8863 7.74002 33.5784Z" fill="white"/>
<path d="M4.16896 31.7045C3.9049 31.7379 3.57492 31.8562 3.62217 31.9269C3.66943 31.9976 4.21622 31.7752 4.16896 31.7045Z" fill="white"/>
<path d="M6.27114 30.749C5.84506 30.7135 5.31098 31.0364 6.27114 30.749V30.749Z" fill="white"/>
<path d="M4.76869 31.0921C5.45221 30.8397 6.26928 30.5321 7.00786 30.311C6.64341 30.2642 6.27333 30.2893 5.91851 30.3848C5.32288 30.5239 5.93916 30.5482 5.84016 30.5735C5.48807 30.618 5.20349 30.5901 5.55385 30.4308C5.94978 30.3187 6.33772 30.18 6.71506 30.0159C7.44066 29.4898 5.58985 30.3113 5.47033 30.2753C5.3508 30.2393 6.71307 29.6967 6.86396 29.6777C7.01486 29.6586 7.0633 29.4353 6.22571 29.6817C6.213 29.5811 6.71744 29.4279 6.87759 29.2799C7.03775 29.1319 6.93702 29.0425 6.321 29.2225C7.39592 28.9334 6.0973 28.8675 6.41298 28.636L6.48842 28.6264C6.12377 28.6725 5.14799 29.0385 4.51319 29.272C3.87838 29.5055 4.12987 29.4738 3.90988 29.5526C3.6899 29.6315 2.81618 29.8952 3.26727 29.8255C3.71836 29.7557 3.75912 29.6739 3.79539 29.7587C3.81703 29.7997 3.84773 29.8351 3.88514 29.8624C4.26471 29.8355 4.64252 29.7878 5.01684 29.7194C5.84676 29.6146 3.53491 30.1238 3.57105 30.1065C3.42015 30.1255 4.41353 30 4.03961 30.175C3.66569 30.35 2.96166 30.5412 3.152 30.6321C3.45009 30.6713 3.75324 30.633 4.03221 30.5209C4.10765 30.5113 3.70356 30.4474 3.86543 30.4142C4.35584 30.3522 4.4661 30.5172 4.31534 30.6384C4.19852 30.6798 4.07413 30.6955 3.95068 30.6845C3.69464 30.6998 3.4429 30.7575 3.20574 30.8552C3.55782 30.8108 4.03565 30.7504 4.46318 30.6964C4.26199 30.7218 2.99701 31.1243 3.2391 31.1193C3.54256 31.0628 3.84906 31.0241 4.15704 31.0033C4.15704 31.0033 3.89153 31.1263 3.83342 31.172C3.51615 31.3909 5.35784 30.8005 3.85566 31.348C3.24918 31.6035 3.06228 31.7421 3.72873 31.6579C4.39517 31.5737 2.87249 32.0599 3.52159 31.9396C4.1707 31.8192 5.33362 31.519 6.11152 31.3057C7.76921 30.6747 5.24652 31.0318 4.76869 31.0921Z" fill="white"/>
<path d="M6.43017 28.57C6.40474 28.5632 6.37769 28.5666 6.35473 28.5795C6.35473 28.5795 6.65175 28.5036 6.43017 28.57Z" fill="white"/>
<path d="M2.93907 26.5199C2.63288 26.4582 2.31495 26.4984 2.03371 26.6342C2.0889 26.7678 3.01624 26.6251 2.93907 26.5199Z" fill="white"/>
<path d="M2.12686 25.7538C1.93534 25.9568 2.54051 25.8931 2.42865 25.7156C2.32689 25.7162 2.22557 25.729 2.12686 25.7538Z" fill="white"/>
<path d="M4.10909 29.2081C4.28513 29.1859 4.66236 29.1382 4.76441 29.0359C5.15091 28.8593 4.16084 29.1122 5.20902 28.8137C5.57367 28.7676 6.3419 28.3767 5.87664 28.4355C5.41139 28.4943 5.09703 28.534 4.75447 28.6539C5.1795 28.5724 5.59171 28.4344 5.98014 28.2436C5.9722 28.1807 5.40622 28.15 6.12282 27.9573C5.78192 28.0662 5.42387 28.1114 5.06658 28.0907C5.48658 27.9945 5.89727 27.8614 6.29384 27.6929L5.35075 27.8121C4.53487 27.8257 6.12388 27.5611 6.17722 27.4777C6.23056 27.3943 5.72282 27.4201 5.63162 27.4061C5.33219 27.4425 5.0366 27.5055 4.74837 27.5944C4.73725 27.5063 5.64883 27.3401 5.80912 27.2943C5.96941 27.2485 5.8655 27.1338 6.09806 27.0534C6.33062 26.9729 6.41547 26.9366 6.08377 26.9402C5.75206 26.9438 5.88244 26.8634 6.06152 26.7641C6.24061 26.6649 6.85344 26.4597 6.45423 26.5357C6.27819 26.5579 5.61347 26.7569 5.53485 26.7413C5.45622 26.7256 5.82075 26.5774 6.06906 26.5205C7.01042 26.2866 5.71684 26.4628 5.57072 26.5195C5.57072 26.5195 6.25899 26.3048 6.19758 26.2232C6.13616 26.1415 5.80777 26.2724 5.55628 26.3042C5.30479 26.336 6.25224 25.948 6.2758 25.9322C6.29936 25.9165 5.87341 25.9831 5.73814 25.9235C5.38271 25.8527 5.01885 25.8341 4.65806 25.8683C4.43172 25.8969 3.96647 25.9557 4.24138 25.806C4.51629 25.6563 5.35865 25.4477 5.32714 25.4006C5.29564 25.3534 5.70106 25.2256 5.95559 25.1168C6.61078 24.8424 4.68067 25.1373 5.90952 24.7521C5.28874 24.8944 4.74963 24.9753 4.93335 24.8115C5.11707 24.6478 6.03486 24.4297 6.00177 24.37C5.40082 24.508 4.80843 24.681 4.2276 24.8879C3.59351 25.0183 2.95029 25.0996 2.3037 25.131C1.72528 25.2041 2.01331 25.4615 2.04322 25.4961C2.07313 25.5306 3.03951 25.1913 3.3822 25.1736C3.19358 25.1974 2.90436 25.234 2.6403 25.2673C3.01753 25.2197 3.42456 25.1044 3.70914 25.1323C3.99372 25.1602 3.59927 25.2739 3.26453 25.3545C2.92979 25.4352 2.1237 25.7286 3.06043 25.5592C3.37479 25.5195 4.30357 25.2871 4.2047 25.4146C3.66684 25.6146 3.11476 25.774 2.55309 25.8916C2.10041 25.9487 2.35058 26.1088 2.36951 26.1575C2.38844 26.2062 2.09024 26.576 3.4402 26.2394C3.01757 26.4333 3.71379 26.2815 3.77521 26.3631C3.83663 26.4448 3.13405 26.5463 3.16714 26.606C3.20023 26.6657 4.85819 26.2391 4.22193 26.5622C3.88823 26.7283 3.53432 26.8504 3.16913 26.9252C2.86734 26.9633 3.44087 26.7503 3.51155 26.703C3.58223 26.6558 3.37627 26.6435 3.07144 26.7586C2.76661 26.8738 2.73194 26.8015 2.72399 26.7387C2.14094 26.8762 1.9825 27.139 2.55298 27.003C2.5641 27.091 2.16185 27.244 2.31129 27.3146C2.67255 27.3926 3.04962 27.345 3.38012 27.1796C3.63299 27.0678 3.89543 26.9791 4.16424 26.9144C4.36543 26.889 5.32902 26.8311 5.03041 26.8944C4.7318 26.9577 4.15352 27.1329 3.69939 27.2797C3.24525 27.4265 2.97656 27.5244 2.97511 27.614C2.97365 27.7036 2.44566 27.8725 2.40489 27.9543C2.36412 28.0361 6.70944 26.9378 3.13421 27.8622C2.50244 28.0186 2.32812 28.1556 2.73527 28.1425C2.93646 28.1171 4.27399 27.8842 4.27399 27.8842C4.18365 27.9077 4.09067 27.9194 3.99735 27.9192L3.36558 28.0757C3.05787 28.1258 2.7599 28.2238 2.48246 28.3661C3.16042 28.1395 3.85974 27.9826 4.56955 27.898C4.70959 27.9953 3.21337 28.2865 2.94944 28.4221C2.68551 28.5576 2.96215 28.5227 2.96691 28.5604C2.97168 28.5981 2.64951 28.6771 2.58201 28.7495C2.5145 28.8219 3.70921 28.7732 3.70921 28.7732C3.43026 28.8162 3.15678 28.8893 2.89359 28.9912C2.80557 29.0023 2.90313 29.0667 3.09333 29.0554C3.50816 28.9725 3.92838 28.9195 4.35078 28.8965C4.24873 28.9989 3.2838 29.2485 3.01828 29.3715C2.75277 29.4945 3.24635 29.4577 3.60928 29.2968C3.97222 29.136 3.71624 29.3344 4.10909 29.2081Z" fill="white"/>
<path d="M3.97768 24.9323C4.45551 24.8719 5.12487 24.6085 4.81673 24.5963L4.7287 24.6075L3.32208 24.9001C3.54245 24.8595 3.76497 24.8313 3.98854 24.8159C3.69297 24.8022 2.77067 25.187 3.97768 24.9323Z" fill="white"/>
<path d="M2.39422 24.6342C2.21818 24.6564 1.50144 24.747 1.51097 24.8224C1.5205 24.8979 2.40534 24.7222 2.39422 24.6342Z" fill="white"/>
<path d="M6.33002 24.1369C6.33002 24.1369 5.82704 24.2004 5.79395 24.1407C5.76086 24.081 6.00441 23.9864 5.92102 23.9331C5.75509 23.8675 5.5772 23.8378 5.39898 23.8457C5.28581 23.86 4.82055 23.9188 4.82055 23.9188C5.04163 23.8627 5.25892 23.7925 5.47111 23.7089C5.16933 23.747 4.35199 23.8502 3.98733 23.8963L1.91745 24.2983C1.92857 24.3864 3.42638 24.1077 3.31017 24.199C3.19396 24.2904 1.66292 24.4071 1.74644 24.5627C2.988 24.2781 2.22427 24.5023 2.78707 24.5079C3.34988 24.5134 4.27059 24.116 4.23314 24.3252C4.19568 24.5343 3.48662 24.4833 3.16431 24.4602C2.64761 24.566 2.14082 24.7155 1.64942 24.9071C2.33738 24.8637 3.02193 24.7772 3.69905 24.6481C4.3343 24.4768 4.99018 24.3939 5.6481 24.4019C5.57728 24.347 5.68727 24.3075 6.33002 24.1369Z" fill="white"/>
<path d="M5.95648 23.4047C5.95648 23.4047 5.95648 23.4047 5.54152 23.4572C5.12657 23.5096 4.57329 23.5795 4.27296 23.528C4.80614 23.4571 5.34318 23.4191 5.88103 23.4143C6.00677 23.3984 5.88103 23.4143 5.78043 23.427C5.67983 23.4397 5.60903 23.3848 5.63418 23.3816C5.65933 23.3784 6.12947 23.4595 5.27083 23.2358C5.17024 23.2486 2.75315 22.6213 3.29399 22.6552L4.23602 22.9322L4.94522 23.0854C5.50975 23.2057 5.5758 23.2229 5.52854 23.1522C5.48129 23.0815 5.59141 23.1442 5.27519 22.967C4.95898 22.7898 4.96692 22.8527 4.98108 22.8637C4.99524 22.8746 4.10642 22.412 4.00887 22.3477L2.43889 21.5496C2.0189 21.3599 2.36359 21.6613 2.11196 21.5909C1.86034 21.5205 1.52215 21.3716 1.61044 21.5648C1.69873 21.7581 1.87981 21.9779 2.70708 22.2567C2.96029 22.3397 3.65387 22.5714 3.37856 22.4146C3.10324 22.2577 4.00609 22.6291 4.05957 22.6479C4.11304 22.6667 5.12603 23.1008 4.88698 23.0288C4.64793 22.9568 4.21695 22.7813 4.09583 22.7328C3.71308 22.5869 3.31845 22.4743 2.91634 22.3963C2.91634 22.3963 2.09901 22.4996 1.85029 22.25C1.85029 22.25 2.11436 22.2166 1.90827 22.1021C1.70218 21.9876 1.20437 22.3954 2.30497 22.5119C2.74057 22.6229 2.54878 22.6216 2.72813 22.7267C2.90748 22.8318 2.90114 22.7815 3.28168 22.8612C2.9033 22.8331 2.52331 22.8341 2.14508 22.8642C1.73013 22.9167 1.93317 23.1082 1.98837 23.2417C1.48566 23.5097 3.17063 23.2968 3.76653 23.362C3.91742 23.343 3.90181 23.4216 3.88924 23.4232C3.69469 23.4646 3.49699 23.4896 3.29824 23.4978C2.81088 23.4828 2.15542 23.5528 2.56892 23.59C3.07166 23.6438 3.57765 23.661 4.08288 23.6414C4.09242 23.7169 4.73212 23.6233 4.90036 23.6404C5.06859 23.6574 3.55489 23.8103 3.41657 23.8278C2.99215 23.8466 2.57204 23.9211 2.16707 24.0495C1.88753 24.2637 2.62942 24.17 3.08673 24.0483C3.33822 24.0166 3.60215 23.881 3.86463 23.8351C4.1271 23.7891 4.07839 23.8081 3.97779 23.8208C4.65809 23.8117 5.33013 23.6704 5.95648 23.4047Z" fill="white"/>
<path d="M4.65334 22.2919C4.72879 22.2824 5.22608 22.6795 5.43217 22.794C5.63826 22.9085 5.28737 22.659 5.05917 22.4706C4.83097 22.2823 2.83543 20.6437 3.1363 21.1039C2.79957 20.8654 2.56978 20.6644 2.69393 20.636C2.18724 20.2656 2.56079 20.9977 2.64895 21.0888C3.19602 21.6743 3.85959 22.1388 4.59696 22.4524C6.37475 23.4797 4.41443 22.3221 4.65334 22.2919Z" fill="white"/>
<path d="M5.88803 22.762C6.00941 23.0149 6.02516 23.0385 6.02357 23.0259C5.93211 22.8075 5.86751 22.7007 5.88803 22.762Z" fill="white"/>
<path d="M6.52849 20.8541L6.47448 20.4266C6.43159 20.0871 6.39505 19.7979 6.27566 19.864C6.3297 20.2876 6.43367 20.7033 6.58541 21.1024C6.57341 21.0182 6.55438 20.9351 6.52849 20.8541Z" fill="white"/>
<path d="M6.03713 18.9872C6.03713 18.9872 6.2182 19.207 6.28888 19.1598C6.19992 18.4556 6.08425 18.9557 6.03713 18.9872Z" fill="white"/>
<path d="M2.94728 20.8211C2.93139 20.6954 3.91964 21.4392 3.86603 21.3182C3.81242 21.1973 3.54636 20.9115 3.48957 20.7654C3.43278 20.6192 3.45304 20.4762 3.5539 20.6678C3.38541 20.4349 3.19961 20.2149 2.99809 20.0098L4.17548 21.1386C3.8999 20.7774 3.284 19.846 3.6112 20.009C3.99173 20.3352 4.30973 20.728 4.54968 21.168C4.55921 21.2434 4.72613 21.4523 4.7481 21.424C4.77007 21.3956 4.73539 21.3234 4.72427 21.2354C4.57455 20.9284 4.40886 20.6295 4.22789 20.3399C3.92079 19.9316 3.66386 19.4147 3.87459 19.4648C4.08531 19.5148 4.51723 20.4056 4.71247 20.6364C4.90771 20.8673 4.68388 20.4101 4.65528 20.1837C4.48432 19.9501 4.32957 19.705 4.19213 19.4502C3.90515 18.7966 4.11428 18.834 4.40589 19.4232C4.30185 19.2064 4.20866 18.8732 4.34552 18.9454C4.53845 19.2104 4.69532 19.4999 4.81199 19.8062C5.18567 20.6405 5.52481 21.5047 5.86394 22.3689C5.60846 21.7624 5.46602 21.0394 5.26098 20.5288C5.22921 20.2773 4.97891 20.0151 4.87314 19.6835C4.76738 19.352 5.07142 19.8373 5.10451 19.897C5.30783 20.2929 5.69144 21.5092 5.69422 21.2278C5.56473 20.7323 5.37566 20.2543 5.13112 19.8042C4.60324 18.8617 5.05327 19.1881 5.16009 19.1235C5.26691 19.0589 5.19397 18.5827 5.32951 18.8466C5.46506 19.1105 5.51761 19.6277 5.62483 19.8696C5.76175 20.3889 5.94118 20.8961 6.16133 21.386C6.16133 21.386 5.70173 19.7705 5.72847 19.7799C5.7552 19.7893 5.87672 20.1444 5.84813 19.9181C5.81953 19.6917 5.65076 19.2659 5.59384 19.0176C5.38191 18.0479 5.74473 18.9985 5.88531 19.5046C5.82812 19.0519 5.58813 18.2646 5.82177 19.0016C6.05541 19.7386 6.51619 21.0601 6.68378 21.7799L6.62182 21.2895C6.59413 20.8675 6.54108 20.4476 6.46296 20.032C6.07803 19.0075 6.75893 20.3523 6.75893 20.3523C6.75893 20.3523 6.29828 19.133 6.55031 19.51C6.64323 19.6388 6.48835 19.0196 6.59834 18.9801C6.70834 18.9407 6.85223 19.574 6.89935 19.5425C6.94647 19.511 6.30407 17.5609 6.62718 18.1972C6.82573 18.5554 7.17639 19.8141 7.39256 20.4128C7.35284 20.0984 7.31312 19.7841 7.27341 19.4697C7.26138 19.1482 7.22098 18.8284 7.15267 18.5141C7.15267 18.5141 7.08994 18.6242 7.02693 18.5299C6.82838 18.1718 7.1978 18.1634 7.1978 18.1634C7.1978 18.1634 7.35623 17.9007 7.49059 18.4586C7.91273 20.2832 7.58866 17.718 7.83129 18.1217C8.03473 18.6609 8.2107 19.21 8.35853 19.767C8.60312 20.4407 8.77685 21.138 8.8769 21.8477C8.92456 22.2249 8.79841 21.9343 8.62156 21.3434C8.44471 20.7526 8.19772 20.6177 8.17866 20.4668C8.23267 20.8943 8.43163 21.559 8.56281 22.0918C8.52627 21.8026 7.76553 19.5225 7.90479 20.2203C8.06706 20.7966 8.19642 21.3817 8.29225 21.9727C8.33038 22.2745 8.1754 22.7667 7.95262 21.9134C8.1705 22.6268 7.92006 22.2624 7.78914 21.934C7.77484 21.8209 7.3555 20.9285 7.5072 21.5225C7.6589 22.1166 7.77433 22.6258 7.61046 22.3399C7.44659 22.054 7.62477 22.453 7.44409 22.5397C7.10205 21.8548 6.94601 22.7432 6.77315 22.7906C6.60028 22.838 6.60967 22.8112 6.50087 22.5567C6.39206 22.3022 6.32534 21.774 6.32534 21.774C6.34612 22.0693 6.38324 22.3631 6.43654 22.6543C6.47149 22.9309 6.2605 22.6765 6.12972 22.4503C5.85809 21.5137 6.12972 22.4503 6.16149 22.7018C6.19327 22.9533 6.18215 22.8652 6.17738 22.8275L6.01641 22.3624C6.06924 22.5663 6.13301 22.7672 6.20743 22.9643C6.00369 22.5533 5.77424 22.1556 5.52044 21.7735C5.13301 21.2348 5.90814 22.5166 6.07678 22.8402C6.42345 23.4607 5.87519 22.5591 6.09743 23.0037C5.51144 22.1068 6.1165 23.1546 5.92431 22.8467C5.64667 22.439 5.34151 22.0507 5.01097 21.6846C4.86616 21.5496 4.71037 21.4287 4.55457 21.3079C4.90878 21.6847 5.29292 22.0961 5.60623 22.4525L6.04078 22.9598L5.84713 22.7415C5.73687 22.5766 5.4646 22.3427 5.45679 22.382C5.79684 22.7478 5.44898 22.4213 5.45679 22.382C5.5828 22.5705 5.45679 22.382 6.01246 22.9378C5.83615 22.7557 5.8237 22.8594 4.93288 22.0777C4.56731 21.8128 4.21589 21.5288 3.88005 21.227L3.38117 20.8174C3.38117 20.8174 3.21161 20.9921 2.94728 20.8211ZM5.18198 21.4203C5.31739 21.582 5.13274 21.0305 4.92955 20.7367C4.86223 20.5859 4.77988 20.4422 4.68374 20.3079C4.80378 20.6976 4.9711 21.0712 5.18198 21.4203Z" fill="white"/>
<path d="M9.27091 20.2139C9.33038 20.4739 9.42652 20.7241 9.55644 20.9571C9.58939 20.9146 9.12874 19.6953 9.27091 20.2139Z" fill="white"/>
<path d="M9.23003 21.4071C9.20144 21.1807 9.15696 20.8287 9.12677 20.5897C9.06799 20.1245 9.22764 20.7814 9.34757 21.1239C9.4675 21.4665 9.75302 22.2097 9.68312 21.6564C9.61322 21.1032 9.35788 20.5989 9.22683 20.1683C8.75878 19.2948 9.14581 19.527 9.15058 19.5647C9.12198 19.3384 8.95335 19.0148 8.84599 18.6706L8.81899 18.4569C8.76714 18.1492 8.6862 17.8472 8.57727 17.5548C8.40242 17.2831 8.52883 17.7781 8.65035 18.1332C8.66147 18.2212 8.99783 19.3668 8.7552 18.9631C8.51257 18.5594 8.4931 18.102 8.34022 17.8019C8.18733 17.5019 8.21447 17.8178 8.20203 17.9216C8.18959 18.0254 8.04982 18.1324 7.97609 18.2567C8.05841 18.9663 8.23648 19.6615 8.50546 20.3233C8.77205 21.0178 9.28445 22.1412 9.23003 21.4071Z" fill="white"/>
<path d="M8.79225 18.4475L8.81926 18.6613C8.91549 18.9174 8.70356 17.9477 8.79225 18.4475Z" fill="white"/>
<path d="M10.3671 18.1718C10.3258 17.8449 9.91716 16.734 9.97739 17.1096C10.0376 17.4853 10.298 18.2317 10.3671 18.1718Z" fill="white"/>
<path d="M10.8219 18.536C10.7663 18.0959 10.2868 16.93 10.2667 17.1753C10.2466 17.4206 10.9249 19.149 10.8219 18.536Z" fill="white"/>
<path d="M15.3349 15.8324C15.1768 15.188 14.7988 14.6226 15.0482 15.3831C15.1463 15.8562 15.4 16.3479 15.3349 15.8324Z" fill="white"/>
<path d="M18.8093 18.3572C18.7962 17.9501 18.3994 17.4381 18.8093 18.3572V18.3572Z" fill="white"/>
<path d="M9.88431 21.631C9.86207 21.455 9.85636 20.7019 10.0445 21.483C10.1914 22.0393 10.3137 21.7939 10.3608 21.7624C10.4079 21.7309 10.686 21.6064 10.7296 21.2432C10.7731 20.88 11.1009 21.4518 11.2374 21.3195C11.374 21.1873 10.8644 19.7825 11.2744 20.7016C11.4764 21.2893 11.554 20.5897 11.5998 20.75C11.7578 21.2921 12.0071 20.839 12.0888 20.7776C12.1705 20.7162 12.3767 20.9329 12.5023 20.8148C12.3825 20.6617 12.295 20.4859 12.2454 20.2979C12.2152 20.059 12.371 20.1799 12.4071 20.1625C12.4432 20.1452 12.369 19.8607 12.3626 19.8104C12.3563 19.7601 12.5563 20.0287 12.6557 20.31L12.563 20.3855C12.8451 20.8992 12.9048 20.8661 12.9469 20.5925C12.989 20.319 13.1752 20.8831 13.2427 20.8107C13.3102 20.7383 13.1522 20.0939 13.1737 19.7591C13.1953 19.4242 13.4888 20.2303 13.6148 20.4187C13.9566 20.8993 13.8123 19.9594 14.0577 20.0817C14.3031 20.204 14.2025 20.2167 14.0068 19.6794C13.8112 19.142 14.2301 19.7278 14.2788 19.7089C14.3276 19.6899 14.3256 19.3708 14.704 20.2428C14.8286 20.5209 14.7145 19.8199 14.6357 19.7021C14.4714 19.1097 14.3171 18.8992 14.4317 18.7953C14.6379 19.012 14.4015 18.5564 14.2674 18.2028C14.0042 17.5945 13.7803 16.9699 13.5968 16.333C13.8885 16.8265 14.1299 17.3481 14.3173 17.8899C14.4731 18.2631 14.5947 18.6497 14.6804 19.0449C14.8493 19.5729 15.2593 20.492 14.9845 19.5303C15.1404 19.7533 15.2414 20.0472 15.3231 19.9857C15.2738 19.5959 15.3587 19.5597 15.4309 19.525C15.5032 19.4903 15.7551 19.7651 15.7687 19.3673C15.7749 19.1804 15.7513 18.9936 15.6988 18.8141C15.8206 19.1744 16.0058 19.5101 16.2456 19.8053C16.2456 19.8053 16.1241 19.4502 15.9743 19.0731C15.8244 18.696 15.6572 18.2828 15.621 18.1979C15.8796 18.8295 16.173 19.5334 16.3207 19.4892C16.4684 19.445 16.635 19.4495 16.4441 18.9498C16.6002 19.2751 16.745 19.4101 16.8378 19.4367C16.9306 19.4633 16.8172 19.2732 16.7695 18.896C16.8763 19.0593 16.9942 19.2152 17.1223 19.3624C17.0683 19.0126 16.982 18.6685 16.8647 18.3346C16.8488 18.2089 16.694 17.6919 16.6375 17.7501C16.581 17.8083 16.4564 17.5303 16.4219 17.5602C16.3873 17.5901 16.5884 17.4625 16.8121 17.8175C17.0358 18.1725 17.1165 18.6094 17.2615 18.8466C17.4064 19.0838 17.1049 18.1126 17.0639 17.9901C17.0228 17.8675 17.3662 18.3607 17.4308 18.4675C17.7474 18.9513 17.9659 18.962 17.6519 18.0946C17.6329 17.9437 17.9758 18.1304 18.0959 18.5751C18.0022 18.3403 17.9329 18.0965 17.889 17.8475C17.9519 17.8396 18.1409 18.1223 18.2606 18.2605C18.3802 18.3986 17.9388 17.4324 17.8505 17.2392C17.9593 17.4937 18.0346 17.382 18.2317 17.8298C18.2476 17.9555 18.5976 18.7033 18.6383 18.6215C18.6368 18.5114 18.623 18.4017 18.597 18.2946L18.6771 18.2206C18.685 18.2835 18.6771 18.2206 18.6644 18.12C18.5359 17.6195 18.3757 17.1277 18.1845 16.6476C18.0662 16.3176 17.833 15.8872 17.8895 15.829C18.0992 16.2752 18.2994 16.7481 18.4965 17.1959C18.6936 17.6436 18.6288 17.3325 18.7249 17.4864C18.821 17.6403 19.0009 18.1542 19.0811 18.1824C19.1613 18.2105 19.2194 18.1649 19.1516 18.0329C19.0838 17.9009 18.7262 17.2946 18.6693 17.0463C18.6123 16.798 18.795 17.0304 18.9006 17.2598C19.2756 17.9023 19.2444 18.0595 19.392 17.9131C19.5396 17.7667 19.0698 16.7785 18.6159 15.916C18.3527 15.4511 18.0847 14.8462 17.8372 14.3026C17.3373 13.1776 17.9023 14.8181 17.9023 14.8181C17.9023 14.8181 17.5003 13.9619 17.4624 13.8644C17.4246 13.767 17.6754 14.438 17.6883 14.6407C17.7011 14.8435 17.566 14.8862 17.5459 15.1314C17.5257 15.3767 17.6142 15.6721 17.3572 15.1552C17.2227 14.8778 17.1175 14.5871 17.0433 14.2879C16.9396 14.3776 16.754 14.3244 16.7686 14.642C16.9237 15.2097 17.1346 15.7608 17.398 16.2871C17.1993 15.8267 17.2422 16.1662 17.2219 16.2071C17.1047 16.0028 17.005 15.7889 16.9239 15.5677C16.7804 15.2409 16.1468 13.9668 16.3867 14.7541C16.5541 15.2044 16.7587 15.6401 16.9984 16.0565C17.1529 16.3692 17.0906 16.7858 17.0556 16.5092C17.0003 16.3057 16.9197 16.1099 16.8159 15.9263C16.8159 15.9263 16.862 16.2909 16.6776 15.9437C16.5475 15.7391 16.4387 15.5217 16.3529 15.2949C16.5374 15.7443 17.6016 18.101 17.1403 17.5844C17.0349 17.4572 16.0095 14.8017 15.9955 14.8929C16.1441 15.4506 16.3243 15.9994 16.5353 16.5366C16.3605 16.1484 16.1594 15.7726 15.9333 15.4118C15.6435 15.0396 16.3857 16.3639 16.3006 16.1958C16.4078 16.4377 16.3308 16.4347 16.3451 16.5479C16.4965 16.9375 16.38 16.8245 16.3848 16.8622C16.265 16.6219 15.7227 15.464 15.9714 15.7136C15.7853 15.2516 15.3473 14.5149 15.5116 15.1074C15.5608 15.4972 16.1345 16.6 16.1537 16.8531L15.8935 16.2089C15.8194 15.9747 15.7139 15.7517 15.5798 15.5459C15.4289 15.565 15.9398 16.7779 16.099 17.1283C16.0236 17.1378 15.8846 16.6444 15.7966 16.6555C15.7086 16.6666 15.6708 16.6714 15.5528 16.5458C15.3771 16.3443 15.2249 16.1235 15.0991 15.8877C14.9809 15.6599 14.8674 15.3676 14.8266 15.4494C14.7858 15.5312 14.8679 15.7763 14.7167 15.591C14.5656 15.4057 14.6127 15.3742 14.6191 15.4245C14.6115 15.6158 14.6357 15.807 14.6905 15.9904C14.708 16.1287 14.7795 16.6946 14.6362 16.4699C14.4928 16.2453 14.3853 15.799 14.3853 15.799C14.3853 15.799 14.7075 16.9336 14.7579 17.0294C14.5831 16.7577 14.8072 17.4192 14.664 17.2968C14.4544 16.8581 14.2696 16.408 14.1104 15.9487C14.1996 16.1493 14.2648 16.3598 14.3046 16.5757C14.2715 16.4343 14.208 16.3017 14.1185 16.1873C14.0291 16.0728 13.9158 15.9792 13.7865 15.913C13.6859 15.9257 13.3804 15.5299 13.743 16.2762C14.1055 17.0224 13.789 16.6408 14.0527 17.5146C14.0686 17.6403 14.2124 18.1715 14.1099 17.9672C14.0317 17.7715 13.9679 17.5704 13.9189 17.3654C13.7565 16.9899 13.9777 17.8306 13.7177 17.3908C13.6508 17.1245 13.5411 16.8709 13.3929 16.6398C13.33 16.6477 13.1831 16.0914 13.0904 16.167C12.9978 16.2426 13.1381 16.5442 12.9758 16.2709C13.1862 16.9304 13.4342 17.5772 13.7188 18.2083C13.9108 18.414 14.3432 19.6113 14.0234 19.1024C13.5173 18.0293 14.1751 19.6964 14.0162 19.6526C13.8691 19.4593 13.7629 19.238 13.7041 19.0022C13.5432 18.5371 13.7557 18.804 13.6469 18.5495L13.2685 17.6775C13.0887 17.2659 12.9341 16.851 12.9341 16.851C12.9341 16.851 13.3067 18.0815 13.1144 17.6714C13.0277 17.4857 12.9282 17.3061 12.8166 17.1342C12.9664 17.5113 12.8849 17.6749 12.7132 17.4283C12.6157 17.089 12.4758 16.7633 12.2969 16.4589C12.4689 16.9098 12.3176 16.6223 12.3525 16.899C12.3393 17.0947 12.3385 17.2911 12.3501 17.4869C12.3501 17.4869 12.3581 17.5498 12.4556 17.6141C12.5819 18.007 12.7924 19.0663 12.8588 19.39C12.7298 19.0124 12.5765 18.6434 12.3999 18.2855C12.2993 18.2982 12.1493 17.8189 12.0943 17.7875C12.0392 17.7562 12.6706 19.7204 12.4757 19.6939C12.3223 18.9604 12.0949 18.2444 11.7969 17.5568C11.5382 16.9252 11.6395 17.4234 11.8334 17.846C11.6772 17.4186 11.1313 15.929 11.4141 16.9537C11.8737 18.5691 11.2675 16.7039 11.3012 17.1723C11.3348 17.6408 11.628 18.2425 11.7206 18.1669C11.8133 18.0913 12.1184 19.3941 12.1847 19.6157C12.0303 19.3031 11.8349 18.9701 11.6866 18.6055C11.5384 18.241 11.4121 17.8482 11.2638 17.4836C11.1156 17.1191 11.0007 17.0187 10.9266 16.8364L11.3053 17.9128C11.3053 17.9128 10.9583 17.0879 10.9237 17.0156C10.7708 16.7156 10.8515 17.1525 10.9053 17.3756C10.8814 17.187 10.4928 16.9423 10.488 16.9046C10.6415 17.6134 11.0513 18.4303 11.2502 19.095C11.2788 19.3214 11.2788 19.3214 11.2002 19.3058C11.1216 19.2901 11.0661 18.9522 11.0015 18.8454C10.7541 18.404 11.0841 19.4993 11.1032 19.6502C11.1223 19.8011 11.0076 19.905 10.9698 19.8075C10.9477 19.4402 10.9016 19.0748 10.8316 18.7136L10.2858 17.3262C10.3112 17.5273 10.7439 19.0312 10.8402 19.2874C10.9364 19.5435 10.6893 19.3064 10.5741 19.0016C10.459 18.6968 10.0108 17.3737 9.96232 17.597C9.91388 17.8203 10.0068 17.9491 9.87774 17.8376C9.81759 17.7035 9.77004 17.5641 9.73571 17.4212C9.61287 17.2579 9.87233 18.5026 9.89457 18.6786C9.91681 18.8547 9.5937 18.2184 9.5307 18.1242C9.46769 18.0299 9.1966 17.5021 9.40826 18.2674C9.56301 18.7844 9.78856 19.3563 9.67235 19.4477C9.47816 18.8207 9.03113 17.2036 9.04134 17.79C8.93611 17.8671 9.6492 19.77 9.70321 20.1975C9.45796 19.5928 9.24359 18.9761 9.06094 18.3496C9.07682 18.4754 9.56012 20.1773 9.63611 20.5765C9.71209 20.9757 9.8883 22.2693 9.88431 21.631Z" fill="white"/>
<path d="M20.147 13.4742C20.1232 13.2856 19.8346 12.6195 19.7498 12.6557C19.6649 12.692 20.0654 13.5357 20.147 13.4742Z" fill="white"/>
<path d="M18.1395 14.6733C18.2688 15.0951 18.4444 15.5014 18.663 15.8846C18.663 15.8846 18.7459 15.5292 18.9133 16.1468C18.9403 16.3606 18.8253 16.158 18.9483 16.4235C19.1126 16.9298 19.354 17.4077 19.6639 17.8405C19.8843 18.0682 20.0366 17.9595 20.0063 17.6184C19.976 17.2773 19.4637 16.2562 19.8055 16.7368C19.9299 16.9127 20.0893 17.3652 20.231 17.5773C20.3728 17.7893 20.4182 17.643 20.4448 17.5503C20.4714 17.4575 20.3876 17.0976 20.3638 16.909C20.34 16.7203 20.4769 16.8947 20.6044 16.9935C20.7319 17.0924 21.3282 17.4642 20.9467 16.6692C20.9308 16.5435 20.4375 15.571 20.6564 15.8883C20.8753 16.2056 20.9827 16.5497 21.1623 16.8592C21.063 16.6801 20.8783 16.0264 21.3132 16.8401C21.5102 17.1857 21.2767 16.5509 21.2719 16.5132C21.2671 16.4755 21.6341 16.9529 21.7552 17.0015C21.8763 17.05 21.5312 16.4421 21.6996 16.5613C21.8679 16.6806 22.0807 17.0498 22.1591 16.9632C22.2376 16.8766 22.0956 16.4602 22.0956 16.4602C22.0956 16.4602 22.3568 16.6061 22.4243 16.5337C22.4918 16.4613 22.6949 16.755 22.5812 16.3605C22.5882 16.2245 22.571 16.0882 22.5304 15.9581C22.5304 15.9581 22.5511 16.1216 22.4172 15.9724L21.9557 15.2515C21.6973 14.8242 21.3334 14.2698 21.0639 13.7545C20.9362 13.4663 20.7732 13.195 20.5787 12.9471C20.4574 12.7963 20.809 13.5567 20.85 13.6793C21.0331 14.2183 20.5808 13.3684 20.5873 13.5209C20.6301 13.6734 20.6915 13.8201 20.7702 13.9577C20.6316 13.7708 20.3826 13.3168 20.2914 13.3027C20.2002 13.2887 20.9209 14.9479 20.9714 15.1459C21.062 15.8626 20.6389 14.5363 20.606 14.5788C20.573 14.6213 20.6287 15.1636 20.6162 15.1652C20.6036 15.1668 20.4508 14.9689 20.3689 14.826C20.1703 14.4678 19.9718 14.1096 19.7874 13.7624C19.8033 13.8882 20.1475 14.9945 20.097 14.8986C19.8629 14.3822 19.6555 13.8541 19.4755 13.3164C19.2991 13.0321 19.6074 14.3601 19.1691 13.419L19.7304 14.6256C19.6519 14.7121 19.2779 13.6735 19.3052 14.0916C19.3221 14.3526 19.4023 14.6056 19.5389 14.8286C19.5563 14.9669 19.4368 14.9309 19.4038 14.9734C19.3709 15.0159 18.9714 13.6739 19.0933 14.3356C19.1171 14.5242 18.8744 14.0183 18.8209 13.9995C18.7674 13.9807 18.8559 14.2762 18.7239 14.3439C18.5919 14.4117 18.1364 13.5367 18.4172 14.2422C18.5228 14.4715 18.8302 15.0842 18.8696 15.1942C18.9091 15.3042 18.6414 15.0059 18.7692 15.3091C18.8361 15.425 18.894 15.5458 18.9426 15.6705C18.667 15.3188 18.4229 14.9435 18.2132 14.549C18.2761 14.541 18.6887 15.0766 18.2488 14.1229C18.1562 14.065 18.051 14.0301 17.9421 14.0211C17.9421 14.0211 17.9691 14.2349 17.7281 13.8438C17.7281 13.8438 17.7281 13.8438 17.7535 14.0449C17.8312 14.5589 18.1255 14.7645 18.1395 14.6733Z" fill="white"/>
<path d="M20.9231 13.044C20.9859 13.0361 21.5338 13.6311 21.4223 13.7602C21.1121 13.3267 21.9509 15.2137 21.6531 14.6764C21.4844 14.3528 21.2638 13.9208 21.1963 13.9932C21.1288 14.0656 21.1413 14.064 21.2296 14.2572C21.6442 15.1119 21.8421 14.9591 22.1304 15.4209C22.4187 15.8828 22.6632 16.5034 22.7622 16.4781C22.8612 16.4528 22.88 16.3994 22.905 16.294C22.93 16.1886 22.8335 15.7281 23.0146 15.948C23.1957 16.1678 23.1847 16.182 23.0568 15.7766C23.0568 15.7766 23.1226 15.5894 23.1825 15.7607L22.9648 15.1494C23.0577 15.2782 23.2802 15.9272 23.3951 16.0277C23.51 16.1281 23.3522 15.6882 23.3443 15.6253C23.3363 15.5624 23.005 14.6589 23.0038 14.9529C22.6997 14.3653 23.0793 14.9434 22.9625 14.626C22.8458 14.3086 22.4456 13.6692 22.4456 13.6692C22.4456 13.6692 23.057 14.7673 23.2303 15.0265C23.3751 15.2405 23.5373 15.4422 23.7153 15.6295C23.728 15.7301 24.2596 15.8929 24.2644 15.9306L23.7365 14.9881C23.815 14.9015 24.1492 15.6258 24.2561 15.6634C24.3631 15.701 24.2148 15.3365 24.1735 15.0095C24.1322 14.6826 24.1433 14.7706 24.3373 15.1932C24.5312 15.6159 24.5623 15.3564 24.5968 15.3265C24.6314 15.2966 24.7729 15.3043 24.6593 15.012C24.5457 14.7198 24.3093 14.2642 24.4967 14.5343C25.0134 15.2867 25.0132 15.1845 24.4539 14.1948C24.5214 14.1224 24.8115 14.8012 24.9202 14.9535C24.9202 14.9535 25.2665 15.2675 25.2663 15.1653C25.2662 15.0631 24.4864 13.8458 24.9083 14.2524C25.1271 14.4675 25.3038 14.9562 25.4042 14.8413C25.5047 14.7264 25.1504 14.2474 25.0839 13.9236C24.9662 13.6135 24.8298 13.3107 24.6755 13.017C24.3939 12.8837 24.1758 12.6452 24.0678 12.3529C23.8755 11.9428 24.2815 12.2237 23.9884 11.7241C23.8738 11.3806 23.7165 11.0528 23.5202 10.7485C23.6293 10.9466 23.7237 11.1524 23.8024 11.3644C23.6668 10.9983 23.2953 10.6875 23.2797 10.7661C23.2987 11.1077 23.3757 11.4436 23.5074 11.7594C23.6289 12.1145 24.0561 12.9676 23.7017 12.4885C23.3474 12.0095 23.4185 12.2688 23.6565 12.737C23.4784 12.4401 23.2517 12.1621 23.2046 12.1937C23.1575 12.2252 23.1267 11.5775 22.9884 11.595C22.8501 11.6125 22.7508 11.4334 22.7069 11.49C22.6629 11.5467 23.6038 13.3313 23.2448 12.9167C22.8859 12.5022 22.2927 10.9419 22.3202 11.5644C22.4388 11.9225 22.6064 12.2625 22.8183 12.5746C23.0217 12.9705 22.9793 13.0397 23.211 13.4576C22.9723 13.1375 22.7739 12.7893 22.6201 12.4208C22.4693 12.0882 22.3004 11.764 22.1142 11.4499C21.9692 11.2127 22.1237 11.5254 22.1443 11.6888C22.4271 12.1289 22.6542 12.6022 22.8206 13.0981C22.8381 13.2364 22.7074 13.1124 22.5657 12.9004C22.4894 12.5496 22.3476 12.2165 22.1478 11.9184C22.1478 11.9184 22.1907 12.2579 22.1589 12.0064C22.1271 11.7549 22.0361 11.843 21.9796 11.9013C21.923 11.9595 21.7858 11.5808 21.7119 11.6029C21.6199 11.9464 21.6302 12.3091 21.7416 12.6468C21.7289 12.5462 21.5714 12.3106 21.4926 12.1928C21.4138 12.075 21.3543 12.2102 21.3291 12.2134C21.304 12.2166 21.0506 12.0314 21.0146 12.1509C20.9786 12.2705 21.39 13.1 21.2136 12.8157C21.0371 12.5314 20.7348 12.1607 20.9712 12.6163C20.6939 12.1404 20.682 12.6529 20.5215 12.4943C20.3609 12.3357 20.8624 13.5754 21.0782 13.8676C20.9273 13.6213 20.8721 13.3283 20.9231 13.044Z" fill="white"/>
<path d="M25.0805 11.3691C24.9577 11.2057 24.857 11.1163 24.8539 11.1933C24.8509 11.2703 24.9973 11.4179 25.0805 11.3691Z" fill="white"/>
<path d="M25.2448 10.7478C25.1553 10.8485 24.6332 9.54752 25.2448 10.7478V10.7478Z" fill="white"/>
<path d="M25.8098 14.8156C25.923 14.8013 25.9984 14.7917 26.0218 14.6738C26.0453 14.5559 25.8717 14.0923 26.1034 14.5102C25.9946 14.2557 26.0414 14.0198 26.0605 14.1707C26.0795 14.3216 26.1018 14.4976 26.097 14.4599C26.3252 14.6482 26.4114 14.4202 26.512 14.4075C26.6126 14.3948 26.8766 14.3614 26.5362 13.689C26.5187 13.5507 26.7456 13.9308 26.8149 14.0754C26.542 13.3306 27.2097 14.166 27.255 14.0198C27.3004 13.8735 26.448 12.3843 26.1233 11.7355C26.1233 11.7355 26.1233 11.7355 26.0224 11.5438C25.858 11.1715 25.6674 10.8114 25.4519 10.4661C25.5313 10.7024 25.6245 10.9338 25.7311 11.159C25.774 11.4986 25.4461 10.8246 25.3075 10.6377C25.1689 10.4508 25.5222 11.326 25.5459 11.4124C25.5696 11.4988 25.4579 11.4235 25.466 11.5886C25.4741 11.7536 25.6488 11.9232 25.7875 12.2123C25.9262 12.5013 26.0193 12.7323 25.8256 12.514C25.5548 12.1128 25.3291 11.6829 25.1527 11.2321C24.6971 10.2549 24.4434 9.86536 24.4141 10.2395C24.422 10.3024 24.2196 10.6218 24.352 10.8606C24.601 11.3146 24.61 10.9813 24.6886 10.9969C24.7672 11.0125 24.9956 11.3031 25.1643 11.7289C25.3331 12.1547 25.6366 12.2313 25.7518 12.5361C25.8669 12.841 25.4811 12.3148 25.4544 12.3054C25.4276 12.296 25.4734 12.4563 25.3696 12.4439C25.2659 12.4315 25.067 11.8689 24.979 11.88C24.891 11.8912 25.0076 12.1064 24.9163 11.9902C24.825 11.874 24.1131 10.8908 24.121 10.9536C24.129 11.0165 24.4236 11.5286 24.4441 11.5899C24.5876 11.9167 24.487 11.9294 24.6824 12.2624C24.8778 12.5955 25.2181 13.1657 25.2356 13.304C25.2531 13.4423 24.9317 12.9208 24.9364 12.9585C24.9412 12.9963 25.3934 13.744 25.4769 13.8995C25.5604 14.055 25.674 14.3473 25.7906 14.5625C25.5548 14.1044 25.2939 13.6597 25.0091 13.2304C25.0091 13.2304 24.5967 12.7971 24.5948 12.5801C24.5929 12.3632 24.7695 12.7497 24.7205 12.5642C24.6494 12.3189 24.5635 12.078 24.4633 11.843C24.2618 11.3849 24.0306 10.9405 23.7715 10.5124C23.7715 10.5124 24.2823 11.6231 24.3532 11.7802C24.1163 11.4151 23.8586 11.0637 23.5815 10.728C23.7698 11.1393 23.9824 11.539 24.2182 11.9251C24.357 12.192 24.4812 12.4663 24.5903 12.7468C24.9244 13.4765 25.3331 14.1698 25.8098 14.8156Z" fill="white"/>
<path d="M26.0915 11.484L26.1924 11.6757C26.1924 11.6757 26.0126 11.264 26.0915 11.484Z" fill="white"/>
<path d="M26.6605 12.5492C26.8917 12.6605 26.9108 12.8114 27.3157 13.4884C27.5756 13.9282 27.5706 13.6862 27.602 13.6311C27.6333 13.576 27.9836 13.3146 27.3109 12.2371C27.3878 12.1379 27.6229 12.7853 27.8118 12.9658C27.6353 12.4585 27.3897 11.978 27.082 11.5378C26.7496 11.0304 26.4632 10.7856 26.9185 11.5584C26.5481 10.9368 26.1233 10.3492 25.6491 9.80254C26.0903 10.5644 27.0357 12.1824 26.874 12.3178L26.5052 11.6234C26.2656 11.1427 26.0118 10.651 25.7204 10.164C25.2682 9.41631 26.1492 11.1318 26.4453 11.5543C26.2501 11.3235 25.8076 10.7534 26.0534 11.1823C26.2356 11.4911 26.3957 11.8124 26.5326 12.1438C26.5552 12.2844 26.5982 12.421 26.6605 12.5492Z" fill="white"/>
<path d="M26.2195 9.5643C25.8951 9.11983 26.0716 9.50633 26.2624 9.90381L26.2195 9.5643Z" fill="white"/>
</g>
<defs>
<clipPath id="clip0_86_38149">
<rect width="101.002" height="39.2906" fill="white" transform="translate(105.13 38.9807) rotate(172.8)"/>
</clipPath>
</defs>
</svg>
