<svg width="106" height="52" viewBox="0 0 106 52" fill="none" xmlns="http://www.w3.org/2000/svg">
<g clip-path="url(#clip0_509_13559)">
<path d="M97.2188 20.8856C96.9064 20.5267 97.1407 20.4924 97.4264 20.7585L97.2188 20.8856Z" fill="#007A3D"/>
<path d="M97.126 21.0143C96.5589 20.751 96.632 20.1726 97.3287 21.1293C97.2564 21.0947 97.1967 21.0616 97.126 21.0143Z" fill="#007A3D"/>
<path d="M80.3742 29.233C80.1106 27.6794 80.8143 29.2886 80.3742 29.233V29.233Z" fill="#007A3D"/>
<path d="M75.3353 29.2735C75.3087 29.2847 75.2795 29.2887 75.2508 29.2851C75.2222 29.2815 75.1949 29.2704 75.1719 29.2529C75.1061 29.0657 75.3343 28.8774 75.3594 28.8805C75.3846 28.8837 75.4359 29.2862 75.3353 29.2735Z" fill="#007A3D"/>
<path d="M100.014 23.3338C100.161 23.6846 99.9805 23.5979 99.6899 23.4718C99.3992 23.3456 99.6787 23.5598 99.7447 23.6448C99.8106 23.7297 98.5984 22.6057 98.8463 22.9692C99.126 23.3978 99.4427 23.8011 99.7927 24.1746C100.049 24.4752 100.284 25.0415 99.8925 24.8004C99.5013 24.5594 99.6213 24.2168 99.2241 23.8217C99.0038 23.9472 99.6632 24.5926 99.5248 24.6773C99.3863 24.762 99.2279 24.4993 99.0537 24.2601C98.8492 24.362 99.4363 24.9727 99.3167 25.1109C99.197 25.2491 99.183 25.1579 99.2786 25.4127C99.3741 25.6675 98.9563 25.4359 98.7052 25.0976C98.4541 24.7592 98.3395 24.6553 98.1916 24.7133L98.8774 25.6559C99.1944 26.0792 98.6007 25.6209 98.5081 25.5453C98.4154 25.4697 98.2485 25.6786 98.129 25.7146C97.9609 25.6667 97.8057 25.5816 97.675 25.4656C97.6607 25.5788 98.5152 27.3092 97.5749 26.2578C97.3647 25.8991 97.3989 26.2356 97.3862 26.3362C97.4423 26.701 97.2113 26.6079 96.9835 26.4897C96.4587 26.2956 96.79 26.6058 96.7532 27.0994C96.7164 27.5929 96.1156 26.5845 95.8678 26.1188C95.9713 26.3107 95.9161 26.4443 96.1028 26.7872C96.1675 26.9084 96.1988 27.0447 96.1934 27.1819C96.1442 27.5718 95.7244 27.5571 95.5371 27.725C95.3498 27.893 95.1591 28.2905 94.8856 28.2304C94.6122 28.1703 94.4812 27.3872 94.3714 27.1434C94.4718 27.3605 94.346 27.3446 94.3174 27.5709C94.3714 27.7314 94.4418 27.8858 94.5275 28.0318C94.5823 28.2048 94.3575 28.1636 94.3182 28.1715C94.2789 28.1793 94.1109 27.992 94.0842 28.0014C94.0575 28.0108 93.8511 28.3296 93.6499 28.3042C93.4487 28.2788 93.1103 27.4184 93.0139 27.7767C92.9175 28.135 92.9808 29.05 92.6163 28.9018C92.4654 28.8827 91.9039 27.8664 92.2516 28.8557C92.1463 28.7383 92.0638 28.6022 92.0085 28.4545C92.4499 29.9156 91.5747 29.5623 91.158 29.6246C91.0574 29.6119 90.3826 29.8971 90.2496 29.4332C90.1239 29.4173 90.1268 29.5965 90.0418 29.6624C89.895 29.7654 89.7174 29.8151 89.5385 29.8032C89.2398 29.8422 89.0995 30.1438 88.8149 30.1717C88.8149 30.1717 88.5444 30.2909 88.4395 29.9071C88.3347 29.5234 88.2908 29.4668 88.2137 29.4698C88.1367 29.4728 88.0264 29.6378 88.0544 29.9223C88.0823 30.2069 87.7526 29.8842 87.6706 30.0272C87.5887 30.1701 87.6539 30.766 87.5289 30.2392C87.4506 29.9483 87.2828 29.6588 87.179 29.6712C87.0753 29.6837 87.417 30.4167 87.4138 30.4419C87.3805 30.7059 86.8091 30.0716 86.7007 30.0196C86.5923 29.9676 86.4835 30.2221 86.367 30.3351C86.2505 30.4482 86.08 30.9888 85.8858 30.4021C85.7653 30.042 85.6949 29.7903 85.5475 29.4396C85.5094 29.7413 85.5417 30.2948 85.4989 30.5321C85.4449 30.9596 85.1968 29.5869 85.1624 29.4548C85.128 29.3227 85.3179 30.7519 85.2718 31.1166C85.2257 31.4813 84.8963 30.9542 84.7815 30.9525C84.6668 30.9507 84.3754 31.3355 84.3052 30.9817L84.2411 30.6798C84.1657 30.6702 84.0888 30.5711 84.0104 30.3824C84.0199 30.3069 83.8211 29.6558 83.8211 29.6558C83.8211 29.6558 84.0265 31.2659 83.9193 31.5078C83.8121 31.7498 83.3831 31.6062 83.1897 31.6201C82.9963 31.634 82.4297 32.1756 82.1888 31.2509C82.2477 31.8971 81.624 31.5756 81.4762 31.6335C81.3283 31.6915 81.2585 32.1426 81.2133 31.8941C81.168 31.6457 81.2112 31.1018 81.1486 30.8895C80.9327 30.0702 80.7759 32.1199 80.6457 31.9374C80.5746 31.364 80.4672 30.7958 80.3241 30.236C80.2923 30.4875 80.7469 32.6528 80.2839 32.0706C80.0313 31.7448 79.8044 32.125 79.5536 31.5823C79.3966 31.4091 79.0136 31.003 78.9157 31.2717C79.0077 31.8582 78.6894 32.4568 78.5897 31.7288C78.8203 33.342 77.9471 32.6696 77.8468 31.2389C77.8007 31.6035 77.8583 32.0579 77.8405 32.4006C77.8228 32.7433 77.62 32.7305 77.4675 32.724C77.315 32.7175 76.9153 33.0502 76.9067 32.4104C76.8638 32.7499 76.6263 32.8093 76.4629 32.7887C76.2994 32.768 76.1677 32.4959 76.0618 31.716C75.8858 31.6938 76.0056 32.667 75.9141 32.8854C75.8752 32.5867 75.7483 32.2768 75.6461 32.2767C75.8081 33.4214 75.4217 33.1426 75.1561 33.1218C74.8904 33.101 74.661 31.7818 74.564 31.4373C74.467 31.0929 74.4646 30.505 74.3834 30.137C74.3021 29.769 74.2685 30.2375 74.2762 30.379C74.3226 30.9214 74.4413 31.4985 74.5287 32.0205C74.5287 32.0205 74.7287 32.9656 74.6502 32.879C74.5717 32.7925 74.5183 32.7091 74.4381 32.7373C74.4553 32.8352 74.4426 32.9359 74.4016 33.0265C74.4016 33.0265 74.2019 33.0907 74.166 32.869C74.1301 32.6473 74.0603 30.7733 74.0272 30.833C73.9941 30.8927 73.8 32.6311 73.5248 31.4721C73.6433 31.04 73.4461 30.3763 73.53 29.9142C73.614 29.4521 74.0383 30.7449 74.039 30.234C73.9697 29.8703 73.9564 29.4981 73.9996 29.1304C73.964 28.7043 74.2385 29.1606 74.3139 29.1701C74.3894 29.1796 74.6411 30.2207 74.7394 30.7569C74.8019 31.0714 74.8736 31.5148 75.004 31.5951C75.1344 31.6755 75.3088 31.7103 75.2761 31.4634C75.2435 31.2166 74.964 30.9002 74.8983 30.7131C74.7804 30.3619 74.7105 29.9964 74.6906 29.6265C74.7667 30.3387 74.995 30.0482 75.1502 30.4383C75.3388 30.4621 75.1772 30.2245 75.3347 29.9889C75.4922 29.7533 75.5753 29.9043 75.6791 29.8919C75.7829 29.8795 75.7188 29.5775 75.7506 29.326C75.7824 29.0746 75.9585 28.9946 76.0593 28.9051C76.16 28.8157 76.5331 28.3901 76.5514 28.8523C76.5708 29.6085 76.6915 29.8665 76.9323 29.6797C77.1731 29.493 76.9368 28.6328 77.1609 29.1848C77.385 29.7369 77.3865 28.6129 77.5195 29.0768C77.5036 29.2026 77.6444 29.7058 77.7146 30.1618L77.8018 30.7861C77.8034 30.8752 77.7922 30.9642 77.7684 31.0501C77.8927 30.9764 77.7336 30.0109 77.7387 29.7688C77.7437 29.5268 77.9388 29.3981 77.8499 28.8886C77.7744 28.8791 77.7842 28.5993 77.811 28.5899C77.8377 28.5805 77.8939 28.8431 77.9379 28.8998C77.9908 29.2897 78.1906 29.2255 78.2692 29.2099C78.3478 29.1943 78.1484 30.1655 78.3751 29.9898C78.6017 29.814 78.2699 28.699 78.3457 28.4019C78.4216 28.1049 78.7321 28.6807 78.8226 29.1776C78.9131 29.6745 78.907 29.5204 79.0721 29.5285C79.2371 29.5366 79.2753 29.2348 79.2938 29.4926C79.3123 29.7505 79.3023 30.2347 79.5056 29.8388C79.585 29.21 79.2186 29.2787 79.133 28.6419C79.3734 28.7617 79.2092 28.0384 79.5183 28.5245C79.6877 28.8014 79.9838 28.379 80.074 29.1824C79.9943 28.8019 80.1423 28.6417 80.2331 28.9342C80.3605 29.2643 80.4672 29.6021 80.5524 29.9455C80.7638 30.5982 80.6725 29.5007 80.6366 29.279C80.6008 29.0573 80.456 27.9787 80.679 28.1346C80.902 28.2906 81.1797 28.7217 80.9654 27.8898C81.1109 28.4575 81.4089 30.1431 81.6001 29.4391C81.6477 29.0618 81.332 27.7189 81.7589 28.1816C81.7494 28.2571 82.1321 28.9697 82.1669 28.7953C82.2017 28.6208 82.086 28.1208 82.1114 27.9196C82.1369 27.7184 82.303 28.1226 82.4051 28.1228C82.5073 28.1229 82.5726 28.7188 82.6887 28.9123C82.8047 29.1058 82.9779 28.9488 83.1943 29.3594C83.1832 29.4475 83.5894 30.1759 83.4612 29.572C83.5105 29.1822 83.657 28.9324 83.8362 28.9295C84.0155 28.9266 84.0622 29.2647 84.2759 29.2917C84.4897 29.3187 83.8691 27.8606 83.9355 27.5368C84.002 27.2131 84.2569 28.2289 84.2929 28.3485C84.3289 28.468 84.5596 28.7654 84.4955 28.4635C84.5495 28.8394 84.6262 29.2117 84.7252 29.5784C84.7008 28.8391 84.5786 28.1063 84.3617 27.399C84.5378 27.4213 84.6074 28.286 84.8385 28.2769C84.5427 27.2814 85.0511 28.0099 85.0844 27.7458C85.1178 27.4818 84.9154 27.1624 85.0523 27.0902C85.1892 27.0181 85.1952 27.1722 85.3021 27.2368C85.4089 27.3014 85.5287 27.061 85.656 27.0643L86.1952 27.043C86.1926 27.4193 86.2915 27.7892 86.4815 28.114C86.6903 28.3831 86.5562 27.523 86.58 27.3344C86.4722 26.8736 86.6722 26.605 86.8024 26.7876C86.9326 26.9701 86.8565 27.4715 86.8578 27.6633C86.8592 27.8551 87.4907 28.2159 87.3264 27.5947C87.0183 26.3933 87.9714 28.4555 88.0359 28.4509C87.978 28.2008 87.7479 27.4947 87.8674 27.4587C87.9869 27.4227 88.4974 27.7299 88.2135 27.2469C88.2859 27.1794 88.7019 27.628 88.5877 27.2175C88.6099 27.0415 88.5511 26.3953 88.6576 26.6642C88.7952 27.1356 88.807 27.6348 88.6919 28.1122C88.6919 28.1122 88.9302 28.5511 88.968 28.5558C89.0057 28.5606 89.0378 28.0026 88.9627 27.7887L88.818 26.6079L89.1804 27.1774C89.5096 27.9089 89.3594 27.3789 89.3505 26.9434C89.3393 25.92 90.3104 27.4352 90.0855 26.2825C90.1014 26.1568 90.5827 27.2013 90.5094 26.7704C90.5205 26.6824 90.1652 25.4495 90.424 25.9293C90.6828 26.4091 90.69 26.8571 90.8583 26.8401C91.0265 26.823 90.9234 26.3245 90.9298 26.2742C90.9361 26.2239 90.8662 26.7772 90.7789 26.2552C90.6915 25.7331 90.844 25.7396 90.9352 25.7256C91.0264 25.7115 91.1554 25.6001 91.2447 25.9052C91.3339 26.2103 91.4698 26.8535 91.3141 26.8721C91.3665 27.1103 91.4587 27.3379 91.5868 27.5453C91.7516 27.7578 91.6988 27.2656 91.6424 27.1052C91.6268 26.5697 91.5392 26.0387 91.3819 25.5265C91.4791 25.7687 91.6076 26.066 91.6736 26.0488C91.7397 26.0316 91.5785 25.4875 91.5724 25.3334C91.5446 24.9466 91.9011 25.2599 92.0628 25.3954C92.3295 25.5668 92.5618 25.7868 92.7474 26.0439C92.8085 26.1667 93.1332 26.7314 93.1053 26.4469C92.9465 25.9769 92.7429 25.5234 92.4971 25.0925C92.6228 25.1084 93.0007 25.8588 93.0526 25.8526C92.9597 25.65 92.9091 25.4306 92.9041 25.2078C92.9184 25.0946 93.0993 24.977 93.256 25.3545C93.3974 25.449 93.8249 25.503 93.966 25.8019C94.4076 25.9471 94.0201 25.3744 93.9846 24.8461C93.9491 24.3178 94.4932 25.3703 94.2432 25.4281C94.4146 25.3859 94.9957 25.8425 95.3108 26.4828C95.1086 26.0612 94.8747 25.7889 94.6788 25.3171C94.5723 25.0481 94.5332 24.8515 94.4345 24.6219C94.8046 25.3329 94.998 25.319 95.2246 25.1433C95.4512 24.9675 95.1516 24.4059 95.1051 23.9656C95.345 24.392 95.7589 24.0482 95.8721 24.0625C95.9853 24.0768 96.3838 24.6637 96.4751 24.5475C96.5665 24.4313 96.1036 22.5332 96.83 23.6598C96.8411 23.5718 96.5688 22.6942 96.9079 23.0436C97.1821 23.355 97.4837 23.6411 97.8091 23.8985L96.7684 22.7322C97.1955 23.0927 97.6258 23.4282 98.0687 23.7652C97.7472 23.4465 97.4442 23.1097 97.1613 22.7563C97.4757 22.796 98.174 23.7402 98.5114 24.2044C98.6608 24.1338 97.818 23.1203 97.6438 22.8811C97.2844 22.3886 97.7649 22.8325 97.6867 22.5416C97.6085 22.2507 97.3461 22.1025 97.5426 22.1657C97.739 22.2288 97.998 22.5043 98.0297 22.355C98.0149 22.261 97.9924 22.1684 97.9624 22.0782C97.9767 21.965 97.5754 21.0967 97.8126 21.2417C97.8126 21.2417 98.472 21.8871 98.494 21.9154C99.0545 22.4334 99.1817 22.5389 99.1931 22.2465C99.2045 21.9541 99.5529 22.4324 99.71 22.5034C99.5355 22.4686 99.9073 23.0649 100.014 23.3338Z" fill="#007A3D"/>
<path d="M71.9845 30.2171C71.8806 30.3317 71.7154 30.4258 71.7695 29.8961C71.8237 29.3664 72.0593 29.5239 72.196 29.554L72.0459 30.1354C72.0112 30.2077 71.9955 30.2313 71.9845 30.2171Z" fill="#007A3D"/>
<path d="M73.1063 33.0672C72.939 33.5826 72.8552 32.7289 72.732 33.1988C72.6087 33.6687 72.1746 32.6557 71.9107 32.5201C71.9476 33.138 71.8233 33.2117 71.6553 33.0244C71.4943 32.7123 71.3773 32.3794 71.3076 32.0351C71.5442 32.691 71.0423 34.1351 71.2187 32.7393C71.3577 32.2459 71.0133 32.3429 70.9546 32.7059C70.896 33.069 70.933 33.5847 70.669 33.5513C70.3729 33.9738 70.5512 32.259 70.5672 32.031C70.5832 31.8031 70.2571 29.935 70.4602 29.7435C70.6632 29.552 70.6543 30.3302 70.79 29.964C70.8123 29.788 70.9012 29.0838 71.036 29.433C71.1707 29.7822 70.997 30.3479 71.0391 30.6215C71.0812 30.8951 71.1126 30.9502 71.1296 31.1184C71.1255 30.6452 71.1879 29.8482 71.3334 30.4159C71.4022 30.6801 71.5377 31.6299 71.5562 31.8877L71.4014 30.0796C71.5649 30.1003 71.4727 30.8296 71.6219 30.9634C71.7711 31.0972 71.8689 30.8285 72.0167 30.7706C72.1646 30.7126 72.4443 30.8246 72.5737 30.4066C72.588 30.2934 72.6563 29.7527 72.7569 29.7654C72.7317 30.1146 72.7344 30.4652 72.765 30.814C72.9662 30.8394 72.8492 30.1475 72.9 29.7452C72.9091 30.0238 73.0155 30.2904 73.2009 30.4986C73.372 30.6607 73.386 30.7519 73.3884 31.3399C73.3794 31.9264 73.2843 32.5083 73.1063 33.0672Z" fill="#007A3D"/>
<path d="M70.6061 33.5433C70.4202 33.8009 70.8073 33.5687 70.6061 33.5433V33.5433Z" fill="#007A3D"/>
<path d="M70.2055 33.1733C70.0081 33.8255 69.9756 32.2628 69.9524 31.9405C69.9334 32.0914 69.9012 33.8631 69.7538 33.5123C69.6065 33.1615 69.8085 32.5738 69.5822 32.5452C69.3559 32.5166 69.2931 32.4065 69.1924 32.496C69.0917 32.5855 69.214 32.8309 69.2075 32.9834C69.1376 33.5366 68.9475 33.4232 68.9183 32.9468C68.8627 33.3869 68.6504 32.2359 68.5052 32.6774C68.4596 33.0005 68.5065 33.3298 68.6407 33.6272C68.3766 33.5938 68.2914 32.6504 68.2246 32.0671C68.164 32.5598 68.1397 33.0563 68.1519 33.5526C68.077 33.1344 67.8242 31.6972 67.6481 31.6749C67.6506 32.1607 67.6302 33.3334 67.3508 33.0171C67.0714 32.7007 67.6775 32.0491 67.4217 31.7485C67.1658 31.4479 67.3382 33.0155 67.1639 32.8785C66.9896 32.7415 67.0109 32.0671 66.9003 32.5386L66.8415 33.0038C66.7852 32.7742 66.755 32.539 66.7512 32.3026C66.7705 32.6923 66.6995 33.0811 66.5438 33.4389C66.4555 33.6321 66.4308 33.3224 66.417 33.0268C66.3677 33.4166 66.3328 33.6933 66.1268 33.7056C65.9209 33.7179 65.9434 33.3375 65.8415 33.133C65.7396 32.9285 65.6125 32.7208 65.4993 32.7065C65.3862 32.6922 65.4135 33.3855 65.3929 33.549C65.2566 33.3502 65.1632 33.1252 65.1187 32.8884L65.1504 32.6369C65.0967 31.6464 65.3331 31.1908 65.2951 30.1768C65.2572 29.1627 65.5567 29.7244 65.7784 29.6885C66.0001 29.6526 66.2916 29.1657 66.4308 29.6815C66.5253 30.1278 66.4666 30.593 66.264 31.0018C66.4307 31.5278 66.5463 32.0686 66.6093 32.6168C66.6506 32.2899 66.5442 31.9187 66.5526 31.5493C66.5542 31.384 66.575 31.2194 66.6145 31.0589C66.6495 30.7822 66.4134 29.8198 66.5894 29.8421C66.7654 29.8643 67.4504 28.9927 67.4708 30.2472C67.4867 30.1215 67.8026 30.1486 67.8623 30.1817C67.922 30.2148 68.0422 29.6679 68.1838 29.558C68.3255 29.4482 68.544 29.4375 68.6977 29.7379C69.0286 30.3546 68.8774 29.3263 69.1273 29.3706C69.1218 30.0215 68.9551 30.026 69.1051 30.7603C69.1519 30.9962 69.4054 31.9225 69.5129 31.4761C69.5496 30.7764 69.4833 30.075 69.3159 29.3945C69.4291 29.4088 69.8978 29.238 69.9648 29.7192C69.9633 30.3458 70.0124 30.9714 70.1117 31.5901C70.2343 31.8337 70.3059 32.0998 70.322 32.372C70.3381 32.6443 70.2985 32.9169 70.2055 33.1733Z" fill="#007A3D"/>
<path d="M64.9648 30.4672C64.8173 30.2186 64.9263 29.8619 65.0379 29.8888C65.1494 29.9156 65.0622 30.505 64.9648 30.4672Z" fill="#007A3D"/>
<path d="M64.2935 32.7459L64.1929 32.7332C64.0142 32.3274 64.3184 31.7399 64.2935 32.7459Z" fill="#007A3D"/>
<path d="M64.1444 31.1942C64.0523 31.9235 63.9427 32.7911 63.8458 33.5582C63.5924 33.2543 63.443 32.8773 63.4196 32.4823C63.3827 31.8644 63.7465 32.5236 63.7279 32.3679C63.6969 32.0063 63.4363 31.7434 63.3383 32.1143C63.2404 32.4852 63.315 33.1078 63.1795 33.3718C62.5637 34.201 63.1622 32.1943 63.0365 32.0762C62.9109 31.9581 62.7109 33.4403 62.5425 33.5596C62.3742 33.6788 62.2042 33.8107 62.2509 32.9351C62.0372 32.9081 62.0176 33.4677 61.8145 33.6592C61.6115 33.8508 61.4041 33.7735 61.4584 33.1416C61.4082 34.2467 60.6913 33.0446 60.4221 33.3556C60.4221 33.3556 60.4221 33.3556 60.4125 33.431C60.4864 32.7368 60.5991 32.0473 60.7501 31.3658C60.8168 30.8376 60.944 30.9431 60.9726 30.7168C61.0012 30.4904 61.1156 29.5851 61.1858 30.0411C61.2294 30.3021 61.1222 30.5441 61.2338 30.5709L61.4601 30.5995C61.5889 30.6924 61.5203 31.4375 61.6095 31.7426C61.838 32.5635 61.6619 30.2162 61.6587 30.2414C61.6555 30.2665 61.8839 31.0874 61.9977 30.693C62.1114 30.2985 62.1406 29.5613 62.3762 29.7188C62.6118 29.8763 62.7622 30.3041 62.6219 30.6058C62.6139 30.6686 62.366 30.3052 62.3721 30.4592C62.4123 30.9498 62.8383 31.0164 62.9611 30.853C63.084 30.6897 62.9961 30.5764 63.0072 30.4884C62.9277 30.2389 62.9129 29.9732 62.9642 29.7164C63.0678 30.1469 63.1449 30.5833 63.1951 31.0231C63.2205 30.8219 63.2349 29.4951 63.354 29.7657C63.4731 30.0362 63.4347 30.5424 63.543 30.6966C63.6513 30.8508 63.5811 30.3948 63.6897 30.3446C63.9024 29.9755 63.7725 31.9137 63.9884 30.3057C64.1606 29.6504 64.2898 29.4368 64.4729 30.1114C64.6559 30.7861 64.7303 29.1858 64.8395 29.8384C64.9655 30.7228 65.0321 31.6147 65.0388 32.508C64.9501 34.2214 64.2617 31.6817 64.1444 31.1942Z" fill="#007A3D"/>
<path d="M60.3799 33.3884C60.3783 33.3629 60.3816 33.3373 60.3895 33.313C60.3895 33.313 60.3639 33.6164 60.3799 33.3884Z" fill="#007A3D"/>
<path d="M55.4165 30.1041C55.253 30.0834 55.2273 29.2753 55.4444 29.175C55.6615 29.0747 55.6129 30.1672 55.4165 30.1041Z" fill="#007A3D"/>
<path d="M53.8598 29.2816C54.1524 29.0886 54.1893 29.7065 53.8216 29.5834C53.7995 29.4814 53.8129 29.3749 53.8598 29.2816Z" fill="#007A3D"/>
<path d="M60.5541 30.996C60.5429 31.22 60.5148 31.4428 60.4699 31.6625C60.3027 32.0757 60.3166 31.0555 60.257 32.1338C60.2094 32.5111 59.9347 33.3706 59.8583 32.8627C59.782 32.3549 59.8059 32.0641 59.7734 31.715C59.7273 32.0797 59.7151 32.9852 59.5516 32.9645C59.3882 32.9439 59.1499 32.4028 59.0829 33.1353C59.1386 32.6952 59.2053 32.167 58.9759 32.0614C58.9505 32.2626 58.9049 33.4321 58.8075 33.3943C58.7101 33.3564 58.653 32.4933 58.6077 32.347C58.3132 31.5433 58.5044 33.1644 58.3062 33.216C58.1081 33.2676 58.0443 32.7613 57.9784 32.6763C57.9236 32.3766 57.9277 32.069 57.9906 31.7708C57.802 31.747 57.873 32.7013 57.8524 32.8648C57.8317 33.0283 57.5882 32.9336 57.5187 33.1804C57.4492 33.4271 57.4758 33.5199 57.2923 33.1518C57.1089 32.7837 57.0757 32.9455 56.9654 33.1105C56.8551 33.2754 56.6955 33.9323 56.6819 33.5345C56.7057 33.3459 56.7915 32.6669 56.7256 32.5819C56.6597 32.497 56.5334 32.8898 56.5158 33.1303C56.3935 34.0985 56.2789 32.781 56.3482 32.6365C56.2632 32.7024 56.1696 33.3421 55.9968 33.2947C55.8239 33.2473 56.046 32.9049 56.0778 32.6534C56.1096 32.4019 55.643 33.365 55.6256 33.4011C55.6083 33.4372 55.5114 32.9906 55.4267 32.8522C55.1909 32.5382 55.0437 32.1666 55.0005 31.7763C54.9537 31.5405 54.8961 31.0861 54.759 31.3626C54.6218 31.6391 54.4226 32.5082 54.3126 32.4687C54.2026 32.4293 54.0983 32.8504 53.9643 33.1018C53.6145 33.7475 53.6454 31.784 53.2476 33.0112C53.327 32.3825 53.3953 31.8418 53.1043 32.0222C52.8132 32.2026 52.6721 33.1174 52.5495 33.0764C52.427 33.0353 53.05 31.4405 53.0801 31.3038C53.1692 30.6571 53.179 30.0019 53.1094 29.3529C53.184 28.7619 53.6065 29.058 53.6662 29.0911C53.9176 29.225 53.3725 30.1015 53.4302 30.4537C53.407 30.2034 53.4132 29.9512 53.4485 29.7023C53.3636 30.0481 53.3188 30.4025 53.315 30.7586C53.3726 31.213 53.5447 30.6598 53.5986 30.3345C53.6524 30.0091 53.9868 29.1827 53.907 30.1179C53.8657 30.4449 53.7481 31.3754 53.9762 31.2892C54.2042 31.2031 54.1461 29.9438 54.1859 29.6294C54.2256 29.315 54.5178 29.4286 54.6043 29.4523C54.9342 29.5706 55.2429 29.1497 55.043 30.5297C55.2653 30.0851 55.1999 30.8051 55.3602 30.8509C55.5205 30.8967 55.4444 30.1844 55.6047 30.2302C55.7649 30.276 55.4766 31.9515 55.8548 31.2838C56.0436 30.9522 56.1518 30.5807 56.1706 30.1995C56.1192 29.8992 55.9549 30.4916 55.8809 30.5717C55.8069 30.6518 55.7333 30.4253 55.7714 30.1235C55.8096 29.8218 55.8143 29.784 55.6241 29.7728C55.6988 29.1818 56.0936 28.9889 56.019 29.5799C56.195 29.6022 56.3151 29.1574 56.5004 29.3086C56.6857 29.4598 56.8094 29.7948 56.6577 30.3888C56.5589 30.653 56.4859 30.9262 56.4397 31.2044C56.4159 31.393 56.6881 32.3728 56.7137 32.0694C56.7482 31.6086 56.8273 31.1523 56.9497 30.7068C57.0133 30.2038 57.133 29.9634 57.3013 29.9463C57.4695 29.9293 57.563 29.3917 57.6967 29.3448C57.5095 29.4105 57.4205 33.7556 57.7444 30.079C57.8255 29.4377 57.9908 29.2414 58.105 29.6518C58.1438 29.9386 58.167 30.2273 58.1746 30.5166C58.1285 30.8812 58.2114 31.2366 58.2114 31.2366C58.2114 31.2366 58.3114 29.333 58.4449 29.3882C58.3861 29.8534 58.1923 31.3875 58.3934 31.5151C58.5944 31.6427 58.5697 30.1194 58.7194 29.8444C58.8691 29.5695 58.8955 29.8667 58.9583 29.8746C59.0212 29.8826 59.0012 29.5351 59.1255 29.4614C59.2498 29.3877 59.6098 30.5829 59.6098 30.5829C59.6336 30.3943 59.5242 29.9461 59.7147 29.753C59.9051 29.5599 59.853 29.7705 59.8952 29.9419C59.9374 30.1133 60.0758 31.2422 60.1608 31.1763C60.2458 31.1104 60.3038 30.0446 60.4661 29.7713C60.6284 29.498 60.6953 29.9791 60.6744 30.3469C60.6535 30.7148 60.5939 30.5795 60.5541 30.996Z" fill="#007A3D"/>
<path d="M52.8211 31.1305C52.7608 31.6083 52.4957 32.2902 52.3956 31.971C52.3956 31.971 52.3956 31.971 52.4083 31.8704L52.5878 30.4495C52.5258 30.666 52.4975 30.8908 52.5036 31.1159C52.5385 30.8393 53.0145 29.903 52.8211 31.1305Z" fill="#007A3D"/>
<path d="M51.9757 29.529C51.9995 29.3404 51.9769 28.6094 52.09 28.6237C52.2032 28.638 52.1359 29.5748 51.9757 29.529Z" fill="#007A3D"/>
<path d="M51.9109 33.4811C51.9109 33.4811 51.8362 32.9607 51.8016 32.9308C51.7671 32.9008 51.5451 33.1411 51.4037 33.0466C51.2619 32.8966 51.1699 32.7065 51.1403 32.5023C51.1432 32.3031 51.1683 32.1049 51.215 31.9113C51.215 31.9113 50.9483 32.708 50.928 32.5649C50.9645 32.0674 51.0271 31.5721 51.1155 31.0811L51.4075 28.9718C51.5458 28.9892 51.3568 30.4856 51.4733 30.3726C51.5898 30.2595 51.5918 28.7268 51.8118 28.8057C51.5397 30.0488 51.9149 29.3041 51.9078 29.8654C51.9008 30.4266 51.516 31.3489 51.876 31.3305C52.2361 31.3121 51.9713 30.576 52.0111 30.2617C52.1004 29.7337 52.2641 29.221 52.4973 28.739C52.5442 29.4348 52.5159 30.1337 52.4128 30.8234C52.3413 31.3893 52.1761 32.697 52.3945 32.7885C52.1336 32.73 52.0878 32.8903 51.9109 33.4811Z" fill="#007A3D"/>
<path d="M50.3851 33.0201C50.2216 32.9994 49.9952 32.9708 49.9471 32.5432C49.8989 32.1155 50.0694 31.5749 50.0179 31.2746C49.9664 30.9743 49.4768 32.7265 49.3399 32.7986C49.2031 32.8708 49.1136 32.77 49.0399 32.6457C48.9798 32.5772 48.9048 32.5233 48.8206 32.4883C48.7364 32.4533 48.6453 32.4381 48.5544 32.4439C48.328 32.4153 48.0838 32.8316 48.0126 31.9794C48.0237 31.8914 48.3899 29.5998 48.1 30.0742C48.0921 30.137 48.0095 30.7909 47.9872 30.967C47.9424 31.1938 47.8499 31.4085 47.716 31.597C47.3868 32.0792 47.0425 32.074 46.7754 31.9636C46.5083 31.8532 46.3982 31.916 46.375 31.5937C46.3519 31.2714 46.6096 31.355 46.619 31.3818C46.6284 31.4085 46.7286 30.5141 46.7413 30.4135C46.8017 29.9357 46.8874 29.2567 47.0452 28.8167C47.203 28.3767 47.2464 28.8421 47.3333 28.5593C47.4659 28.1161 47.5117 27.9558 47.6545 28.1399C47.7973 28.3241 47.9589 28.5617 47.7849 29.4339C47.7499 29.7106 47.584 30.3156 47.4901 30.0482C47.3961 29.7808 47.3416 30.6171 47.3352 30.6674C47.3288 30.7177 47.3055 31.7112 47.4331 31.5102C47.5607 31.3091 47.5142 30.8689 47.5284 30.7557C47.5899 30.3809 47.7048 30.0168 47.8694 29.6746C47.8694 29.6746 48.5464 28.968 48.3534 28.6754C48.3534 28.6754 48.1471 28.892 48.127 28.6468C48.1069 28.4015 48.8587 28.1132 48.4722 29.1503C48.4166 29.5904 48.442 29.3892 48.5691 29.5969C48.6962 29.8046 48.5453 29.7855 48.5008 30.1376C48.5167 30.0118 48.991 29.1903 49.0414 29.0944C49.2808 28.7159 49.4598 28.9174 49.6421 28.9915C50.1237 28.5158 49.4959 30.1483 49.4244 30.7142C49.4054 30.8651 49.5217 30.8542 49.561 30.8464C49.6003 30.8386 49.623 30.356 49.7095 30.2775C49.7699 29.7997 50.0034 29.1649 50.105 29.5738C50.2067 29.9826 50.1461 30.6648 50.2319 31.0973C50.4331 31.1227 50.2892 31.756 50.4446 31.9417C50.6 32.1274 50.5015 30.582 50.5189 30.4437C50.5409 30.0156 50.6416 29.5952 50.8161 29.2037C51.0696 28.9163 51.0513 29.6678 50.9045 30.1219C50.8727 30.3734 50.6869 30.6309 50.6284 30.8918C50.5699 31.1527 50.6768 31.1151 50.7398 31.0209C51.0762 31.0889 50.6728 32.967 50.3851 33.0201Z" fill="#007A3D"/>
<path d="M45.5314 31.0911C45.5641 30.1243 45.4536 31.7072 45.5314 31.0911V31.0911Z" fill="#007A3D"/>
<path d="M45.9219 30.8336C45.7836 30.8161 45.8457 31.4371 45.7087 31.6115C45.5717 31.7858 45.5061 31.3943 45.5253 31.1412C45.5445 30.8881 45.8431 28.6263 46.0154 29.0824C46.0662 28.68 46.1044 28.3782 45.9707 28.4252C46.0485 27.8091 46.453 28.6522 46.5016 28.7734C46.6992 29.4708 46.6988 30.2095 46.5003 30.9066C46.0861 32.6684 46.2475 30.6831 45.9219 30.8336Z" fill="#007A3D"/>
<path d="M42.3529 30.9706C42.3196 31.2346 42.3164 31.2598 42.1813 31.2171L42.0932 31.206C42.1989 30.9766 42.2886 30.873 42.3529 30.9706Z" fill="#007A3D"/>
<path d="M39.9509 28.5462L40.0049 28.1187C40.0478 27.7792 40.086 27.4774 40.2399 27.5735C40.2221 28.003 40.1167 28.4245 39.9301 28.8118C39.9287 28.7228 39.9356 28.6339 39.9509 28.5462Z" fill="#007A3D"/>
<path d="M40.4675 26.6825C40.3543 26.6682 40.1999 26.8787 40.0806 26.8125C40.0815 26.0972 40.3952 26.6478 40.4675 26.6825Z" fill="#007A3D"/>
<path d="M45.8179 28.6233C45.6293 28.5994 45.3701 29.6398 45.265 29.4605C45.2031 29.2361 45.1551 29.0082 45.1212 28.778C45.1212 28.778 44.9189 28.4586 44.928 28.6897C44.9201 28.4008 44.9565 28.1125 45.036 27.8346C44.913 28.3615 44.7537 28.8792 44.5592 29.3841C44.5488 28.9612 44.6179 27.8074 44.3408 28.079C44.0636 28.4942 43.9293 28.9886 43.9585 29.487C43.9506 29.5499 43.9188 29.8014 43.922 29.7762C43.9252 29.7511 43.7964 29.6582 43.784 29.5544C43.7372 29.2199 43.7542 28.8796 43.834 28.5515C43.9714 28.0706 43.9675 27.4952 43.7929 27.5626C43.6183 27.63 43.4283 28.628 43.2582 28.862C43.0881 29.096 43.0872 28.5977 43.0797 28.354C43.2219 28.1067 43.3286 27.8407 43.3967 27.5637C43.4857 26.8595 43.2859 26.9237 43.1326 27.5303C43.1628 27.2914 43.2073 26.9393 43.1192 27.0304C42.9517 27.305 42.8277 27.6039 42.7517 27.9165C42.4896 28.7777 42.2495 29.6671 42.0094 30.5566C42.1784 29.9264 42.0741 29.134 42.254 28.6201C42.4098 28.3536 42.5317 28.0685 42.6167 27.7717C42.6612 27.4196 42.3697 27.9066 42.3366 27.9663C42.1207 28.3606 41.7622 29.58 41.6102 29.267C41.4581 28.954 42.1999 27.9362 42.3038 27.8216C42.8552 26.8948 42.3203 27.1849 42.1884 27.1172C42.0564 27.0494 42.0194 26.5337 41.8225 26.7771C41.6912 27.0836 41.5789 27.398 41.4864 27.7183C41.4499 28.0076 40.9531 29.2095 40.8148 29.1921C40.6765 29.1746 41.3373 27.5845 41.2854 27.5907C41.2335 27.597 41.112 27.9521 41.1029 27.721C41.0937 27.4899 41.3379 27.0736 41.3823 26.8237C41.5691 25.8508 41.1057 26.7888 40.9683 27.2696C41.1009 26.8265 41.2403 26.0265 40.9202 26.7398C40.5233 27.626 40.1942 28.541 39.9356 29.477C39.8991 29.3096 39.8736 29.1399 39.8593 28.9691C39.8595 28.5454 39.8873 28.1222 39.9427 27.7022C40.4376 26.7171 39.4864 27.9767 39.499 27.9783C39.5116 27.9799 40.0854 26.7748 39.6951 27.1343C39.5644 27.2583 39.6203 26.6139 39.5229 26.576C39.4254 26.5382 39.17 27.1446 39.0867 27.0958C39.1999 27.1101 39.7684 25.1379 39.2599 25.7252C38.9059 26.4282 38.5967 27.1529 38.3342 27.895L38.4534 26.9519C38.4453 26.6248 38.4865 26.2984 38.5757 25.9837C38.5757 25.9837 38.7107 26.1285 38.7895 26.0107C39.0886 25.6652 38.4331 25.5952 38.4347 25.5826C38.4363 25.57 38.1082 25.2347 37.9848 25.8068C37.5737 27.6456 37.6684 24.9748 37.3283 25.3406C37.0705 25.8549 36.8654 26.394 36.7162 26.9496C36.406 27.6062 36.2252 28.3164 36.1837 29.0413C36.2602 29.447 36.347 29.1642 36.549 28.5765C36.6895 28.1726 37.1441 27.9107 37.1381 27.7566C37.0742 28.3139 36.9577 28.8638 36.79 29.399C36.8266 29.1098 37.6847 26.8676 37.569 27.5811C37.3964 28.1629 37.2865 28.7614 37.2413 29.3666C37.277 29.6905 37.5813 30.2144 37.8151 29.3752C37.561 30.0713 37.9466 29.7495 38.1043 29.4117C38.1186 29.2986 38.6731 28.4488 38.5214 29.0428C38.3697 29.6369 38.2542 30.1461 38.5674 29.8918C38.8806 29.6375 38.6773 30.0334 38.8925 30.1501C39.3728 29.4826 39.7992 30.4562 40.1197 30.5478C40.2203 30.5605 40.3964 30.5828 40.5523 30.3598C40.6394 30.1063 40.6942 29.8427 40.7153 29.5755C40.8033 29.5866 40.7221 30.3301 40.7643 30.5015C40.8066 30.6729 41.0787 30.5412 41.2692 30.3481C41.6885 29.4557 41.3949 30.364 41.4087 30.6596C41.4085 30.6844 41.4135 30.7091 41.4235 30.7319C41.4334 30.7547 41.4481 30.7751 41.4664 30.7919C41.4848 30.8086 41.5065 30.8214 41.5301 30.8292C41.5537 30.8371 41.5786 30.8399 41.6034 30.8375C41.704 30.8502 41.6574 30.4099 41.6638 30.3596C41.6701 30.3094 41.7383 31.0845 41.831 31.0579C41.9238 31.0313 42.4468 30.2286 42.7067 29.891C43.1067 29.3539 42.6018 30.7209 42.5589 31.0604C42.3835 31.7409 42.9444 30.8408 42.8966 31.3202C43.1368 30.3286 43.4118 31.5897 43.5176 31.2582C43.5769 30.825 43.7252 30.4088 43.9531 30.0357L44.342 29.5866L43.8497 30.9552C43.7501 31.1399 43.6738 31.3362 43.6226 31.5397C43.6837 31.6624 43.7483 31.5556 43.8052 31.3073C43.8052 31.3073 44.0313 31.5402 44.0944 31.3438C44.2333 30.9526 44.257 30.8661 44.4031 30.9229C44.5493 30.9797 44.4827 31.4056 44.5917 30.9467C44.8524 31.2096 44.6798 30.9579 44.6018 31.6762C44.6304 31.4499 45.2574 31.644 45.1912 30.5498C45.3394 30.1766 45.4321 29.7837 45.4663 29.3837L45.6164 28.8022C45.742 28.9203 45.7594 28.8842 45.8179 28.6233ZM42.8423 29.5249C42.6582 29.6677 42.758 29.0799 42.8355 28.7703C42.884 28.6155 42.9458 28.4651 43.02 28.3209C43.061 28.7435 42.9984 29.1697 42.8376 29.5626L42.8423 29.5249Z" fill="#007A3D"/>
<path d="M35.0558 27.1486C34.9946 27.4161 34.8666 27.6636 34.6838 27.8682C34.566 27.7894 35.1979 26.63 35.0558 27.1486Z" fill="#007A3D"/>
<path d="M35.3384 28.449C35.3923 28.1708 35.4278 27.8894 35.4449 27.6065C35.3685 27.0986 35.2953 27.7793 35.1628 28.1202C35.0303 28.4612 34.5719 29.157 34.6953 28.5849C34.8187 28.0129 35.0567 27.5447 35.2129 27.1173C35.8648 26.3054 35.22 26.4539 35.2168 26.4791C35.3512 26.1943 35.4691 25.9021 35.5701 25.6039L35.5971 25.3901C35.6149 25.075 35.7017 24.7676 35.8514 24.4897C36.086 24.251 35.9721 24.7476 35.8522 25.0902C35.8395 25.1908 35.4544 26.3174 35.7442 25.9452C36.0339 25.573 36.044 25.0889 36.244 24.8203C36.444 24.5517 36.4704 24.8489 36.5173 24.9826C36.5643 25.1163 36.8157 25.2502 36.9617 25.4092C37.1077 25.5682 36.6782 26.9447 36.4449 27.4774C36.2115 28.01 35.3814 29.221 35.3384 28.449Z" fill="#007A3D"/>
<path d="M35.5596 25.3853L35.5326 25.5991C35.4238 25.8536 35.6215 24.8949 35.5596 25.3853Z" fill="#007A3D"/>
<path d="M32.7671 24.6364C32.8116 24.2844 33.2799 23.2065 33.2432 23.5979C33.2065 23.9893 32.8974 24.7168 32.7671 24.6364Z" fill="#007A3D"/>
<path d="M32.0608 24.8667C32.008 24.3745 32.6949 23.286 32.7637 23.5502C32.8325 23.8144 31.994 25.497 32.0608 24.8667Z" fill="#007A3D"/>
<path d="M32.0607 24.8668C32.0203 24.4784 32.0194 25.1937 32.0607 24.8668V24.8668Z" fill="#007A3D"/>
<path d="M24.0148 20.0944C24.1006 19.4153 24.7049 18.9807 24.4225 19.6987C24.2537 20.1245 23.9104 20.6177 24.0148 20.0944Z" fill="#007A3D"/>
<path d="M18.59 21.274L18.5146 21.2645C18.5498 20.7835 19.1194 20.4211 18.59 21.274Z" fill="#007A3D"/>
<path d="M34.2459 28.5027C34.2697 28.3141 34.1293 27.5043 33.927 28.2964C33.8555 28.8622 33.5242 28.5521 33.441 28.5032C33.3577 28.4544 32.8581 28.2635 32.7061 27.8483C32.5542 27.4331 32.0771 27.9732 31.8511 27.7403C31.625 27.5073 32.2021 26.175 31.6728 27.0279C31.4331 27.6108 31.1889 26.8135 31.1321 26.9596C30.949 27.4986 30.4405 26.8722 30.2896 26.8531C30.1387 26.8341 29.8336 26.9233 29.5854 26.7642C29.7542 26.6571 29.8759 26.4898 29.9256 26.2962C29.9558 26.0572 29.6916 26.1261 29.6335 26.0804C29.5754 26.0347 29.7455 25.8007 29.6151 25.7204C29.4847 25.64 29.3398 25.8772 29.2152 26.1553L29.3801 26.2656C28.9881 26.7398 28.8687 26.6736 28.7543 26.3654C28.64 26.0571 28.4302 26.6055 28.2794 26.4842C28.1286 26.363 28.26 25.728 28.2164 25.3648C28.1729 25.0016 27.7694 25.7682 27.5821 25.9362C27.0832 26.3459 27.1569 25.3587 26.7795 25.4132C26.4021 25.4678 26.5388 25.4978 26.8319 24.9983C27.125 24.4987 26.4547 24.9506 26.3792 24.9411C26.1059 24.7788 26.2508 24.5416 25.753 25.3474C25.5923 25.6082 25.6609 24.8631 25.6894 24.7389C25.8662 24.1481 26.0802 23.9707 25.8085 23.7959C25.508 23.9495 25.7664 23.5223 25.9995 23.194C26.3397 22.6284 26.6092 22.0232 26.8021 21.3919C26.6623 21.2848 26.0946 22.6439 26.0031 22.8623C25.812 23.2232 25.6768 23.611 25.6023 24.0125C25.3831 24.5342 24.8663 25.3887 25.1679 24.4176C24.9271 24.6043 24.8135 24.8966 24.6628 24.7753C24.7032 24.6686 24.6996 24.5503 24.6529 24.4462C24.6062 24.3421 24.5201 24.2608 24.4135 24.2201C24.1873 24.0893 23.8977 24.3593 23.8276 23.9033C23.7997 23.7032 23.8254 23.4992 23.9022 23.3123C23.6548 23.7537 23.332 24.1856 23.1386 24.1995C22.9452 24.2134 23.8353 22.8312 23.9204 22.6631C23.602 23.2616 23.2113 23.9276 22.9693 23.8204C22.7274 23.7132 22.4286 23.7521 22.6558 23.1676C22.4526 23.4613 22.2355 23.5616 22.0972 23.5442C21.9589 23.5267 22.044 23.3586 22.1671 22.9909C22.1671 22.9909 21.6949 23.3911 21.6462 23.3722C21.5975 23.3533 21.8423 22.5283 21.8944 22.3177C21.9466 22.1071 22.0776 21.6765 22.1829 21.7537C22.2881 21.8309 22.4582 21.5968 22.5163 21.6425C22.3655 21.5213 22.2194 21.4645 21.9015 21.7565C21.5835 22.0485 21.5373 22.5153 21.3327 22.7194C21.128 22.9235 21.4296 21.9524 21.4455 21.8266C21.4614 21.7009 21.0144 22.1043 20.9278 22.1828C20.4698 22.5721 20.1099 22.4883 20.5229 21.6462C20.542 21.4953 19.9696 21.5763 19.8543 21.9833C19.8813 21.7695 20.168 21.3203 20.077 21.2321C19.9859 21.144 19.7057 21.4407 19.5295 21.5207C19.3533 21.6006 19.9346 20.7415 20.048 20.5514C19.9015 20.8012 19.7681 20.6438 19.5254 21.0475C19.5095 21.1732 19.0386 21.8675 18.9743 21.7699C18.9626 21.6549 18.9772 21.5388 19.0171 21.4304L18.868 21.2966C18.86 21.3594 18.868 21.2966 18.8823 21.1834C19.0095 20.677 19.1915 20.186 19.425 19.7189C19.5795 19.4063 19.896 19.0247 19.7813 18.9208C19.5371 19.3371 19.2756 19.7895 19.0078 20.19C18.74 20.5905 18.8268 20.3077 18.671 20.4285C18.5152 20.5494 18.3244 21.049 18.197 21.0457C18.0697 21.0424 17.9707 21.0171 18.0574 20.8365C18.1441 20.6558 18.6352 20.2068 18.7063 19.9475C18.7773 19.6882 18.4925 19.9205 18.3571 20.0823C17.8407 20.6302 17.9049 20.83 17.6301 20.5781C17.3554 20.3262 17.9901 19.4482 18.612 18.6709C18.9877 18.2057 19.3313 17.7156 19.6405 17.2039C20.2833 16.1609 19.5722 17.7446 19.5706 17.7572C19.569 17.7698 20.0936 16.9546 20.1425 16.8713C20.1913 16.7881 19.8808 17.4259 19.8915 17.6444C19.9022 17.863 20.141 17.9953 20.2066 18.2847C20.2723 18.574 20.2184 18.8994 20.5115 18.3998C20.6233 18.2223 20.992 17.6302 20.9103 17.5687C21.083 17.7183 21.3706 17.7674 21.4158 18.1181C21.2482 18.6808 20.9825 19.2095 20.6308 19.6797C20.8766 19.2508 20.8667 19.6328 20.9075 19.7146C20.9482 19.7964 21.3013 19.1256 21.3013 19.1256C21.4793 18.8287 22.3172 17.6571 22.0504 18.4537C21.8418 18.8824 21.5723 19.2787 21.2503 19.6302C21.0487 19.9113 21.1534 20.3972 21.2873 20.1459C21.2873 20.1459 21.4846 19.5959 21.5883 19.5835C21.6921 19.571 21.5375 19.9858 21.8255 19.7284C21.9967 19.5554 22.142 19.3586 22.257 19.1442C22.0144 19.5479 20.6501 21.7517 21.3093 21.3878C21.4745 21.2937 22.7418 18.7455 22.7794 18.8524C22.8169 18.9594 22.2148 20.1864 22.1531 20.4724C22.3802 20.1136 22.6493 19.783 22.9546 19.4878C23.3731 19.2085 22.3718 20.3595 22.4695 20.193C22.3245 20.4302 22.5587 20.4981 22.5066 20.6065C22.2955 20.9631 22.4717 20.8831 22.5266 20.954C22.6935 20.7451 23.3914 19.6707 23.0374 19.8432C23.2455 19.4096 23.8752 18.7737 23.6874 19.3504C23.3932 19.8956 23.1382 20.4611 22.9242 21.0425L23.2442 20.4314C23.4112 20.1204 23.5924 19.7983 23.6663 19.8204C23.7402 19.8425 23.2765 20.9848 23.0622 21.3665C23.1894 21.472 23.3347 20.9283 23.495 20.9741C23.5546 21.002 23.6204 21.014 23.686 21.0088C23.7516 21.0037 23.8147 20.9816 23.8692 20.9447C24.1246 20.8132 24.3485 20.6279 24.5255 20.4017C24.6924 20.1928 24.8169 19.9147 24.9174 20.0296C25.0178 20.1445 24.9484 20.3912 25.1215 20.2342C25.2946 20.0772 25.2491 20.0332 25.2679 20.0866C25.2867 20.1401 25.2941 20.486 25.3158 20.7187C25.3375 20.9514 25.2975 21.4701 25.4864 21.2896C25.6013 21.0781 25.7055 20.8611 25.7985 20.6391C25.6921 21.0572 25.5549 21.4669 25.3882 21.8648C25.6227 21.6262 25.4599 22.3082 25.5764 22.1952C25.8561 21.7947 26.0942 21.3668 26.2871 20.918C26.1797 21.1123 26.1055 21.3231 26.0677 21.5419C26.1249 21.0892 26.7601 21.0161 26.8104 21.0225C26.8607 21.0288 27.4427 20.7702 26.9608 21.4503C26.5163 22.3395 26.9131 21.8275 26.651 22.6887C26.6367 22.8018 26.4772 23.3566 26.5907 23.1665C26.7041 22.9764 26.7359 22.7249 26.8178 22.582C27.0289 22.2254 26.8926 23.1024 27.1573 22.6249C27.422 22.1473 27.4365 21.932 27.578 21.9243C27.7195 21.9166 27.8365 21.3948 27.9982 21.5303C28.16 21.6657 27.9474 21.9326 28.2322 21.7003C28.0495 22.3295 27.8098 22.9406 27.5161 23.5261C27.2408 23.683 26.7236 24.8441 27.1644 24.3887C27.8495 23.415 27.0237 24.9969 27.2784 25.0036C27.533 25.0102 27.5743 24.6833 27.6863 24.4036C27.7983 24.1239 27.575 24.1723 27.6712 23.9162C27.7675 23.6601 28.637 22.3391 28.5899 22.3076C28.5428 22.2761 28.167 23.5317 28.4834 23.1501C28.5949 22.9686 28.7276 22.8009 28.8787 22.6507C28.7037 23.0246 28.9926 23.2656 29.1124 23.0252C29.2322 22.7848 29.4799 22.139 29.6513 22.0968C29.4416 22.543 29.7406 22.2997 29.5925 22.5621C29.5033 22.783 29.3952 22.9959 29.2694 23.1983C29.2045 23.2167 29.1465 23.2538 29.1026 23.305C28.9371 23.8929 28.8186 24.4931 28.7481 25.0998C28.8957 24.7304 29.0901 24.3814 29.3264 24.0615C29.4914 24.1717 29.6619 23.6312 29.7515 23.6297C29.8411 23.6282 29.1154 25.5295 29.5036 25.5913C29.3215 25.415 30.045 23.9351 30.283 23.4669C30.521 22.9987 30.5143 23.3556 30.3329 23.7798C30.5127 23.3682 31.1812 21.9196 30.8968 22.9568C30.3743 24.5643 31.103 22.7401 31.1181 23.2275C31.1332 23.7148 30.7536 24.2929 30.5777 24.1684C30.4018 24.044 30.1044 25.3862 30.0507 25.6093C30.2947 25.3054 30.5223 24.9888 30.7326 24.6607C30.9264 24.3402 31.0543 23.9348 31.2497 23.6018C31.4451 23.2688 31.6228 23.1763 31.6969 22.994L31.2444 24.0483L31.7344 23.2031C31.936 22.922 31.8788 23.3747 31.8376 23.5994C31.8599 23.4234 32.4653 23.2827 32.4701 23.245C32.3151 23.9664 31.7623 24.7014 31.5508 25.3645C31.5222 25.5908 31.6196 25.6287 31.6841 25.6241C31.7485 25.6194 31.8433 25.2737 31.9189 25.181C32.2621 24.79 31.896 25.868 31.8895 26.0205C31.883 26.173 32.0903 26.3525 32.1281 26.255C32.1382 25.874 32.1861 25.4949 32.2711 25.1233C32.2949 24.9347 32.9566 23.843 32.9488 23.8037C32.9234 24.0049 32.4655 25.5056 32.3709 25.7492C32.2762 25.9927 32.6206 25.8957 32.7547 25.5421C32.8888 25.1886 33.4281 23.9537 33.5614 24.2132C33.6947 24.4728 33.6159 24.5906 33.7685 24.4949C33.9211 24.3992 33.8932 24.1146 33.9341 24.0943C33.975 24.0739 33.8698 25.2103 33.8884 25.366C33.9071 25.5217 34.3354 24.9626 34.4346 24.8857C34.5337 24.8088 34.8896 24.3172 34.6544 25.0667C34.4871 25.5822 34.2003 26.1336 34.4075 26.3131C34.6379 25.7034 35.1116 24.0769 35.2098 24.7153C35.4109 24.8429 34.503 26.67 34.5118 27.1055C34.8147 26.5292 35.0699 25.9291 35.2751 25.3112C35.1243 26.0642 34.928 26.8073 34.6873 27.5365C34.6319 27.8744 34.3519 29.1804 34.2459 28.5027Z" fill="#007A3D"/>
<path d="M15.7323 14.8705C15.7561 14.6819 16.1185 14.0378 16.2473 14.1307C16.3761 14.2236 15.8218 14.9712 15.7323 14.8705Z" fill="#007A3D"/>
<path d="M12.3526 16.9473C12.25 17.2537 12.4002 16.5701 12.3526 16.9473V16.9473Z" fill="#007A3D"/>
<path d="M19.1075 17.3792C18.9668 17.8165 18.742 18.2221 18.4456 18.5731C18.4456 18.5731 18.2356 18.1122 18.054 18.7408C18.0254 18.9672 18.2174 18.7615 18.0771 19.0631C17.8589 19.527 17.5222 19.9251 17.1009 20.2173C17.0342 20.2547 16.9583 20.2725 16.882 20.2686C16.8056 20.2647 16.7319 20.2393 16.6694 20.1954C16.6068 20.1514 16.558 20.0907 16.5285 20.0201C16.4989 19.9496 16.4899 19.8722 16.5025 19.7968C16.5279 19.5956 17.1787 18.4897 16.6971 18.8632C16.5272 18.995 16.3317 19.4303 16.1428 19.6108C15.9539 19.7913 15.8536 19.5743 15.7986 19.5034C15.7437 19.4326 15.8574 19.0382 15.886 18.8118C15.9146 18.5855 15.6848 18.7864 15.5088 18.7642C15.3327 18.7419 14.4176 18.9074 14.9184 18.1786C14.9956 18.0734 15.5816 17.1765 15.2952 17.4214C15.0456 17.6924 14.8131 17.9788 14.5992 18.2788C14.733 18.1296 14.9336 17.4523 14.3652 18.1087C14.0975 18.407 14.4033 17.8069 14.4097 17.7566C14.416 17.7063 13.8983 18.0625 13.7207 18.0528C13.5431 18.0432 13.9808 17.5108 13.7795 17.5876C13.5781 17.6643 13.2351 17.9531 13.0875 17.8068C12.9399 17.6604 13.1542 17.2786 13.1558 17.2661C13.1574 17.2535 12.7674 17.3064 12.6402 17.2009C12.513 17.0954 12.2298 17.3151 12.3561 16.9223C12.3684 16.7794 12.412 16.641 12.4839 16.5169C12.4839 16.5169 12.4585 16.7181 12.663 16.6161C12.8901 16.4346 13.1066 16.2401 13.3115 16.0338C13.7608 15.6503 14.1807 15.2336 14.5676 14.7872C14.7468 14.5193 14.9755 14.288 15.2414 14.1058C15.4207 14.0007 14.9733 14.7107 14.9213 14.8191C14.6879 15.3517 15.2926 14.6105 15.3112 14.7662C15.2656 14.9248 15.186 15.0717 15.078 15.1966C15.2763 15.0428 15.6195 14.6518 15.7562 14.6819C15.893 14.7119 14.9681 16.2686 14.9285 16.4808C14.8332 17.2352 15.3789 15.95 15.4354 16.0083C15.4919 16.0665 15.2004 16.5535 15.2364 16.673C15.2724 16.7925 15.4583 16.5349 15.5779 16.3967L16.3715 15.475C16.2215 15.8763 16.1011 16.2881 16.0114 16.707C16.4363 16.3774 16.576 15.3731 16.779 15.1815C16.9821 14.99 16.7083 16.3479 17.3021 15.4904L16.5508 16.5835C16.6999 16.7174 17.1587 15.715 17.1754 16.1898C17.1789 16.3243 17.1556 16.4582 17.1069 16.5836C17.0582 16.7091 16.9849 16.8236 16.8915 16.9204C16.8708 17.0839 17.0846 17.1109 17.1411 17.1691C16.926 16.9503 17.649 15.8791 17.5333 16.5927C17.5079 16.7939 17.8465 16.3384 17.9219 16.348C17.9974 16.3575 18.0189 16.6924 18.132 16.8088C18.245 16.9253 18.9628 16.1984 18.5972 16.8676C18.4806 17.0828 18.0539 17.6294 18.027 17.7409C18.0001 17.8525 18.3588 17.6423 18.2075 17.9298C18.198 18.0053 18.0061 18.1088 17.9635 18.2439C17.9208 18.3791 18.8731 17.5157 19.0007 17.3146C18.897 17.2249 18.3006 17.6989 18.8724 16.813C19.0341 16.8024 19.1963 16.8229 19.3502 16.8733C19.4303 16.9473 19.4426 17.1533 19.6821 16.7747C19.745 16.7827 19.7827 16.7874 19.7273 17.0232C19.6152 17.405 19.1576 17.4878 19.1075 17.3792Z" fill="#007A3D"/>
<path d="M9.38399 10.4148C9.18875 10.6456 9.39194 10.3519 9.38399 10.4148V10.4148Z" fill="#007A3D"/>
<path d="M14.3943 13.9348C14.2812 13.9205 13.4931 14.2936 13.6862 14.4841C14.1346 14.1702 13.046 15.9107 13.4507 15.438C13.69 15.1616 13.9813 14.7769 14.0944 14.8933C14.2074 15.0098 14.1948 15.0082 14.0578 15.1825C13.5019 15.9427 13.1658 15.6703 12.7677 15.9905C12.3695 16.3106 12.0684 16.9752 11.9003 16.8901C11.8378 16.8594 11.7827 16.8155 11.7388 16.7614C11.6949 16.7074 11.6632 16.6444 11.646 16.5769C11.5865 16.4417 11.7255 15.9482 11.4501 16.1051C11.1748 16.2619 11.2 16.2651 11.353 15.8628C11.353 15.8628 11.2229 15.5781 11.1392 15.8358C11.1488 15.7604 11.4167 15.2577 11.4308 15.2467C11.445 15.2357 11.0054 15.985 10.834 16.0272C10.6626 16.0694 10.8832 15.6374 10.8928 15.562C10.9023 15.4865 11.331 14.6209 11.3636 14.9699C11.762 14.4454 11.2348 14.877 11.4113 14.5927C11.5877 14.3084 12.126 13.7887 12.115 13.7746C12.1041 13.7604 11.2822 14.7041 11.0382 14.916C10.8286 15.0875 10.6 15.2343 10.357 15.3537C10.0845 15.3767 9.81086 15.3805 9.5379 15.3652C9.5379 15.3652 10.1582 14.7026 10.2527 14.5613C10.1193 14.4039 9.67663 15.0762 9.52573 15.0571C9.37484 15.038 9.47597 14.642 9.61787 14.3278C9.75977 14.0136 9.65441 14.0386 9.38663 14.4391C9.11885 14.8396 9.0454 14.511 9.0094 14.3914C8.9734 14.2719 8.71092 14.226 8.85904 13.9636C9.00716 13.7013 9.32842 13.282 9.05932 13.4907C8.3464 14.0777 8.32297 13.9598 9.10857 13.1009C8.99712 12.9718 8.62212 13.6143 8.46792 13.7226C8.40041 13.6502 7.96149 13.8886 7.95064 13.7722C7.93979 13.6559 9.01486 12.6292 8.40612 12.8972C8.08527 13.0099 7.85985 13.4797 7.69188 13.2924C7.52392 13.1051 8.01804 12.7332 8.07509 12.3827C8.22566 12.0827 8.41125 11.8017 8.62799 11.5455C8.79829 11.56 8.96925 11.5264 9.12138 11.4485C9.27352 11.3706 9.40072 11.2515 9.48849 11.1049C9.73893 10.7405 9.15243 10.8325 9.57745 10.4007C9.51154 10.3157 9.94451 9.8211 10.2137 9.51019C10.0691 9.68554 9.94248 9.87498 9.8357 10.0756C9.99653 9.7127 10.5359 9.58921 10.5751 9.68359C10.5888 10.05 10.5076 10.4138 10.3395 10.7397C10.1928 11.0917 9.63063 11.7999 10.1152 11.5034C10.5998 11.207 10.5351 11.416 10.2138 11.8353C10.4625 11.5856 10.7929 11.3974 10.8636 11.4447C10.7504 11.4304 10.9494 10.7657 11.1285 10.8649C11.3076 10.9642 11.4917 10.8214 11.5686 10.9205C11.6455 11.0197 10.3732 12.5964 10.8829 12.3031C11.3926 12.0098 12.1555 10.522 12.1781 11.2531C12.1495 11.4794 11.7701 11.853 11.5135 12.1655C11.2568 12.478 11.3148 12.6259 10.9889 12.9808C11.091 13.0831 11.6627 12.2994 11.8012 12.1125C11.9928 11.7948 12.2229 11.5021 12.4862 11.2409C12.6767 11.0478 12.5584 11.3777 12.4513 11.5175C12.16 11.9023 11.5368 12.3857 11.5488 12.796C11.5298 12.9469 11.7374 12.8198 11.9309 12.7037C11.8525 12.6172 12.3064 11.7547 12.4572 11.7738C12.6081 11.7928 12.4112 12.1384 12.5404 11.9248C12.6696 11.7112 12.7087 11.8055 12.7919 11.9566C12.875 12.1076 13.0563 11.6834 13.1741 11.7621C13.2919 11.8409 13.4981 12.8379 13.2542 13.0498C13.3517 12.9854 13.4715 12.7451 13.5832 12.6698C13.695 12.5944 13.797 12.6968 13.8473 12.7031C13.8976 12.7095 14.2608 12.6659 14.3172 12.8264C14.3736 12.9868 13.8444 13.7375 14.0899 13.5131C14.3354 13.2886 14.754 13.0093 14.4579 13.4318C14.8294 13.0188 14.9308 13.6321 15.1495 13.5192C15.3681 13.4063 14.755 14.6191 14.4466 14.8356C14.5915 14.5984 14.4572 13.9427 14.3943 13.9348Z" fill="#007A3D"/>
<path d="M7.77886 9.26653L7.72552 9.18314C7.89548 9.05131 8.02917 9.00433 8.04002 9.12068C8.05087 9.23702 7.83379 9.33735 7.77886 9.26653Z" fill="#007A3D"/>
<path d="M7.47172 8.35913L7.4168 8.28832C8.29213 7.32579 7.61295 8.55583 7.47172 8.35913Z" fill="#007A3D"/>
<path d="M6.96893 13.048C6.79289 13.0258 6.6641 12.9328 6.64081 12.7127C6.61752 12.4926 6.79569 12.0935 6.48238 12.45C6.62732 12.2128 6.55387 11.8841 6.4358 12.0097C6.31773 12.1353 6.31746 12.3397 6.39449 12.3367C6.09098 12.4133 5.92792 12.0861 5.77875 11.9523C5.62958 11.8185 5.21317 11.6764 5.68876 11.0466C5.76752 10.9288 5.38829 11.2003 5.29378 11.3417C5.64377 10.5938 4.70133 11.1774 4.62933 10.9384C5.08526 10.2131 5.59929 9.52614 6.16637 8.88411C6.21186 8.82842 6.25343 8.76964 6.2908 8.7082C6.50746 8.36363 6.76205 8.04442 7.04979 7.75653C7.1157 7.84151 6.74256 8.26705 6.70775 8.4415C6.67293 8.61596 7.09319 8.22192 7.28989 8.08069C7.48658 7.93947 7.03587 8.77678 6.99801 8.8742C6.96015 8.97162 7.13302 9.01901 7.1297 9.14634C7.12639 9.27368 6.18328 10.3682 6.62393 10.015C6.79388 9.8832 7.60939 8.98977 7.53726 8.8529C8.13582 7.95761 8.47573 7.69395 8.55064 8.11222C8.53952 8.20024 8.86896 8.72732 8.71462 8.93777C8.35882 9.32718 8.33739 8.89012 8.21164 8.87423C8.0859 8.85834 7.77127 9.02299 7.56478 9.44404C7.35828 9.86508 6.88839 9.74184 6.73392 10.0545C6.71803 10.1802 7.12863 9.96382 7.15537 9.95442C7.1821 9.94502 7.21638 10.1793 7.29183 10.1888C7.36727 10.1984 7.71381 9.68004 7.84419 9.76039C7.97456 9.84074 7.814 9.9993 7.94928 9.93974C8.08456 9.88018 9.06181 9.12216 9.06485 9.1992C9.06789 9.27623 8.65544 9.70958 8.62235 9.76928C8.44272 10.0787 8.57787 10.1214 8.33378 10.4355C8.09721 10.7709 7.87846 11.1185 7.67843 11.4769C7.65142 11.6906 8.12053 11.2133 8.10478 11.2369C8.08903 11.2605 7.48292 11.9121 7.37584 12.0518C7.26875 12.1916 7.11904 12.4665 6.95372 12.6628C7.27367 12.2474 7.6344 11.865 8.03052 11.5213C8.03052 11.5213 8.61093 11.2753 8.594 11.0049C8.57706 10.7345 8.35336 11.0895 8.40869 10.8537C8.49149 10.6001 8.60366 10.357 8.74292 10.1294C8.75563 10.0288 9.60291 8.88392 9.66883 8.9689C9.43554 9.38035 9.1723 9.77408 8.88124 10.1469C9.06377 10.0167 9.90734 9.30564 9.96068 9.38903C10.014 9.47242 9.22843 10.3313 9.11036 10.4569C8.99228 10.5825 8.64416 11.1134 8.62668 11.2517C8.29921 11.6192 7.23445 13.171 6.96893 13.048Z" fill="#007A3D"/>
<path d="M6.25284 8.70324L6.12842 8.87915C6.12842 8.87915 6.41817 8.50695 6.25284 8.70324Z" fill="#007A3D"/>
<path d="M5.47203 9.62665C5.14509 9.58535 5.11967 9.78654 4.57499 10.3565C4.22078 10.7333 4.19444 10.4362 4.13488 10.3009C4.07532 10.1656 3.53834 9.66341 4.4686 8.7717C4.33677 8.60174 4.03881 9.24118 3.78242 9.34932C3.65059 9.17936 4.45816 8.3488 4.76035 8.08038C5.06254 7.81195 5.63038 7.56431 5.0117 8.21433C5.21793 7.99766 6.95853 6.55679 6.77414 6.90398C6.16962 7.54301 4.89296 8.85086 5.2085 9.18456C5.38447 8.99748 5.55005 8.8009 5.70448 8.59569C6.03556 8.15201 6.392 7.72784 6.77201 7.32529C7.38593 6.71299 6.19701 8.23633 5.79885 8.55651C6.07258 8.41224 6.68623 8.00431 6.35875 8.37174C6.09874 8.6233 5.88074 8.91493 5.71307 9.23553C5.71307 9.23553 5.56005 9.63777 5.47203 9.62665Z" fill="#007A3D"/>
<path d="M5.89948 6.24412C6.33536 5.92871 6.11324 6.27113 5.85182 6.62136L5.72766 6.59289C5.7766 6.47271 5.83401 6.35616 5.89948 6.24412Z" fill="#007A3D"/>
<path d="M95.9151 51.0235C96.3503 51.2191 96.1758 51.2864 95.8096 51.1507L95.9151 51.0235Z" fill="#007A3D"/>
<path d="M95.9151 50.9214L96.0031 50.9325C96.5815 51.0056 96.8341 51.4335 95.7768 50.9039C95.7784 50.8913 95.8287 50.8977 95.9151 50.9214Z" fill="#007A3D"/>
<path d="M98.1024 39.9811C97.9371 40.1774 99.5794 40.5254 98.1024 39.9811V39.9811Z" fill="#007A3D"/>
<path d="M99.6901 37.6266C99.6901 37.6266 99.698 37.5637 99.7876 37.5622C99.8507 37.5746 99.9099 37.6017 99.9604 37.6414C100.011 37.6811 100.051 37.7322 100.078 37.7906C99.9375 37.7679 99.8044 37.7116 99.6901 37.6266Z" fill="#007A3D"/>
<path d="M92.4172 49.7897C92.1235 49.5865 92.3231 49.6245 92.6091 49.6862C92.8952 49.7479 92.5337 49.6766 92.4568 49.5775C92.3799 49.4783 93.8725 50.1013 93.5269 49.9043C93.0714 49.6674 92.6036 49.4548 92.1255 49.2674C91.7626 49.1065 91.2646 48.8009 91.6984 48.9068C92.0422 49.0973 92.3956 49.2698 92.7572 49.4238C92.8596 49.3218 91.9796 49.0062 92.0504 48.9513C92.1213 48.8963 92.3648 48.991 92.6397 49.1407C92.6508 49.0527 91.9202 48.7687 91.9329 48.6681C91.9456 48.5676 91.9329 48.6681 91.8137 48.4998C91.6944 48.3314 92.026 48.4372 92.4172 48.576C92.8085 48.7149 92.953 48.7843 93.0129 48.7152L91.9444 48.2736C91.4589 48.0717 92.133 48.2974 92.2588 48.3133C92.3845 48.3292 92.3501 48.1971 92.4068 48.1531C92.5679 48.1542 92.7283 48.1745 92.8846 48.2135C92.8941 48.1381 91.0826 47.3088 92.3947 47.7428C92.7828 47.9068 92.5456 47.7619 92.4059 47.6548C92.1231 47.4658 92.3275 47.466 92.5538 47.4946C93.0065 47.5518 92.5697 47.3689 92.2714 47.1012C91.973 46.8336 93.0384 47.1981 93.505 47.4487C93.2866 47.3573 93.2333 47.2739 92.8687 47.1256C92.7446 47.0771 92.6281 47.0108 92.5231 46.9286C92.2955 46.7083 92.5613 46.6269 92.5049 46.4664C92.4485 46.306 92.3105 46.0842 92.5573 46.0515C92.9454 46.1555 93.3211 46.3015 93.6776 46.4868C93.4513 46.4582 93.552 46.3688 93.3368 46.2522L92.889 46.0551C92.7256 46.0344 92.9033 45.9419 92.9065 45.9167C92.9097 45.8916 93.158 45.9485 93.1706 45.9501C93.1831 45.9517 93.0357 45.7031 93.2071 45.6609C93.3785 45.6187 94.2034 45.9656 93.9741 45.7578C93.7449 45.55 92.9375 45.0647 93.2708 45.0557C93.6041 45.0467 94.5107 45.3529 93.4769 44.9412C93.6292 44.946 93.7808 44.9652 93.9295 44.9984C92.5218 44.4118 93.2372 44.3105 93.3867 44.1378C93.4066 44.0808 93.4385 44.0288 93.4803 43.9853C93.5222 43.9418 93.5729 43.9078 93.6291 43.8858C93.6853 43.8638 93.7456 43.8542 93.8058 43.8576C93.8661 43.8611 93.9249 43.8776 93.9781 43.9059C93.9781 43.9059 93.8903 43.7926 93.8731 43.7266C93.8559 43.6605 93.8969 43.5379 93.9819 43.472C94.0668 43.4061 93.8942 43.1543 94.0375 43.0319C94.1807 42.9095 94.0565 42.881 94.4147 43.0796C94.7729 43.2781 94.8421 43.2358 94.8925 43.1399C94.943 43.0441 94.822 42.9905 94.569 42.8691C94.3161 42.7477 94.7452 42.7892 94.5945 42.6679C94.4437 42.5467 93.963 42.3071 94.461 42.5105C94.667 42.581 94.8853 42.6086 95.1023 42.5916L94.345 42.317C94.1313 42.1878 94.9157 42.2486 94.9943 42.233C95.073 42.2174 94.916 42.0442 94.8642 41.9483C94.8125 41.8523 94.4057 41.5327 94.995 41.7221L95.9662 42.0236C95.7164 41.8771 95.2356 41.6375 95.0472 41.5115C94.8587 41.3855 95.979 41.8208 96.1141 41.8635C96.2493 41.9061 94.9059 41.3148 94.62 41.1509C94.3341 40.987 94.9235 41.0743 94.9676 41.0288C95.0117 40.9832 94.792 40.7 95.1329 40.8325L95.4222 40.869C95.5414 40.8559 95.662 40.8711 95.7742 40.9135L96.4861 41.1439C96.4861 41.1439 94.9934 40.521 94.8333 40.373C94.6731 40.225 94.9547 40.1201 95.0303 40.0274C95.1058 39.9348 94.8062 39.4753 95.7144 39.7689C95.1221 39.5025 95.6222 39.3868 95.6082 39.2956C95.5941 39.2044 95.2391 38.9807 95.4701 39.0738C95.7888 39.1731 96.0976 39.3019 96.3924 39.4586C97.2033 39.7143 95.4532 38.8033 95.6198 38.7989C95.7865 38.7944 97.4913 39.4569 97.3122 39.3576C97.1331 39.2583 95.0008 38.5418 95.6736 38.5757C96.0508 38.6233 95.7792 38.3463 96.3654 38.4587C96.5666 38.4841 97.0681 38.458 96.8577 38.3037C96.2951 38.1049 95.857 37.7302 96.5421 37.97C95.0148 37.4194 95.9095 37.3152 97.2372 37.8279L96.1955 37.3769C95.787 37.172 95.9694 37.1439 96.0277 37.0874C96.0859 37.0309 95.8851 36.6989 96.479 36.9528C96.1947 36.7764 96.1823 36.6726 96.2437 36.5909C96.3051 36.5093 96.5912 36.5709 97.3391 36.8187C97.3502 36.7307 96.4939 36.4309 96.307 36.2923C96.6008 36.3933 96.912 36.4582 96.9483 36.3733C95.8436 36.0166 96.2115 35.9353 96.3029 35.8191C96.8847 35.8884 97.4595 36.0081 98.0207 36.1767C98.4231 36.2275 98.9038 36.4671 99.2511 36.5493C99.5984 36.6315 99.1852 36.4643 99.0516 36.4091C98.5378 36.2292 97.9689 36.0807 97.4645 35.9275C97.1817 35.8553 96.9026 35.7689 96.6285 35.6686C96.6285 35.6686 96.8297 35.694 96.8141 35.6154C96.7248 35.6189 96.6356 35.6076 96.55 35.5821C96.55 35.5821 96.5659 35.4563 96.7623 35.5195C96.9587 35.5826 98.7296 36.2279 98.6825 36.1964C98.6354 36.1649 97.0658 35.4428 98.2303 35.7305C98.5885 35.929 99.2596 36.0777 99.6806 36.2842C100.102 36.4907 98.7627 36.1682 99.2293 36.4188C99.5838 36.5226 99.9304 36.6518 100.266 36.8053C100.67 36.9457 100.175 36.9215 100.145 36.9561C99.6068 36.8946 99.078 36.7677 98.5704 36.5783C98.295 36.4747 98.0058 36.4124 97.7123 36.3932C97.7123 36.3932 97.5345 36.4857 97.7796 36.5678C98.0368 36.6195 98.2973 36.6524 98.5593 36.6663C98.9235 36.7456 99.2816 36.8507 99.631 36.9805C98.9459 36.7407 99.1657 36.9218 98.7508 36.8693C98.7397 36.9574 98.9267 36.9938 99.1152 37.1198C99.3036 37.2458 99.0961 37.2707 99.0882 37.3335C99.0802 37.3964 99.3898 37.4739 99.6066 37.5779C99.8234 37.6819 99.8468 37.7999 99.9112 37.8974C99.9755 37.995 100.253 38.3239 99.8778 38.1615C99.1723 37.8807 98.9099 37.8348 99.0102 38.0519C99.1105 38.2689 99.9544 38.465 99.3808 38.3542C98.8071 38.2434 99.8127 38.677 99.3538 38.568L98.312 38.2192L97.4556 37.9193C97.8488 38.1124 98.2546 38.2789 98.6701 38.4177C99.0441 38.5927 98.9449 38.6696 99.421 38.8447C99.421 38.8447 99.7102 38.8813 99.7023 38.9441C99.6943 39.007 99.4382 38.9108 99.3753 38.9028C99.0076 38.7797 98.9981 38.8552 98.9886 38.9306C98.9791 39.0061 98.1465 38.5176 98.2422 38.6703C98.3379 38.8229 99.4583 39.1561 99.683 39.2994C99.9076 39.4428 99.304 39.3665 98.8279 39.1914C98.3518 39.0163 98.4758 39.1469 98.4255 39.1405C98.3752 39.1342 98.628 39.3578 98.4096 39.2663C98.1912 39.1748 97.7325 38.9636 98.0324 39.2186C98.5429 39.5259 98.6234 39.2933 99.2692 39.541C99.0694 39.6051 99.7687 39.834 99.2406 39.7673C98.9262 39.7276 99.204 40.0565 98.4514 39.7442C98.8301 39.8815 98.9306 39.9964 98.6194 39.9315C98.3082 39.8667 97.9531 39.7452 97.6074 39.6504C96.9395 39.4766 97.9592 39.8992 98.1666 39.9765C98.374 40.0538 99.3827 40.4623 99.1752 40.4872C98.9676 40.5121 98.4882 40.4643 99.2975 40.7326C98.7334 40.5464 97.1338 39.961 97.6976 40.3516C97.9913 40.5548 99.3192 40.9653 98.7627 40.9206C98.6747 40.9094 97.9328 40.8157 98.0837 40.8348C98.2346 40.8538 98.7028 41.0918 98.8819 41.1911C99.0609 41.2904 98.6304 41.1593 98.5815 41.2426C98.5327 41.3259 97.9813 41.039 97.7675 41.012C97.5537 40.985 97.6369 41.136 97.178 41.027C97.0774 41.0142 96.3073 40.8403 96.8887 40.9904C97.2092 41.1842 97.3677 41.3448 97.2938 41.4248C97.2198 41.5049 96.9165 41.3772 96.7561 41.4336C96.5957 41.4899 98.1656 41.9055 98.4248 42.0787C98.6839 42.252 97.6924 41.9096 97.5699 41.8685C97.4473 41.8275 97.0795 41.8066 97.3938 41.8463C97.2429 41.8272 96.3112 41.4157 96.3206 41.4424C96.9101 41.8558 97.5297 42.2244 98.1742 42.5453C98.1631 42.6333 97.3053 42.2439 97.2281 42.3491C98.2086 42.6774 97.3661 42.571 97.5798 42.7002C97.7934 42.8293 98.1549 42.9006 98.1563 42.9902C98.1578 43.0798 98.0306 42.9743 97.9426 42.9632C97.8546 42.9521 97.9958 43.1487 97.914 43.1895L97.7046 43.4313C97.376 43.2519 97.0213 43.1251 96.6534 43.0558C96.339 43.0161 97.1387 43.3598 97.3052 43.4575C97.7562 43.6295 97.9226 43.8294 97.6821 43.8117C97.407 43.7182 97.1483 43.5821 96.9154 43.4083C96.6892 43.2775 96.175 43.4042 96.7721 43.6329C97.9914 44.0936 95.7787 43.5074 95.7535 43.5042C96.0761 43.5969 96.3855 43.7305 96.6742 43.9016C96.6742 43.9016 96.16 44.0283 96.6441 44.1405C96.6441 44.1405 96.0938 44.1476 96.4961 44.3007C96.6847 44.3245 97.1998 44.6962 96.9311 44.5984C96.5063 44.4217 96.106 44.1908 95.7404 43.9114C95.5756 43.8716 95.4069 43.8503 95.2374 43.8478C95.162 43.8383 95.6883 44.122 95.8941 44.2118L96.9388 44.7399L96.2975 44.6588C95.5212 44.433 96.046 44.6271 96.4026 44.8382C97.2697 45.3565 95.5551 44.9738 96.6046 45.4641C96.7303 45.48 95.6051 45.1846 95.9884 45.3863C96.0765 45.3974 97.1998 45.9098 96.7174 45.785C96.4533 45.7516 95.8312 45.4175 95.7714 45.4866C95.9126 45.6039 96.0746 45.6937 96.2489 45.7514C96.2489 45.7514 95.861 45.4852 96.26 45.6633C96.6591 45.8415 96.6558 45.9688 96.6259 46.0034C96.596 46.0379 96.6068 46.1543 96.3241 45.9653C96.0414 45.7762 95.4553 45.5617 95.5151 45.4926C95.2905 45.3887 95.0577 45.3038 94.819 45.2386C94.5675 45.2068 94.987 45.4259 95.1174 45.5062C95.5642 45.7866 96.0334 46.0296 96.5203 46.2328C96.34 46.1506 96.1499 46.0922 95.9545 46.0591C96.1528 46.1895 96.3601 46.3053 96.5751 46.4058C96.8829 46.598 96.4648 46.5707 96.273 46.572C95.9802 46.5743 95.6884 46.5375 95.4054 46.4624C95.267 46.4449 94.6448 46.213 94.8772 46.3957C95.1217 46.5145 95.373 46.6188 95.6298 46.7079C95.9582 46.8388 96.2772 46.943 96.2898 46.9446C96.3024 46.9462 95.4145 46.6935 95.3862 46.7155C95.5931 46.7939 95.7902 46.896 95.9737 47.0197C96.0617 47.0308 96.0379 47.2194 95.6498 47.0554C95.4061 47.1123 95.1519 47.1065 94.911 47.0387C94.5462 47.0948 95.2235 47.2953 95.6082 47.5867C95.993 47.878 94.9167 47.4993 95.0269 47.3344C94.5507 47.3746 94.0723 47.2878 93.6407 47.0826C94.0775 47.2655 94.4248 47.3477 94.8584 47.5558L95.5198 47.8821C94.7656 47.5824 94.6681 47.6468 94.6522 47.7725C94.6363 47.8982 95.227 48.1773 95.5663 48.4245C95.1169 48.24 95.0772 48.5544 94.9986 48.57C94.9199 48.5856 94.2474 48.3473 94.2567 48.4763C94.2659 48.6052 95.8508 49.6103 94.6017 49.082C94.5938 49.1448 95.3886 49.6285 94.9596 49.4849C94.5306 49.3413 94.2117 49.2371 93.7276 49.1248L95.1952 49.6424L93.6221 49.252L94.843 49.7001C94.1931 49.5634 93.564 49.3422 92.9716 49.0421C93.471 49.329 93.9972 49.5667 94.5427 49.7516C95.0879 49.9865 94.4672 49.7421 94.7075 49.964C94.9477 50.186 95.2165 50.1817 95.0247 50.183C94.8329 50.1843 94.481 50.0376 94.5469 50.1226C94.5916 50.2043 94.6414 50.2831 94.6959 50.3586C94.776 50.4326 95.5158 50.9476 95.2549 50.8891L94.3624 50.572C93.6427 50.3022 93.484 50.2438 93.6205 50.4782C93.757 50.7127 93.2433 50.4306 93.0798 50.4099C93.2482 50.2907 92.6418 49.933 92.4172 49.7897Z" fill="#007A3D"/>
<path d="M99.7572 35.5784C99.6787 35.4918 99.6427 35.3723 100.122 35.6245C100.601 35.8766 100.381 35.8999 100.31 35.9548L99.8089 35.6744L99.7572 35.5784Z" fill="#007A3D"/>
<path d="M96.8007 35.1155C96.3609 34.8555 97.1779 35.1631 96.8277 34.9017C96.4775 34.6403 97.4755 34.8302 97.6642 34.7519C97.0891 34.5515 97.0484 34.4697 97.2669 34.4589C97.6095 34.4726 97.9502 34.5157 98.2854 34.5876C97.6064 34.5018 96.3765 33.7205 97.6617 34.2661C98.0906 34.5119 98.0767 34.3185 97.6776 34.1404C97.2786 33.9622 96.8606 33.8327 96.9377 33.7275C96.5907 33.4409 98.1666 34.1127 98.3882 34.179C99.1311 34.3675 99.8607 34.6048 100.572 34.8893C100.649 34.9885 99.9814 34.8147 100.292 34.9817C100.603 35.1488 101.089 35.3506 100.751 35.2952C100.413 35.2397 99.8853 34.9686 99.626 34.8975L99.1435 34.7727C99.5835 34.9305 100.276 35.2096 99.7531 35.1052C99.489 35.0718 98.5147 34.7954 98.3198 34.7197L100.037 35.2816C100.026 35.3697 99.3114 35.0622 99.1541 35.0934C98.9969 35.1246 99.2105 35.2538 99.2229 35.3576C99.2354 35.4614 99.0105 35.5224 99.4032 35.7509C99.5038 35.7636 99.9798 36.0409 99.9499 36.0754C99.6346 35.9282 99.3084 35.8059 98.9741 35.7094C98.9614 35.81 99.5491 36.012 99.9419 36.1383C99.6867 36.0544 99.4178 36.0204 99.1497 36.0382C98.9611 36.0144 98.8857 36.0048 98.3199 35.8312C97.7974 35.6284 97.2897 35.3893 96.8007 35.1155Z" fill="#007A3D"/>
<path d="M96.9581 33.7683C96.7508 33.5888 96.947 33.8563 96.9581 33.7683V33.7683Z" fill="#007A3D"/>
<path d="M97.3907 33.6824C96.8157 33.3798 98.2991 33.8739 98.6307 33.9796C98.4672 33.959 96.8237 33.317 97.1758 33.3615C97.5279 33.4059 98.0557 33.677 98.18 33.6033C98.3043 33.5296 98.3578 33.5108 98.2919 33.4258C98.1396 33.3664 97.9837 33.3168 97.8251 33.2774C97.3003 33.0834 97.4639 33.0018 97.9794 33.1692C97.5944 32.98 98.7087 33.2613 98.3144 33.0454C98.0158 32.9291 97.7037 32.8511 97.3856 32.8131C97.4769 32.6969 98.3915 32.9402 98.9463 33.0997C98.4718 32.912 98.0947 32.7621 97.5541 32.5916C98.1711 32.762 98.8033 32.8719 99.4417 32.9195C98.9734 32.7837 97.8593 32.4003 98.2335 32.3709C98.6077 32.3415 99.0834 32.8232 99.456 32.8064C99.8286 32.7896 98.3074 32.393 98.4426 32.3334C98.5779 32.2739 99.2253 32.509 98.8043 32.3025L98.3769 32.1463L99.0464 32.3075C98.6172 32.1988 98.2082 32.0221 97.835 31.784C97.681 31.6879 97.9733 31.8014 98.2499 31.8364C97.8964 31.7023 97.6576 31.5699 97.6671 31.4945C97.6767 31.419 98.057 31.5437 98.2707 31.5707C98.4845 31.5977 98.6857 31.6232 98.7251 31.5132C98.4656 31.3953 98.1944 31.3053 97.9159 31.2449C98.1408 31.2432 98.3649 31.2715 98.5823 31.3291L98.8338 31.3608C99.7987 31.6105 100.217 31.8421 101.175 32.1421C102.134 32.442 101.576 32.4099 101.572 32.5372C101.569 32.6645 101.965 32.97 101.451 32.8923C101.02 32.8181 100.606 32.6662 100.23 32.4442C99.6831 32.3806 99.1408 32.2822 98.6064 32.1497L99.6436 32.434C99.8196 32.4563 100.091 32.6311 100.091 32.6311C100.368 32.6661 101.336 32.8906 101.325 32.9786C101.314 33.0666 101.95 33.6963 100.759 33.3159C100.884 33.3318 100.733 33.5171 100.73 33.5422C100.727 33.5674 101.182 33.8038 101.247 33.9013C101.311 33.9989 101.294 34.1372 100.976 34.1226C100.327 34.1045 101.331 34.3463 101.24 34.4625C100.815 34.2787 100.377 34.1253 99.9308 34.0033C99.6918 33.9732 98.7709 33.7802 99.1668 33.9835C99.8165 34.2261 100.484 34.4173 101.164 34.5552C101.156 34.6181 101.195 34.9168 100.725 34.7936C100.255 34.6703 99.1963 34.2555 98.929 34.2473C98.3787 34.1839 97.8513 33.9903 97.3907 33.6824Z" fill="#007A3D"/>
<path d="M100.961 31.8085C101.226 31.8419 101.555 31.9602 101.508 32.0309C101.461 32.1016 100.914 31.8792 100.961 31.8085Z" fill="#007A3D"/>
<path d="M98.8597 30.8531C99.2858 30.8175 99.8199 31.1404 98.8597 30.8531V30.8531Z" fill="#007A3D"/>
<path d="M100.362 31.1963C99.6786 30.9438 98.8616 30.6362 98.123 30.4151C98.4874 30.3684 98.8575 30.3934 99.2123 30.4889C99.808 30.628 99.1917 30.6524 99.2907 30.6776C99.6428 30.7221 99.9273 30.6942 99.577 30.535C99.1811 30.4228 98.7931 30.2842 98.4158 30.12C97.6902 29.594 99.541 30.4154 99.6605 30.3794C99.78 30.3434 98.4178 29.8009 98.2669 29.7818C98.116 29.7627 98.0675 29.5394 98.9051 29.7858C98.9178 29.6852 98.4134 29.532 98.2532 29.384C98.0931 29.2361 98.1938 29.1466 98.8098 29.3266C97.7349 29.0375 99.0335 28.9716 98.7179 28.7401L98.6424 28.7306C99.0071 28.7766 99.9828 29.1427 100.618 29.3762C101.252 29.6097 101.001 29.5779 101.221 29.6568C101.441 29.7357 102.315 29.9994 101.864 29.9296C101.412 29.8598 101.372 29.778 101.335 29.8629C101.314 29.9038 101.283 29.9392 101.246 29.9665C100.866 29.9396 100.488 29.8919 100.114 29.8235C99.2841 29.7187 101.596 30.2279 101.56 30.2106C101.711 30.2297 100.717 30.1041 101.091 30.2791C101.465 30.4541 102.169 30.6453 101.979 30.7362C101.681 30.7754 101.378 30.7371 101.099 30.625C101.023 30.6155 101.427 30.5516 101.265 30.5183C100.775 30.4564 100.665 30.6213 100.815 30.7425C100.932 30.7839 101.057 30.7996 101.18 30.7886C101.436 30.8039 101.688 30.8616 101.925 30.9594C101.573 30.9149 101.095 30.8545 100.668 30.8005C100.869 30.8259 102.134 31.2285 101.892 31.2234C101.588 31.1669 101.282 31.1282 100.974 31.1075C100.974 31.1075 101.239 31.2304 101.297 31.2761C101.615 31.495 99.773 30.9047 101.275 31.4521C101.882 31.7076 102.069 31.8462 101.402 31.762C100.736 31.6778 102.258 32.164 101.609 32.0437C100.96 31.9233 99.7972 31.6231 99.0193 31.4099C97.3616 30.7789 99.8843 31.1359 100.362 31.1963Z" fill="#007A3D"/>
<path d="M98.7004 28.674C98.7258 28.6672 98.7529 28.6707 98.7758 28.6835C98.7758 28.6835 98.4788 28.6076 98.7004 28.674Z" fill="#007A3D"/>
<path d="M102.192 26.6239C102.498 26.5623 102.816 26.6024 103.097 26.7382C103.042 26.8718 102.115 26.7291 102.192 26.6239Z" fill="#007A3D"/>
<path d="M103.004 25.8578C103.195 26.0608 102.59 25.9971 102.702 25.8197C102.804 25.8202 102.905 25.833 103.004 25.8578Z" fill="#007A3D"/>
<path d="M101.022 29.3121C100.846 29.2899 100.468 29.2422 100.366 29.1399C99.9798 28.9633 100.97 29.2162 99.9217 28.9177C99.5571 28.8716 98.7888 28.4807 99.2541 28.5395C99.7193 28.5983 100.034 28.638 100.376 28.7579C99.9512 28.6764 99.539 28.5384 99.1506 28.3476C99.1585 28.2847 99.7245 28.254 99.0079 28.0613C99.3488 28.1702 99.7069 28.2154 100.064 28.1947C99.6442 28.0985 99.2335 27.9654 98.8369 27.7969L99.78 27.9161C100.596 27.9297 99.0069 27.6651 98.9535 27.5817C98.9002 27.4983 99.4079 27.5241 99.4991 27.5101C99.7985 27.5465 100.094 27.6095 100.382 27.6984C100.393 27.6103 99.4819 27.4441 99.3216 27.3983C99.1613 27.3525 99.2652 27.2378 99.0327 27.1574C98.8001 27.0769 98.7153 27.0406 99.047 27.0442C99.3787 27.0478 99.2483 26.9674 99.0692 26.8681C98.8901 26.7689 98.2773 26.5637 98.6765 26.6397C98.8525 26.6619 99.5173 26.8609 99.5959 26.8453C99.6745 26.8296 99.31 26.6814 99.0617 26.6245C98.1203 26.3906 99.4139 26.5668 99.56 26.6236C99.56 26.6236 98.8717 26.4088 98.9332 26.3272C98.9946 26.2455 99.323 26.3764 99.5745 26.4082C99.8259 26.44 98.8785 26.052 98.8549 26.0362C98.8314 26.0205 99.2573 26.0871 99.3926 26.0275C99.748 25.9567 100.112 25.9381 100.473 25.9723C100.699 26.0009 101.164 26.0597 100.889 25.91C100.614 25.7603 99.7721 25.5517 99.8036 25.5046C99.8351 25.4574 99.4297 25.3296 99.1751 25.2208C98.52 24.9464 100.45 25.2413 99.2212 24.8561C99.842 24.9984 100.381 25.0793 100.197 24.9156C100.014 24.7518 99.0959 24.5337 99.129 24.474C99.7299 24.612 100.322 24.785 100.903 24.9919C101.537 25.1223 102.18 25.2036 102.827 25.235C103.405 25.3081 103.117 25.5655 103.088 25.6001C103.058 25.6346 102.091 25.2953 101.749 25.2776C101.937 25.3014 102.226 25.338 102.49 25.3713C102.113 25.3237 101.706 25.2084 101.422 25.2363C101.137 25.2642 101.531 25.3779 101.866 25.4585C102.201 25.5392 103.007 25.8326 102.07 25.6632C101.756 25.6235 100.827 25.3911 100.926 25.5186C101.464 25.7186 102.016 25.878 102.578 25.9956C103.03 26.0527 102.78 26.2128 102.761 26.2615C102.742 26.3102 103.04 26.68 101.691 26.3434C102.113 26.5373 101.417 26.3855 101.356 26.4671C101.294 26.5488 101.997 26.6503 101.964 26.71C101.931 26.7697 100.273 26.3431 100.909 26.6662C101.243 26.8323 101.596 26.9544 101.962 27.0292C102.263 27.0673 101.69 26.8543 101.619 26.8071C101.549 26.7598 101.754 26.7475 102.059 26.8627C102.364 26.9778 102.399 26.9055 102.407 26.8427C102.99 26.9802 103.148 27.243 102.578 27.107C102.567 27.195 102.969 27.348 102.819 27.4186C102.458 27.4966 102.081 27.449 101.751 27.2836C101.498 27.1718 101.235 27.0831 100.966 27.0184C100.765 26.993 99.8017 26.9351 100.1 26.9984C100.399 27.0617 100.977 27.237 101.431 27.3838C101.885 27.5306 102.154 27.6284 102.156 27.718C102.157 27.8076 102.685 27.9765 102.726 28.0583C102.767 28.1401 98.4213 27.0418 101.997 27.9662C102.628 28.1226 102.803 28.2596 102.395 28.2465C102.194 28.2211 100.857 27.9882 100.857 27.9882C100.947 28.0117 101.04 28.0234 101.133 28.0232L101.765 28.1797C102.073 28.2298 102.371 28.3278 102.648 28.4701C101.97 28.2435 101.271 28.0866 100.561 28.002C100.421 28.0993 101.917 28.3905 102.181 28.5261C102.445 28.6616 102.169 28.6267 102.164 28.6644C102.159 28.7021 102.481 28.7811 102.549 28.8535C102.616 28.9259 101.422 28.8772 101.422 28.8772C101.7 28.9202 101.974 28.9933 102.237 29.0952C102.325 29.1063 102.228 29.1707 102.037 29.1594C101.623 29.0765 101.202 29.0235 100.78 29.0005C100.882 29.1029 101.847 29.3525 102.112 29.4755C102.378 29.5985 101.884 29.5617 101.521 29.4008C101.159 29.24 101.415 29.4384 101.022 29.3121Z" fill="#007A3D"/>
<path d="M101.153 25.0363C100.675 24.9759 100.006 24.7125 100.314 24.7003L100.402 24.7115L101.808 25.0041C101.588 24.9635 101.365 24.9353 101.142 24.9199C101.437 24.9062 102.36 25.291 101.153 25.0363Z" fill="#007A3D"/>
<path d="M102.736 24.7381C102.912 24.7603 103.629 24.8509 103.62 24.9263C103.61 25.0017 102.725 24.8261 102.736 24.7381Z" fill="#007A3D"/>
<path d="M98.8007 24.2408C98.8007 24.2408 99.3037 24.3043 99.3368 24.2446C99.3699 24.1849 99.1263 24.0903 99.2097 24.0369C99.3756 23.9714 99.5535 23.9417 99.7318 23.9496C99.8449 23.9639 100.31 24.0227 100.31 24.0227C100.089 23.9665 99.8718 23.8964 99.6596 23.8127C99.9614 23.8509 100.779 23.9541 101.143 24.0002L103.213 24.4022C103.202 24.4902 101.704 24.2116 101.821 24.3029C101.937 24.3943 103.468 24.511 103.384 24.6666C102.143 24.3819 102.906 24.6062 102.344 24.6117C101.781 24.6173 100.86 24.2199 100.898 24.429C100.935 24.6382 101.644 24.5872 101.966 24.5641C102.483 24.6699 102.99 24.8194 103.481 25.011C102.793 24.9676 102.109 24.8811 101.432 24.752C100.796 24.5806 100.141 24.4978 99.4826 24.5058C99.5535 24.4509 99.4435 24.4114 98.8007 24.2408Z" fill="#007A3D"/>
<path d="M99.1741 23.5089C99.1741 23.5089 99.1741 23.5089 99.589 23.5613C100.004 23.6137 100.557 23.6836 100.858 23.6321C100.324 23.5612 99.7874 23.5232 99.2495 23.5184C99.1238 23.5025 99.2495 23.5184 99.3501 23.5311C99.4507 23.5438 99.5215 23.4889 99.4964 23.4857C99.4712 23.4825 99.0011 23.5636 99.8597 23.34C99.9603 23.3527 102.377 22.7255 101.837 22.7593L100.895 23.0364L100.185 23.1895C99.6208 23.3098 99.5547 23.327 99.602 23.2563C99.6493 23.1856 99.5391 23.2484 99.8553 23.0711C100.172 22.8939 100.164 22.9568 100.149 22.9678C100.135 22.9788 101.024 22.5162 101.122 22.4518L102.692 21.6537C103.112 21.4641 102.767 21.7654 103.019 21.695C103.27 21.6246 103.608 21.4757 103.52 21.669C103.432 21.8622 103.251 22.0821 102.423 22.3608C102.17 22.4438 101.477 22.6755 101.752 22.5187C102.027 22.3619 101.124 22.7332 101.071 22.752C101.017 22.7708 100.005 23.205 100.244 23.133C100.483 23.061 100.914 22.8855 101.035 22.8369C101.417 22.691 101.812 22.5785 102.214 22.5004C102.214 22.5004 103.032 22.6037 103.28 22.3541C103.28 22.3541 103.016 22.3207 103.222 22.2062C103.428 22.0917 103.926 22.4996 102.826 22.616C102.39 22.7271 102.582 22.7257 102.402 22.8308C102.223 22.9359 102.229 22.8856 101.849 22.9653C102.227 22.9372 102.607 22.9382 102.985 22.9684C103.4 23.0208 103.197 23.2123 103.142 23.3459C103.645 23.6138 101.96 23.4009 101.364 23.4661C101.213 23.4471 101.229 23.5257 101.241 23.5273C101.436 23.5688 101.634 23.5937 101.832 23.602C102.32 23.5869 102.975 23.6569 102.562 23.6941C102.059 23.7479 101.553 23.7651 101.048 23.7456C101.038 23.821 100.398 23.7274 100.23 23.7445C100.062 23.7616 101.576 23.9145 101.714 23.9319C102.138 23.9507 102.558 24.0253 102.963 24.1537C103.243 24.3678 102.501 24.2741 102.044 24.1525C101.792 24.1207 101.528 23.9851 101.266 23.9392C101.003 23.8933 101.052 23.9122 101.153 23.9249C100.472 23.9158 99.8004 23.7745 99.1741 23.5089Z" fill="#007A3D"/>
<path d="M100.477 22.3959C100.402 22.3864 99.9044 22.7835 99.6984 22.898C99.4923 23.0125 99.8432 22.763 100.071 22.5746C100.3 22.3863 102.295 20.7477 101.994 21.2079C102.331 20.9694 102.561 20.7685 102.437 20.74C102.943 20.3697 102.57 21.1017 102.482 21.1928C101.935 21.7783 101.271 22.2428 100.534 22.5564C98.7558 23.5837 100.716 22.4261 100.477 22.3959Z" fill="#007A3D"/>
<path d="M99.2428 22.8658C99.1214 23.1188 99.1057 23.1423 99.1073 23.1298C99.1987 22.9114 99.2633 22.8046 99.2428 22.8658Z" fill="#007A3D"/>
<path d="M98.6023 20.9582L98.6563 20.5307C98.6992 20.1912 98.7358 19.902 98.8552 19.9682C98.8011 20.3917 98.6972 20.8074 98.5454 21.2065C98.5574 21.1223 98.5764 21.0393 98.6023 20.9582Z" fill="#007A3D"/>
<path d="M99.0936 19.0912C99.0936 19.0912 98.9125 19.311 98.8418 19.2638C98.9308 18.5596 99.0465 19.0597 99.0936 19.0912Z" fill="#007A3D"/>
<path d="M102.184 20.9252C102.199 20.7995 101.211 21.5433 101.265 21.4224C101.318 21.3014 101.584 21.0156 101.641 20.8695C101.698 20.7234 101.678 20.5803 101.577 20.7719C101.745 20.539 101.931 20.319 102.133 20.114L100.955 21.2427C101.231 20.8815 101.847 19.9501 101.52 20.1132C101.139 20.4394 100.821 20.8321 100.581 21.2721C100.572 21.3476 100.405 21.5564 100.383 21.5281C100.361 21.4998 100.395 21.4275 100.407 21.3395C100.556 21.0326 100.722 20.7337 100.903 20.4441C101.21 20.0357 101.467 19.5189 101.256 19.5689C101.046 19.6189 100.614 20.5097 100.418 20.7405C100.223 20.9714 100.447 20.5142 100.476 20.2879C100.647 20.0542 100.801 19.8091 100.939 19.5543C101.226 18.9007 101.017 18.9382 100.725 19.5273C100.829 19.3105 100.922 18.9773 100.785 19.0495C100.592 19.3145 100.436 19.604 100.319 19.9104C99.9452 20.7446 99.606 21.6088 99.2669 22.473C99.5224 21.8665 99.6648 21.1436 99.8699 20.6329C99.9016 20.3814 100.152 20.1192 100.258 19.7877C100.363 19.4561 100.059 19.9415 100.026 20.0012C99.823 20.397 99.4394 21.6133 99.4366 21.3319C99.5661 20.8364 99.7552 20.3584 99.9997 19.9084C100.528 18.9658 100.078 19.2922 99.9708 19.2276C99.8639 19.163 99.9369 18.6868 99.8013 18.9507C99.6658 19.2146 99.6132 19.7318 99.506 19.9737C99.3691 20.4931 99.1897 21.0002 98.9695 21.4901C98.9695 21.4901 99.4291 19.8746 99.4024 19.884C99.3756 19.8934 99.2541 20.2485 99.2827 20.0222C99.3113 19.7958 99.4801 19.37 99.537 19.1217C99.7489 18.152 99.3861 19.1027 99.2455 19.6087C99.3027 19.156 99.5427 18.3687 99.3091 19.1057C99.0754 19.8427 98.6147 21.1642 98.4471 21.884L98.509 21.3936C98.5367 20.9716 98.5898 20.5517 98.6679 20.1361C99.0528 19.1117 98.3719 20.4564 98.3719 20.4564C98.3719 20.4564 98.8326 19.2371 98.5805 19.6141C98.4876 19.7429 98.6425 19.1237 98.5325 19.0842C98.4225 19.0448 98.2786 19.6782 98.2315 19.6466C98.1844 19.6151 98.8268 17.6651 98.5037 18.3013C98.3051 18.6595 97.9545 19.9183 97.7383 20.5169C97.778 20.2026 97.8177 19.8882 97.8574 19.5738C97.8695 19.2524 97.9099 18.9326 97.9782 18.6182C97.9782 18.6182 98.0409 18.7283 98.1039 18.6341C98.3025 18.2759 97.933 18.2676 97.933 18.2676C97.933 18.2676 97.7746 18.0048 97.6403 18.5627C97.2181 20.3873 97.5422 17.8221 97.2996 18.2258C97.0961 18.765 96.9201 19.3141 96.7723 19.8711C96.5277 20.5448 96.354 21.2421 96.2539 21.9518C96.2063 22.3291 96.3324 22.0384 96.5093 21.4475C96.6861 20.8567 96.9331 20.7218 96.9522 20.5709C96.8982 20.9984 96.6992 21.6632 96.568 22.1959C96.6046 21.9067 97.3653 19.6266 97.2261 20.3245C97.0638 20.9008 96.9344 21.4858 96.8386 22.0768C96.8005 22.3786 96.9554 22.8709 97.1782 22.0175C96.9603 22.7309 97.2108 22.3666 97.3417 22.0382C97.356 21.925 97.7753 21.0326 97.6236 21.6267C97.4719 22.2207 97.3565 22.7299 97.5204 22.444C97.6843 22.1581 97.5061 22.5572 97.6868 22.6439C98.0288 21.9589 98.1848 22.8473 98.3577 22.8947C98.5306 22.9421 98.5212 22.9154 98.63 22.6608C98.7388 22.4063 98.8055 21.8782 98.8055 21.8782C98.7847 22.1734 98.7476 22.4673 98.6943 22.7584C98.6594 23.035 98.8703 22.7806 99.0011 22.5544C99.2728 21.6178 99.0011 22.5544 98.9694 22.8059C98.9376 23.0574 98.9487 22.9694 98.9535 22.9316L99.1144 22.4665C99.0616 22.6704 98.9978 22.8713 98.9234 23.0684C99.1272 22.6574 99.3566 22.2597 99.6104 21.8777C99.9978 21.3389 99.2227 22.6207 99.0541 22.9444C98.7074 23.5649 99.2557 22.6632 99.0334 23.1078C99.6194 22.2109 99.0143 23.2587 99.2065 22.9508C99.4842 22.5431 99.7893 22.1549 100.12 21.7887C100.265 21.6537 100.42 21.5329 100.576 21.412C100.222 21.7889 99.8379 22.2002 99.5246 22.5567L99.0901 23.0639L99.2837 22.8456C99.394 22.6807 99.6662 22.4468 99.6741 22.4861C99.334 22.852 99.6819 22.5254 99.6741 22.4861C99.548 22.6746 99.6741 22.4861 99.1184 23.0419C99.2947 22.8598 99.3071 22.9636 100.198 22.1818C100.564 21.9169 100.915 21.6329 101.251 21.3312L101.75 20.9215C101.75 20.9215 101.919 21.0962 102.184 20.9252ZM99.9489 21.5244C99.8135 21.6861 99.9981 21.1346 100.201 20.8409C100.269 20.69 100.351 20.5464 100.447 20.412C100.327 20.8018 100.16 21.1753 99.9489 21.5244Z" fill="#007A3D"/>
<path d="M95.8596 20.3177C95.8001 20.5778 95.704 20.828 95.5741 21.061C95.5411 21.0185 96.0018 19.7992 95.8596 20.3177Z" fill="#007A3D"/>
<path d="M95.9005 21.5112C95.9291 21.2849 95.9736 20.9328 96.0038 20.6939C96.0626 20.2286 95.9029 20.8855 95.783 21.2281C95.663 21.5706 95.3775 22.3138 95.4474 21.7606C95.5173 21.2073 95.7727 20.703 95.9037 20.2724C96.3718 19.399 95.9847 19.6311 95.98 19.6688C96.0086 19.4425 96.1772 19.1189 96.2846 18.7747L96.3116 18.561C96.3634 18.2533 96.4443 17.9513 96.5533 17.6589C96.7281 17.3872 96.6017 17.8822 96.4802 18.2374C96.4691 18.3254 96.1327 19.471 96.3753 19.0673C96.618 18.6636 96.6374 18.2061 96.7903 17.9061C96.9432 17.606 96.9161 17.9219 96.9285 18.0257C96.941 18.1295 97.0807 18.2366 97.1545 18.3609C97.0721 19.0705 96.8941 19.7656 96.6251 20.4274C96.3585 21.1219 95.8461 22.2453 95.9005 21.5112Z" fill="#007A3D"/>
<path d="M96.3382 18.5515L96.3112 18.7653C96.2149 19.0214 96.4269 18.0517 96.3382 18.5515Z" fill="#007A3D"/>
<path d="M94.7635 18.276C94.8048 17.949 95.2134 16.8381 95.1532 17.2138C95.0929 17.5894 94.8326 18.3358 94.7635 18.276Z" fill="#007A3D"/>
<path d="M94.3088 18.6399C94.3644 18.1998 94.8438 17.0339 94.8639 17.2792C94.884 17.5245 94.2058 19.2528 94.3088 18.6399Z" fill="#007A3D"/>
<path d="M89.7957 15.9364C89.9537 15.292 90.3318 14.7266 90.0824 15.4871C89.9843 15.9602 89.7305 16.4519 89.7957 15.9364Z" fill="#007A3D"/>
<path d="M86.3214 18.4613C86.3346 18.0542 86.7314 17.5422 86.3214 18.4613V18.4613Z" fill="#007A3D"/>
<path d="M95.2462 21.7351C95.2684 21.5591 95.2741 20.8061 95.086 21.5871C94.9391 22.1435 94.8168 21.8981 94.7697 21.8666C94.7225 21.835 94.4444 21.7105 94.4009 21.3473C94.3574 20.9841 94.0296 21.5559 93.893 21.4236C93.7564 21.2914 94.2661 19.8867 93.8561 20.8058C93.6541 21.3935 93.5764 20.6938 93.5306 20.8541C93.3727 21.3962 93.1233 20.9432 93.0417 20.8817C92.96 20.8203 92.7538 21.037 92.6282 20.9189C92.748 20.7659 92.8354 20.59 92.8851 20.402C92.9153 20.1631 92.7595 20.284 92.7234 20.2666C92.6872 20.2493 92.7615 19.9649 92.7678 19.9146C92.7742 19.8643 92.5742 20.1328 92.4748 20.4141L92.5674 20.4897C92.2854 21.0034 92.2257 20.9703 92.1836 20.6967C92.1415 20.4231 91.9552 20.9872 91.8877 20.9148C91.8202 20.8424 91.9783 20.1981 91.9567 19.8632C91.9352 19.5283 91.6417 20.3344 91.5157 20.5229C91.1739 21.0035 91.3182 20.0636 91.0728 20.1859C90.8274 20.3082 90.928 20.3209 91.1236 19.7835C91.3193 19.2461 90.9003 19.8319 90.8516 19.813C90.8029 19.7941 90.8049 19.4749 90.4265 20.3469C90.3019 20.625 90.416 19.924 90.4948 19.8062C90.6591 19.2138 90.8134 19.0033 90.6988 18.8994C90.4925 19.1161 90.7289 18.6605 90.863 18.307C91.1262 17.6986 91.3502 17.074 91.5336 16.4371C91.242 16.9307 91.0006 17.4523 90.8131 17.9941C90.6573 18.3672 90.5358 18.7538 90.4501 19.149C90.2811 19.677 89.8712 20.5962 90.146 19.6344C89.9901 19.8574 89.8891 20.1513 89.8074 20.0899C89.8567 19.7001 89.7718 19.6638 89.6995 19.6291C89.6273 19.5944 89.3754 19.8692 89.3618 19.4715C89.3555 19.2845 89.3791 19.0977 89.4317 18.9182C89.3099 19.2785 89.1247 19.6142 88.8848 19.9094C88.8848 19.9094 89.0064 19.5543 89.1562 19.1772C89.306 18.8001 89.4732 18.3869 89.5095 18.302C89.2509 18.9337 88.9575 19.6376 88.8098 19.5934C88.6621 19.5491 88.4954 19.5536 88.6863 19.054C88.5303 19.3792 88.3854 19.5142 88.2927 19.5408C88.1999 19.5674 88.3133 19.3773 88.361 19.0001C88.2542 19.1635 88.1363 19.3193 88.0082 19.4665C88.0622 19.1167 88.1485 18.7727 88.2658 18.4387C88.2817 18.313 88.4364 17.796 88.493 17.8542C88.5495 17.9125 88.674 17.6344 88.7086 17.6643C88.7431 17.6942 88.5421 17.5666 88.3184 17.9216C88.0947 18.2766 88.0139 18.7135 87.869 18.9507C87.724 19.1879 88.0256 18.2168 88.0666 18.0942C88.1077 17.9716 87.7643 18.4648 87.6997 18.5716C87.3831 19.0554 87.1645 19.0661 87.4785 18.1988C87.4976 18.0479 87.1546 18.2345 87.0346 18.6792C87.1283 18.4444 87.1976 18.2006 87.2415 17.9516C87.1786 17.9437 86.9896 18.2264 86.8699 18.3646C86.7503 18.5028 87.1917 17.5365 87.28 17.3433C87.1712 17.5978 87.0959 17.4861 86.8988 17.9339C86.8829 18.0596 86.5329 18.8075 86.4921 18.7257C86.4936 18.6155 86.5075 18.5058 86.5335 18.3987L86.4534 18.3247C86.4454 18.3876 86.4534 18.3247 86.4661 18.2241C86.5945 17.7236 86.7548 17.2318 86.9459 16.7517C87.0643 16.4218 87.2975 15.9913 87.241 15.9331C87.0313 16.3793 86.831 16.8522 86.6339 17.3C86.4368 17.7478 86.5017 17.4366 86.4056 17.5905C86.3095 17.7445 86.1296 18.2583 86.0494 18.2865C85.9692 18.3147 85.9111 18.269 85.9789 18.137C86.0466 18.0051 86.4043 17.3987 86.4612 17.1504C86.5181 16.9021 86.3355 17.1345 86.2298 17.3639C85.8548 18.0064 85.8861 18.1636 85.7385 18.0172C85.5909 17.8708 86.0607 16.8826 86.5146 16.0202C86.7777 15.5552 87.0458 14.9503 87.2933 14.4067C87.7931 13.2817 87.2282 14.9222 87.2282 14.9222C87.2282 14.9222 87.6302 14.066 87.668 13.9686C87.7059 13.8712 87.455 14.5421 87.4422 14.7449C87.4294 14.9477 87.5645 14.9903 87.5846 15.2355C87.6047 15.4808 87.5163 15.7762 87.7732 15.2594C87.9077 14.9819 88.013 14.6913 88.0872 14.392C88.1909 14.4818 88.3764 14.4285 88.3619 14.7461C88.2067 15.3138 87.9959 15.8649 87.7324 16.3912C87.9311 15.9309 87.8882 16.2704 87.9086 16.3113C88.0258 16.1069 88.1254 15.893 88.2066 15.6718C88.3501 15.345 88.9837 14.0709 88.7437 14.8582C88.5763 15.3086 88.3717 15.7442 88.132 16.1606C87.9776 16.4733 88.0399 16.89 88.0749 16.6133C88.1302 16.4098 88.2107 16.214 88.3146 16.0304C88.3146 16.0304 88.2685 16.3951 88.4529 16.0479C88.5829 15.8432 88.6917 15.6258 88.7776 15.399C88.5931 15.8484 87.5288 18.2051 87.9901 17.6885C88.0956 17.5613 89.121 14.9059 89.135 14.9971C88.9864 15.5547 88.8061 16.1035 88.5952 16.6407C88.7699 16.2525 88.9711 15.8767 89.1972 15.5159C89.4869 15.1437 88.7447 16.468 88.8299 16.2999C88.7226 16.5419 88.7997 16.5388 88.7854 16.652C88.6339 17.0417 88.7504 16.9286 88.7457 16.9663C88.8655 16.726 89.4078 15.5681 89.1591 15.8177C89.3452 15.3558 89.7832 14.619 89.6189 15.2115C89.5697 15.6013 88.996 16.7041 88.9768 16.9572L89.237 16.313C89.3111 16.0788 89.4166 15.8558 89.5507 15.65C89.7016 15.6691 89.1907 16.882 89.0314 17.2324C89.1069 17.2419 89.2459 16.7485 89.3339 16.7596C89.4219 16.7707 89.4596 16.7755 89.5777 16.6499C89.7534 16.4484 89.9056 16.2277 90.0313 15.9918C90.1495 15.764 90.2631 15.4717 90.3039 15.5535C90.3446 15.6353 90.2626 15.8805 90.4137 15.6952C90.5649 15.5099 90.5178 15.4784 90.5114 15.5287C90.5189 15.7199 90.4948 15.9111 90.4399 16.0945C90.4224 16.2328 90.351 16.7987 90.4943 16.5741C90.6377 16.3494 90.7452 15.9031 90.7452 15.9031C90.7452 15.9031 90.423 17.0377 90.3725 17.1336C90.5474 16.8618 90.3233 17.5234 90.4665 17.4009C90.676 16.9622 90.8608 16.5122 91.0201 16.0528C90.9309 16.2535 90.8657 16.4639 90.8259 16.6798C90.859 16.5384 90.9225 16.4059 91.0119 16.2914C91.1014 16.177 91.2147 16.0834 91.344 16.0171C91.4446 16.0298 91.7501 15.634 91.3875 16.3803C91.0249 17.1266 91.3414 16.745 91.0777 17.6187C91.0619 17.7444 90.9181 18.2756 91.0206 18.0714C91.0987 17.8756 91.1626 17.6745 91.2116 17.4695C91.374 17.094 91.1528 17.9348 91.4128 17.4949C91.4797 17.2286 91.5894 16.975 91.7376 16.7439C91.8005 16.7519 91.9474 16.1955 92.0401 16.2711C92.1327 16.3467 91.9924 16.6483 92.1547 16.375C91.9443 17.0345 91.6962 17.6814 91.4117 18.3124C91.2196 18.5181 90.7873 19.7154 91.1071 19.2065C91.6131 18.1335 90.9554 19.8006 91.1142 19.7567C91.2614 19.5634 91.3676 19.3421 91.4264 19.1063C91.5873 18.6412 91.3747 18.9082 91.4835 18.6536L91.862 17.7816C92.0418 17.37 92.1964 16.9552 92.1964 16.9552C92.1964 16.9552 91.8237 18.1856 92.0161 17.7756C92.1028 17.5898 92.2023 17.4103 92.3139 17.2383C92.164 17.6154 92.2456 17.779 92.4173 17.5324C92.5148 17.1931 92.6547 16.8674 92.8336 16.563C92.6616 17.014 92.8129 16.7265 92.778 17.0031C92.7912 17.1988 92.7919 17.3952 92.7803 17.5911C92.7803 17.5911 92.7724 17.6539 92.6748 17.7183C92.5486 18.1111 92.3381 19.1704 92.2716 19.4942C92.4007 19.1165 92.554 18.7475 92.7305 18.3896C92.8311 18.4023 92.9811 17.923 93.0362 17.8917C93.0913 17.8603 92.4598 19.8245 92.6548 19.7981C92.8081 19.0646 93.0356 18.3485 93.3336 17.661C93.5923 17.0293 93.491 17.5275 93.2971 17.9502C93.4533 17.5228 93.9992 16.0332 93.7164 17.0578C93.2568 18.6733 93.8629 16.808 93.8293 17.2765C93.7957 17.7449 93.5025 18.3466 93.4098 18.271C93.3172 18.1954 93.0121 19.4983 92.9457 19.7198C93.1002 19.4072 93.2956 19.0742 93.4438 18.7097C93.5921 18.3451 93.7184 17.9523 93.8666 17.5878C94.0149 17.2232 94.1298 17.1228 94.2039 16.9405L93.8252 18.0169C93.8252 18.0169 94.1721 17.192 94.2068 17.1197C94.3597 16.8197 94.279 17.2566 94.2252 17.4798C94.249 17.2912 94.6377 17.0464 94.6424 17.0087C94.489 17.7175 94.0792 18.5344 93.8802 19.1992C93.8516 19.4255 93.8516 19.4255 93.9303 19.4099C94.0089 19.3943 94.0644 19.0563 94.129 18.9495C94.3763 18.5081 94.0463 19.6034 94.0273 19.7543C94.0082 19.9052 94.1228 20.0091 94.1607 19.9117C94.1827 19.5444 94.2289 19.1789 94.2989 18.8177L94.8447 17.4303C94.8192 17.6315 94.3865 19.1354 94.2903 19.3915C94.1941 19.6476 94.4412 19.4106 94.5563 19.1057C94.6715 18.8009 95.1197 17.4778 95.1682 17.7011C95.2166 17.9244 95.1237 18.0532 95.2527 17.9417C95.3129 17.8076 95.3604 17.6682 95.3948 17.5253C95.5176 17.362 95.2581 18.6067 95.2359 18.7828C95.2137 18.9588 95.5368 18.3225 95.5998 18.2283C95.6628 18.1341 95.9339 17.6062 95.7222 18.3715C95.5675 18.8885 95.3419 19.4605 95.4581 19.5518C95.6523 18.9248 96.0993 17.3077 96.0891 17.8941C96.1944 17.9713 95.4813 19.8741 95.4273 20.3016C95.6725 19.6969 95.8869 19.0802 96.0695 18.4537C96.0536 18.5795 95.5703 20.2814 95.4944 20.6806C95.4184 21.0798 95.2422 22.3734 95.2462 21.7351Z" fill="#007A3D"/>
<path d="M84.9837 13.5782C85.0075 13.3896 85.2961 12.7235 85.3809 12.7597C85.4657 12.796 85.0653 13.6397 84.9837 13.5782Z" fill="#007A3D"/>
<path d="M86.991 14.7771C86.8617 15.199 86.6862 15.6053 86.4675 15.9885C86.4675 15.9885 86.3847 15.6331 86.2172 16.2507C86.1902 16.4645 86.3052 16.2618 86.1823 16.5274C86.0179 17.0337 85.7765 17.5116 85.4667 17.9444C85.2463 18.1721 85.0939 18.0634 85.1243 17.7223C85.1546 17.3812 85.6668 16.36 85.3251 16.8406C85.2006 17.0166 85.0413 17.4691 84.8995 17.6811C84.7577 17.8932 84.7123 17.7469 84.6857 17.6541C84.6591 17.5614 84.7429 17.2015 84.7668 17.0128C84.7906 16.8242 84.6536 16.9985 84.5261 17.0974C84.3987 17.1963 83.8023 17.5681 84.1838 16.7731C84.1997 16.6474 84.6931 15.6749 84.4741 15.9922C84.2552 16.3095 84.1478 16.6536 83.9682 16.9631C84.0675 16.784 84.2523 16.1302 83.8173 16.944C83.6204 17.2896 83.8539 16.6548 83.8586 16.6171C83.8634 16.5793 83.4965 17.0568 83.3754 17.1053C83.2542 17.1539 83.5993 16.546 83.431 16.6652C83.2626 16.7845 83.0499 17.1536 82.9714 17.0671C82.8929 16.9805 83.0349 16.5641 83.0349 16.5641C83.0349 16.5641 82.7738 16.71 82.7063 16.6375C82.6388 16.5651 82.4356 16.8589 82.5493 16.4644C82.5423 16.3283 82.5596 16.1921 82.6001 16.062C82.6001 16.062 82.5795 16.2255 82.7133 16.0763L83.1749 15.3554C83.4332 14.9281 83.7971 14.3736 84.0666 13.8584C84.1943 13.5701 84.3573 13.2989 84.5519 13.051C84.6731 12.9002 84.3216 13.6606 84.2805 13.7832C84.0975 14.3222 84.5498 13.4723 84.5433 13.6247C84.5005 13.7773 84.439 13.924 84.3603 14.0615C84.4989 13.8746 84.7479 13.4206 84.8391 13.4066C84.9303 13.3926 84.2097 15.0517 84.1591 15.2498C84.0686 15.9665 84.4916 14.6402 84.5246 14.6827C84.5575 14.7252 84.5018 15.2675 84.5144 15.2691C84.527 15.2707 84.6797 15.0728 84.7616 14.9298C84.9602 14.5717 85.1587 14.2135 85.3431 13.8663C85.3272 13.9921 84.9831 15.0983 85.0335 15.0025C85.2676 14.4861 85.475 13.958 85.655 13.4203C85.8314 13.136 85.5231 14.4639 85.9614 13.5229L85.4002 14.7295C85.4787 14.816 85.8526 13.7774 85.8253 14.1955C85.8085 14.4565 85.7283 14.7095 85.5917 14.9325C85.5742 15.0708 85.6937 15.0348 85.7267 15.0773C85.7597 15.1198 86.1592 13.7778 86.0372 14.4395C86.0134 14.6281 86.2562 14.1222 86.3096 14.1034C86.3631 14.0846 86.2747 14.38 86.4067 14.4478C86.5386 14.5156 86.9941 13.6405 86.7133 14.346C86.6077 14.5754 86.3004 15.1881 86.2609 15.2981C86.2215 15.4081 86.4891 15.1098 86.3614 15.413C86.2945 15.5289 86.2365 15.6497 86.188 15.7744C86.4636 15.4227 86.7076 15.0474 86.9173 14.6529C86.8544 14.6449 86.4419 15.1804 86.8817 14.2268C86.9744 14.1689 87.0795 14.134 87.1884 14.125C87.1884 14.125 87.1614 14.3388 87.4024 13.9476C87.4024 13.9476 87.4024 13.9476 87.377 14.1488C87.2993 14.6628 87.0051 14.8683 86.991 14.7771Z" fill="#007A3D"/>
<path d="M84.2075 13.1481C84.1446 13.1402 83.5967 13.7353 83.7082 13.8643C84.0185 13.4308 83.1796 15.3178 83.4775 14.7805C83.6461 14.4569 83.8668 14.0249 83.9343 14.0973C84.0018 14.1697 83.9892 14.1681 83.9009 14.3614C83.4863 15.216 83.2884 15.0633 83.0002 15.5251C82.7119 15.9869 82.4674 16.6075 82.3684 16.5822C82.2694 16.557 82.2506 16.5035 82.2255 16.3981C82.2005 16.2928 82.297 15.8323 82.116 16.0521C81.9349 16.272 81.9459 16.2861 82.0737 15.8807C82.0737 15.8807 82.008 15.6935 81.948 15.8648L82.1657 15.2536C82.0728 15.3824 81.8503 16.0313 81.7354 16.1318C81.6205 16.2323 81.7783 15.7923 81.7862 15.7294C81.7942 15.6665 82.1255 14.763 82.1267 15.057C82.4309 14.4695 82.0513 15.0475 82.168 14.7301C82.2848 14.4127 82.6849 13.7734 82.6849 13.7734C82.6849 13.7734 82.0735 14.8714 81.9002 15.1306C81.7555 15.3446 81.5932 15.5463 81.4152 15.7336C81.4025 15.8342 80.871 15.997 80.8662 16.0348L81.3941 15.0922C81.3156 15.0056 80.9813 15.7299 80.8744 15.7675C80.7674 15.8051 80.9157 15.4406 80.957 15.1136C80.9983 14.7867 80.9872 14.8747 80.7933 15.2974C80.5994 15.72 80.5683 15.4606 80.5337 15.4306C80.4992 15.4007 80.3577 15.4084 80.4712 15.1161C80.5848 14.8239 80.8212 14.3683 80.6338 14.6385C80.1172 15.3908 80.1173 15.2886 80.6767 14.2989C80.6092 14.2265 80.319 14.9053 80.2104 15.0576C80.2104 15.0576 79.8641 15.3716 79.8642 15.2694C79.8644 15.1672 80.6441 13.9499 80.2223 14.3565C80.0035 14.5716 79.8268 15.0603 79.7263 14.9454C79.6258 14.8305 79.9802 14.3515 80.0466 14.0277C80.1644 13.7176 80.3007 13.4148 80.455 13.1212C80.7366 12.9878 80.9548 12.7493 81.0627 12.457C81.255 12.0469 80.8491 12.3278 81.1421 11.8283C81.2567 11.4847 81.414 11.1569 81.6103 10.8526C81.5012 11.0507 81.4069 11.2565 81.3281 11.4685C81.4638 11.1024 81.8352 10.7916 81.8508 10.8702C81.8318 11.2118 81.7548 11.5477 81.6231 11.8635C81.5016 12.2186 81.0745 13.0717 81.4288 12.5927C81.7831 12.1137 81.7121 12.373 81.4741 12.8411C81.6521 12.5442 81.8788 12.2663 81.926 12.2978C81.9731 12.3293 82.0038 11.6816 82.1421 11.6991C82.2804 11.7166 82.3797 11.5375 82.4237 11.5941C82.4676 11.6508 81.5267 13.4354 81.8857 13.0209C82.2447 12.6063 82.8378 11.046 82.8103 11.6685C82.6917 12.0267 82.5241 12.3666 82.3122 12.6787C82.1089 13.0746 82.1512 13.1438 81.9196 13.5617C82.1582 13.2416 82.3567 12.8934 82.5105 12.5249C82.6612 12.1923 82.8301 11.8682 83.0164 11.5541C83.1613 11.3169 83.0069 11.6295 82.9862 11.793C82.7035 12.233 82.4763 12.7064 82.3099 13.2022C82.2925 13.3405 82.4231 13.2165 82.5649 13.0045C82.6411 12.6538 82.7829 12.3206 82.9828 12.0225C82.9828 12.0225 82.9399 12.362 82.9716 12.1105C83.0034 11.859 83.0945 11.9472 83.151 12.0054C83.2075 12.0637 83.3448 11.685 83.4186 11.7071C83.5106 12.0505 83.5003 12.4133 83.389 12.7509C83.4017 12.6503 83.5592 12.4147 83.6379 12.2969C83.7167 12.1791 83.7763 12.3144 83.8014 12.3175C83.8266 12.3207 84.0799 12.1355 84.1159 12.2551C84.1519 12.3746 83.7405 13.2041 83.917 12.9198C84.0934 12.6355 84.3957 12.2649 84.1593 12.7205C84.4366 12.2445 84.4485 12.757 84.6091 12.5984C84.7696 12.4399 84.2681 13.6796 84.0523 13.9717C84.2032 13.7254 84.2584 13.4324 84.2075 13.1481Z" fill="#007A3D"/>
<path d="M80.05 11.4729C80.1729 11.3096 80.2736 11.2201 80.2766 11.2972C80.2797 11.3742 80.1333 11.5218 80.05 11.4729Z" fill="#007A3D"/>
<path d="M79.8858 10.8518C79.9753 10.9525 80.4973 9.65153 79.8858 10.8518V10.8518Z" fill="#007A3D"/>
<path d="M79.3207 14.9196C79.2075 14.9053 79.132 14.8957 79.1086 14.7778C79.0852 14.6599 79.2587 14.1963 79.0271 14.6142C79.1359 14.3597 79.089 14.1238 79.07 14.2747C79.0509 14.4256 79.0287 14.6016 79.0334 14.5639C78.8052 14.7522 78.7191 14.5242 78.6185 14.5115C78.5179 14.4988 78.2538 14.4654 78.5943 13.793C78.6118 13.6547 78.3849 14.0348 78.3155 14.1794C78.5885 13.4346 77.9208 14.27 77.8754 14.1238C77.83 13.9775 78.6825 12.4883 79.0072 11.8395C79.0072 11.8395 79.0072 11.8395 79.108 11.6478C79.2724 11.2755 79.4631 10.9154 79.6785 10.5701C79.5992 10.8064 79.506 11.0378 79.3994 11.263C79.3565 11.6026 79.6843 10.9286 79.8229 10.7417C79.9615 10.5548 79.6082 11.43 79.5845 11.5164C79.5608 11.6028 79.6726 11.5275 79.6645 11.6926C79.6564 11.8576 79.4817 12.0272 79.343 12.3163C79.2042 12.6053 79.1112 12.8363 79.3048 12.618C79.5756 12.2168 79.8013 11.7869 79.9778 11.3361C80.4334 10.3589 80.687 9.96936 80.7164 10.3435C80.7085 10.4064 80.9108 10.7258 80.7785 10.9646C80.5295 11.4186 80.5205 11.0853 80.4419 11.1009C80.3632 11.1165 80.1349 11.4071 79.9661 11.8329C79.7974 12.2587 79.4938 12.3353 79.3787 12.6401C79.2635 12.945 79.6494 12.4188 79.6761 12.4094C79.7028 12.4 79.657 12.5603 79.7608 12.5479C79.8646 12.5355 80.0634 11.9729 80.1514 11.984C80.2395 11.9952 80.1228 12.2104 80.2142 12.0942C80.3055 11.978 81.0174 10.9948 81.0094 11.0577C81.0015 11.1205 80.7068 11.6326 80.6863 11.6939C80.5428 12.0207 80.6434 12.0334 80.4481 12.3664C80.2527 12.6995 79.9124 13.2697 79.8949 13.408C79.8774 13.5463 80.1988 13.0248 80.194 13.0625C80.1893 13.1003 79.7371 13.848 79.6536 14.0035C79.57 14.159 79.4565 14.4513 79.3399 14.6665C79.5757 14.2085 79.8366 13.7637 80.1214 13.3344C80.1214 13.3344 80.5338 12.9011 80.5357 12.6841C80.5375 12.4672 80.3609 12.8537 80.4099 12.6682C80.481 12.4229 80.5669 12.182 80.6671 11.947C80.8687 11.4889 81.0998 11.0445 81.359 10.6164C81.359 10.6164 80.8482 11.7271 80.7772 11.8843C81.0142 11.5191 81.2718 11.1677 81.5489 10.832C81.3606 11.2433 81.148 11.643 80.9123 12.0291C80.7734 12.296 80.6492 12.5703 80.5402 12.8508C80.206 13.5805 79.7974 14.2738 79.3207 14.9196Z" fill="#007A3D"/>
<path d="M79.0389 11.5881L78.938 11.7798C78.938 11.7798 79.1177 11.3681 79.0389 11.5881Z" fill="#007A3D"/>
<path d="M78.4702 12.6531C78.239 12.7644 78.2199 12.9153 77.815 13.5923C77.555 14.0321 77.56 13.79 77.5287 13.735C77.4973 13.6799 77.1471 13.4185 77.8198 12.3409C77.7429 12.2418 77.5078 12.8892 77.3189 13.0697C77.4954 12.5624 77.7409 12.0819 78.0486 11.6417C78.381 11.1343 78.6675 10.8895 78.2121 11.6623C78.5826 11.0407 79.0074 10.4531 79.4815 9.90642C79.0403 10.6683 78.095 12.2863 78.2567 12.4217L78.6255 11.7273C78.8651 11.2466 79.1188 10.7549 79.4103 10.2679C79.8625 9.52019 78.9814 11.2357 78.6853 11.6582C78.8806 11.4274 79.3231 10.8573 79.0772 11.2862C78.8951 11.595 78.7349 11.9162 78.5981 12.2476C78.5755 12.3883 78.5324 12.5249 78.4702 12.6531Z" fill="#007A3D"/>
<path d="M78.9111 9.6683C79.2355 9.22383 79.0589 9.61033 78.8682 10.0078L78.9111 9.6683Z" fill="#007A3D"/>
</g>
<defs>
<clipPath id="clip0_509_13559">
<rect width="101.002" height="39.2906" fill="white" transform="matrix(0.992114 0.125341 0.125341 -0.992114 0 39.0847)"/>
</clipPath>
</defs>
</svg>
