<svg width="96" height="119" viewBox="0 0 96 119" fill="none" xmlns="http://www.w3.org/2000/svg">
<path d="M95.0854 0V23.9402H71.0109V71.3924H47.5249V83.1663H23.7714V118.488H7.62939e-06V83.1663V76.4052V71.3924V23.9402V0H95.0854Z" fill="#CE1126"/>
<mask id="mask0_69_40883" style="mask-type:luminance" maskUnits="userSpaceOnUse" x="0" y="0" width="96" height="119">
<path d="M95.0854 0V23.9402H71.0288V71.3924H47.5427V83.1663H23.7714V118.488H2.28882e-05V83.1663V76.4052V71.3924V23.9402V0H95.0854Z" fill="white"/>
</mask>
<g mask="url(#mask0_69_40883)">
<path d="M47.1327 143.659H-0.730957L-0.730957 95.7786H47.1327L47.1327 143.659Z" stroke="white" stroke-miterlimit="10"/>
<path d="M23.2186 143.659C10.0014 143.659 -0.71331 132.941 -0.71331 119.719C-0.71331 106.497 10.0014 95.7786 23.2186 95.7786C36.4358 95.7786 47.1504 106.497 47.1504 119.719C47.1504 132.941 36.4358 143.659 23.2186 143.659Z" stroke="white" stroke-miterlimit="10"/>
<path d="M23.2188 95.7786V143.659" stroke="white" stroke-miterlimit="10"/>
<path d="M95.0141 143.659H47.1504L47.1504 95.7786H95.0141V143.659Z" stroke="white" stroke-miterlimit="10"/>
<path d="M71.0823 143.659C57.8651 143.659 47.1504 132.941 47.1504 119.719C47.1504 106.497 57.8651 95.7786 71.0823 95.7786C84.2995 95.7786 95.0142 106.497 95.0142 119.719C95.0142 132.941 84.2995 143.659 71.0823 143.659Z" stroke="white" stroke-miterlimit="10"/>
<path d="M71.0823 95.7786V143.659" stroke="white" stroke-miterlimit="10"/>
<path d="M142.878 143.659H95.0142V95.7786H142.878V143.659Z" stroke="white" stroke-miterlimit="10"/>
<path d="M118.964 143.659C105.747 143.659 95.032 132.941 95.032 119.719C95.032 106.497 105.747 95.7786 118.964 95.7786C132.181 95.7786 142.896 106.497 142.896 119.719C142.896 132.941 132.181 143.659 118.964 143.659Z" stroke="white" stroke-miterlimit="10"/>
<path d="M47.1327 95.7786H-0.730957L-0.730957 47.8982L47.1327 47.8982L47.1327 95.7786Z" stroke="white" stroke-miterlimit="10"/>
<path d="M23.2186 95.7786C10.0014 95.7786 -0.71331 85.0602 -0.71331 71.8384C-0.71331 58.6166 10.0014 47.8982 23.2186 47.8982C36.4358 47.8982 47.1504 58.6166 47.1504 71.8384C47.1504 85.0602 36.4358 95.7786 23.2186 95.7786Z" stroke="white" stroke-miterlimit="10"/>
<path d="M-0.713309 71.8384H47.1504" stroke="white" stroke-miterlimit="10"/>
<path d="M23.2188 47.8804V95.7786" stroke="white" stroke-miterlimit="10"/>
<path d="M95.0141 95.7786H47.1504L47.1504 47.8982L95.0141 47.8982V95.7786Z" stroke="white" stroke-miterlimit="10"/>
<path d="M71.0823 95.7786C57.8651 95.7786 47.1504 85.0602 47.1504 71.8384C47.1504 58.6166 57.8651 47.8982 71.0823 47.8982C84.2995 47.8982 95.0142 58.6166 95.0142 71.8384C95.0142 85.0602 84.2995 95.7786 71.0823 95.7786Z" stroke="white" stroke-miterlimit="10"/>
<path d="M47.1504 71.8384H95.032" stroke="white" stroke-miterlimit="10"/>
<path d="M71.0823 47.8804V95.7786" stroke="white" stroke-miterlimit="10"/>
<path d="M142.878 95.7786H95.0142V47.8982L142.878 47.8982V95.7786Z" stroke="white" stroke-miterlimit="10"/>
<path d="M118.964 95.7786C105.747 95.7786 95.032 85.0602 95.032 71.8384C95.032 58.6166 105.747 47.8982 118.964 47.8982C132.181 47.8982 142.896 58.6166 142.896 71.8384C142.896 85.0602 132.181 95.7786 118.964 95.7786Z" stroke="white" stroke-miterlimit="10"/>
<path d="M95.032 71.8384H142.896" stroke="white" stroke-miterlimit="10"/>
<path d="M47.1327 47.8804L-0.730957 47.8804L-0.730957 3.8147e-06L47.1327 3.8147e-06L47.1327 47.8804Z" stroke="white" stroke-miterlimit="10"/>
<path d="M23.2186 47.8804C10.0014 47.8804 -0.71331 37.162 -0.71331 23.9402C-0.71331 10.7184 10.0014 0 23.2186 0C36.4358 0 47.1504 10.7184 47.1504 23.9402C47.1504 37.162 36.4358 47.8804 23.2186 47.8804Z" stroke="white" stroke-miterlimit="10"/>
<path d="M-0.713309 23.9402H47.1504" stroke="white" stroke-miterlimit="10"/>
<path d="M23.2188 0V47.8804" stroke="white" stroke-miterlimit="10"/>
<path d="M95.0141 47.8804L47.1504 47.8804L47.1504 3.8147e-06L95.0141 3.8147e-06V47.8804Z" stroke="white" stroke-miterlimit="10"/>
<path d="M71.0823 47.8804C57.8651 47.8804 47.1504 37.162 47.1504 23.9402C47.1504 10.7184 57.8651 0 71.0823 0C84.2995 0 95.0142 10.7184 95.0142 23.9402C95.0142 37.162 84.2995 47.8804 71.0823 47.8804Z" stroke="white" stroke-miterlimit="10"/>
<path d="M47.1504 23.9402H95.032" stroke="white" stroke-miterlimit="10"/>
<path d="M71.0823 0V47.8804" stroke="white" stroke-miterlimit="10"/>
<path d="M142.878 47.8804L95.0142 47.8804V3.8147e-06L142.878 3.8147e-06V47.8804Z" stroke="white" stroke-miterlimit="10"/>
<path d="M118.964 47.8804C105.747 47.8804 95.032 37.162 95.032 23.9402C95.032 10.7184 105.747 0 118.964 0C132.181 0 142.896 10.7184 142.896 23.9402C142.896 37.162 132.181 47.8804 118.964 47.8804Z" stroke="white" stroke-miterlimit="10"/>
<path d="M95.032 23.9402H142.896" stroke="white" stroke-miterlimit="10"/>
</g>
<path d="M72.2414 70.554H95.0854V93.406H72.2414V70.554Z" fill="#007A3D"/>
</svg>
